%TF.GenerationSoftware,KiCad,Pcbnew,6.0.6*%
%TF.CreationDate,2022-08-19T01:01:07+00:00*%
%TF.ProjectId,minico2,6d696e69-636f-4322-9e6b-696361645f70,rev?*%
%TF.SameCoordinates,Original*%
%TF.FileFunction,Legend,Top*%
%TF.FilePolarity,Positive*%
%FSLAX46Y46*%
G04 Gerber Fmt 4.6, Leading zero omitted, Abs format (unit mm)*
G04 Created by KiCad (PCBNEW 6.0.6) date 2022-08-19 01:01:07*
%MOMM*%
%LPD*%
G01*
G04 APERTURE LIST*
G04 Aperture macros list*
%AMRoundRect*
0 Rectangle with rounded corners*
0 $1 Rounding radius*
0 $2 $3 $4 $5 $6 $7 $8 $9 X,Y pos of 4 corners*
0 Add a 4 corners polygon primitive as box body*
4,1,4,$2,$3,$4,$5,$6,$7,$8,$9,$2,$3,0*
0 Add four circle primitives for the rounded corners*
1,1,$1+$1,$2,$3*
1,1,$1+$1,$4,$5*
1,1,$1+$1,$6,$7*
1,1,$1+$1,$8,$9*
0 Add four rect primitives between the rounded corners*
20,1,$1+$1,$2,$3,$4,$5,0*
20,1,$1+$1,$4,$5,$6,$7,0*
20,1,$1+$1,$6,$7,$8,$9,0*
20,1,$1+$1,$8,$9,$2,$3,0*%
G04 Aperture macros list end*
%ADD10C,0.300000*%
%ADD11C,0.150000*%
%ADD12C,0.120000*%
%ADD13C,0.100000*%
%ADD14RoundRect,0.150000X-0.587500X-0.150000X0.587500X-0.150000X0.587500X0.150000X-0.587500X0.150000X0*%
%ADD15C,1.000000*%
%ADD16RoundRect,0.225000X0.250000X-0.225000X0.250000X0.225000X-0.250000X0.225000X-0.250000X-0.225000X0*%
%ADD17RoundRect,0.150000X0.150000X-0.587500X0.150000X0.587500X-0.150000X0.587500X-0.150000X-0.587500X0*%
%ADD18RoundRect,0.200000X-0.275000X0.200000X-0.275000X-0.200000X0.275000X-0.200000X0.275000X0.200000X0*%
%ADD19C,2.700000*%
%ADD20C,2.000000*%
%ADD21R,2.000000X0.900000*%
%ADD22R,0.900000X2.000000*%
%ADD23R,5.000000X5.000000*%
%ADD24RoundRect,0.175000X-0.175000X0.325000X-0.175000X-0.325000X0.175000X-0.325000X0.175000X0.325000X0*%
%ADD25RoundRect,0.225000X0.225000X0.250000X-0.225000X0.250000X-0.225000X-0.250000X0.225000X-0.250000X0*%
%ADD26RoundRect,0.225000X-0.225000X-0.250000X0.225000X-0.250000X0.225000X0.250000X-0.225000X0.250000X0*%
%ADD27R,0.900000X1.200000*%
%ADD28RoundRect,0.250000X0.850000X-0.375000X0.850000X0.375000X-0.850000X0.375000X-0.850000X-0.375000X0*%
%ADD29R,1.200000X0.900000*%
%ADD30RoundRect,0.225000X-0.250000X0.225000X-0.250000X-0.225000X0.250000X-0.225000X0.250000X0.225000X0*%
%ADD31C,0.650000*%
%ADD32R,1.450000X0.600000*%
%ADD33R,1.450000X0.300000*%
%ADD34O,1.600000X1.000000*%
%ADD35O,2.100000X1.000000*%
%ADD36C,1.524000*%
%ADD37RoundRect,0.200000X0.275000X-0.200000X0.275000X0.200000X-0.275000X0.200000X-0.275000X-0.200000X0*%
%ADD38RoundRect,0.200000X-0.200000X-0.275000X0.200000X-0.275000X0.200000X0.275000X-0.200000X0.275000X0*%
%ADD39RoundRect,0.030000X0.620000X-0.120000X0.620000X0.120000X-0.620000X0.120000X-0.620000X-0.120000X0*%
%ADD40RoundRect,0.200000X1.300000X-0.800000X1.300000X0.800000X-1.300000X0.800000X-1.300000X-0.800000X0*%
%ADD41RoundRect,0.150000X0.150000X-0.825000X0.150000X0.825000X-0.150000X0.825000X-0.150000X-0.825000X0*%
%ADD42R,1.600000X5.700000*%
G04 APERTURE END LIST*
D10*
X163571428Y-107678571D02*
X163571428Y-108750000D01*
X163500000Y-108964285D01*
X163357142Y-109107142D01*
X163142857Y-109178571D01*
X163000000Y-109178571D01*
X165000000Y-109178571D02*
X164285714Y-109178571D01*
X164285714Y-107678571D01*
X166357142Y-109035714D02*
X166285714Y-109107142D01*
X166071428Y-109178571D01*
X165928571Y-109178571D01*
X165714285Y-109107142D01*
X165571428Y-108964285D01*
X165500000Y-108821428D01*
X165428571Y-108535714D01*
X165428571Y-108321428D01*
X165500000Y-108035714D01*
X165571428Y-107892857D01*
X165714285Y-107750000D01*
X165928571Y-107678571D01*
X166071428Y-107678571D01*
X166285714Y-107750000D01*
X166357142Y-107821428D01*
X167428571Y-107678571D02*
X167428571Y-108750000D01*
X167357142Y-108964285D01*
X167214285Y-109107142D01*
X167000000Y-109178571D01*
X166857142Y-109178571D01*
X168857142Y-109178571D02*
X168142857Y-109178571D01*
X168142857Y-107678571D01*
X170214285Y-109035714D02*
X170142857Y-109107142D01*
X169928571Y-109178571D01*
X169785714Y-109178571D01*
X169571428Y-109107142D01*
X169428571Y-108964285D01*
X169357142Y-108821428D01*
X169285714Y-108535714D01*
X169285714Y-108321428D01*
X169357142Y-108035714D01*
X169428571Y-107892857D01*
X169571428Y-107750000D01*
X169785714Y-107678571D01*
X169928571Y-107678571D01*
X170142857Y-107750000D01*
X170214285Y-107821428D01*
X171285714Y-107678571D02*
X171285714Y-108750000D01*
X171214285Y-108964285D01*
X171071428Y-109107142D01*
X170857142Y-109178571D01*
X170714285Y-109178571D01*
X172714285Y-109178571D02*
X172000000Y-109178571D01*
X172000000Y-107678571D01*
X174071428Y-109035714D02*
X174000000Y-109107142D01*
X173785714Y-109178571D01*
X173642857Y-109178571D01*
X173428571Y-109107142D01*
X173285714Y-108964285D01*
X173214285Y-108821428D01*
X173142857Y-108535714D01*
X173142857Y-108321428D01*
X173214285Y-108035714D01*
X173285714Y-107892857D01*
X173428571Y-107750000D01*
X173642857Y-107678571D01*
X173785714Y-107678571D01*
X174000000Y-107750000D01*
X174071428Y-107821428D01*
X175142857Y-107678571D02*
X175142857Y-108750000D01*
X175071428Y-108964285D01*
X174928571Y-109107142D01*
X174714285Y-109178571D01*
X174571428Y-109178571D01*
X176571428Y-109178571D02*
X175857142Y-109178571D01*
X175857142Y-107678571D01*
X177928571Y-109035714D02*
X177857142Y-109107142D01*
X177642857Y-109178571D01*
X177500000Y-109178571D01*
X177285714Y-109107142D01*
X177142857Y-108964285D01*
X177071428Y-108821428D01*
X177000000Y-108535714D01*
X177000000Y-108321428D01*
X177071428Y-108035714D01*
X177142857Y-107892857D01*
X177285714Y-107750000D01*
X177500000Y-107678571D01*
X177642857Y-107678571D01*
X177857142Y-107750000D01*
X177928571Y-107821428D01*
X146171428Y-103863571D02*
X146171428Y-102863571D01*
X146171428Y-103006428D02*
X146242857Y-102935000D01*
X146385714Y-102863571D01*
X146600000Y-102863571D01*
X146742857Y-102935000D01*
X146814285Y-103077857D01*
X146814285Y-103863571D01*
X146814285Y-103077857D02*
X146885714Y-102935000D01*
X147028571Y-102863571D01*
X147242857Y-102863571D01*
X147385714Y-102935000D01*
X147457142Y-103077857D01*
X147457142Y-103863571D01*
X148171428Y-103863571D02*
X148171428Y-102863571D01*
X148171428Y-102363571D02*
X148100000Y-102435000D01*
X148171428Y-102506428D01*
X148242857Y-102435000D01*
X148171428Y-102363571D01*
X148171428Y-102506428D01*
X148885714Y-102863571D02*
X148885714Y-103863571D01*
X148885714Y-103006428D02*
X148957142Y-102935000D01*
X149100000Y-102863571D01*
X149314285Y-102863571D01*
X149457142Y-102935000D01*
X149528571Y-103077857D01*
X149528571Y-103863571D01*
X150242857Y-103863571D02*
X150242857Y-102863571D01*
X150242857Y-102363571D02*
X150171428Y-102435000D01*
X150242857Y-102506428D01*
X150314285Y-102435000D01*
X150242857Y-102363571D01*
X150242857Y-102506428D01*
X151600000Y-103792142D02*
X151457142Y-103863571D01*
X151171428Y-103863571D01*
X151028571Y-103792142D01*
X150957142Y-103720714D01*
X150885714Y-103577857D01*
X150885714Y-103149285D01*
X150957142Y-103006428D01*
X151028571Y-102935000D01*
X151171428Y-102863571D01*
X151457142Y-102863571D01*
X151600000Y-102935000D01*
X152457142Y-103863571D02*
X152314285Y-103792142D01*
X152242857Y-103720714D01*
X152171428Y-103577857D01*
X152171428Y-103149285D01*
X152242857Y-103006428D01*
X152314285Y-102935000D01*
X152457142Y-102863571D01*
X152671428Y-102863571D01*
X152814285Y-102935000D01*
X152885714Y-103006428D01*
X152957142Y-103149285D01*
X152957142Y-103577857D01*
X152885714Y-103720714D01*
X152814285Y-103792142D01*
X152671428Y-103863571D01*
X152457142Y-103863571D01*
X153528571Y-102506428D02*
X153600000Y-102435000D01*
X153742857Y-102363571D01*
X154100000Y-102363571D01*
X154242857Y-102435000D01*
X154314285Y-102506428D01*
X154385714Y-102649285D01*
X154385714Y-102792142D01*
X154314285Y-103006428D01*
X153457142Y-103863571D01*
X154385714Y-103863571D01*
X156028571Y-102863571D02*
X156385714Y-103863571D01*
X156742857Y-102863571D01*
X157600000Y-102363571D02*
X157742857Y-102363571D01*
X157885714Y-102435000D01*
X157957142Y-102506428D01*
X158028571Y-102649285D01*
X158100000Y-102935000D01*
X158100000Y-103292142D01*
X158028571Y-103577857D01*
X157957142Y-103720714D01*
X157885714Y-103792142D01*
X157742857Y-103863571D01*
X157600000Y-103863571D01*
X157457142Y-103792142D01*
X157385714Y-103720714D01*
X157314285Y-103577857D01*
X157242857Y-103292142D01*
X157242857Y-102935000D01*
X157314285Y-102649285D01*
X157385714Y-102506428D01*
X157457142Y-102435000D01*
X157600000Y-102363571D01*
X144814285Y-104921428D02*
X144885714Y-104850000D01*
X145028571Y-104778571D01*
X145385714Y-104778571D01*
X145528571Y-104850000D01*
X145600000Y-104921428D01*
X145671428Y-105064285D01*
X145671428Y-105207142D01*
X145600000Y-105421428D01*
X144742857Y-106278571D01*
X145671428Y-106278571D01*
X146600000Y-104778571D02*
X146742857Y-104778571D01*
X146885714Y-104850000D01*
X146957142Y-104921428D01*
X147028571Y-105064285D01*
X147100000Y-105350000D01*
X147100000Y-105707142D01*
X147028571Y-105992857D01*
X146957142Y-106135714D01*
X146885714Y-106207142D01*
X146742857Y-106278571D01*
X146600000Y-106278571D01*
X146457142Y-106207142D01*
X146385714Y-106135714D01*
X146314285Y-105992857D01*
X146242857Y-105707142D01*
X146242857Y-105350000D01*
X146314285Y-105064285D01*
X146385714Y-104921428D01*
X146457142Y-104850000D01*
X146600000Y-104778571D01*
X147671428Y-104921428D02*
X147742857Y-104850000D01*
X147885714Y-104778571D01*
X148242857Y-104778571D01*
X148385714Y-104850000D01*
X148457142Y-104921428D01*
X148528571Y-105064285D01*
X148528571Y-105207142D01*
X148457142Y-105421428D01*
X147600000Y-106278571D01*
X148528571Y-106278571D01*
X149100000Y-104921428D02*
X149171428Y-104850000D01*
X149314285Y-104778571D01*
X149671428Y-104778571D01*
X149814285Y-104850000D01*
X149885714Y-104921428D01*
X149957142Y-105064285D01*
X149957142Y-105207142D01*
X149885714Y-105421428D01*
X149028571Y-106278571D01*
X149957142Y-106278571D01*
X150600000Y-105707142D02*
X151742857Y-105707142D01*
X152742857Y-104778571D02*
X152885714Y-104778571D01*
X153028571Y-104850000D01*
X153100000Y-104921428D01*
X153171428Y-105064285D01*
X153242857Y-105350000D01*
X153242857Y-105707142D01*
X153171428Y-105992857D01*
X153100000Y-106135714D01*
X153028571Y-106207142D01*
X152885714Y-106278571D01*
X152742857Y-106278571D01*
X152600000Y-106207142D01*
X152528571Y-106135714D01*
X152457142Y-105992857D01*
X152385714Y-105707142D01*
X152385714Y-105350000D01*
X152457142Y-105064285D01*
X152528571Y-104921428D01*
X152600000Y-104850000D01*
X152742857Y-104778571D01*
X154100000Y-105421428D02*
X153957142Y-105350000D01*
X153885714Y-105278571D01*
X153814285Y-105135714D01*
X153814285Y-105064285D01*
X153885714Y-104921428D01*
X153957142Y-104850000D01*
X154100000Y-104778571D01*
X154385714Y-104778571D01*
X154528571Y-104850000D01*
X154600000Y-104921428D01*
X154671428Y-105064285D01*
X154671428Y-105135714D01*
X154600000Y-105278571D01*
X154528571Y-105350000D01*
X154385714Y-105421428D01*
X154100000Y-105421428D01*
X153957142Y-105492857D01*
X153885714Y-105564285D01*
X153814285Y-105707142D01*
X153814285Y-105992857D01*
X153885714Y-106135714D01*
X153957142Y-106207142D01*
X154100000Y-106278571D01*
X154385714Y-106278571D01*
X154528571Y-106207142D01*
X154600000Y-106135714D01*
X154671428Y-105992857D01*
X154671428Y-105707142D01*
X154600000Y-105564285D01*
X154528571Y-105492857D01*
X154385714Y-105421428D01*
X155314285Y-105707142D02*
X156457142Y-105707142D01*
X157957142Y-106278571D02*
X157100000Y-106278571D01*
X157528571Y-106278571D02*
X157528571Y-104778571D01*
X157385714Y-104992857D01*
X157242857Y-105135714D01*
X157100000Y-105207142D01*
X158814285Y-105421428D02*
X158671428Y-105350000D01*
X158600000Y-105278571D01*
X158528571Y-105135714D01*
X158528571Y-105064285D01*
X158600000Y-104921428D01*
X158671428Y-104850000D01*
X158814285Y-104778571D01*
X159100000Y-104778571D01*
X159242857Y-104850000D01*
X159314285Y-104921428D01*
X159385714Y-105064285D01*
X159385714Y-105135714D01*
X159314285Y-105278571D01*
X159242857Y-105350000D01*
X159100000Y-105421428D01*
X158814285Y-105421428D01*
X158671428Y-105492857D01*
X158600000Y-105564285D01*
X158528571Y-105707142D01*
X158528571Y-105992857D01*
X158600000Y-106135714D01*
X158671428Y-106207142D01*
X158814285Y-106278571D01*
X159100000Y-106278571D01*
X159242857Y-106207142D01*
X159314285Y-106135714D01*
X159385714Y-105992857D01*
X159385714Y-105707142D01*
X159314285Y-105564285D01*
X159242857Y-105492857D01*
X159100000Y-105421428D01*
X148492857Y-108693571D02*
X148492857Y-107907857D01*
X148421428Y-107765000D01*
X148278571Y-107693571D01*
X147992857Y-107693571D01*
X147850000Y-107765000D01*
X148492857Y-108622142D02*
X148350000Y-108693571D01*
X147992857Y-108693571D01*
X147850000Y-108622142D01*
X147778571Y-108479285D01*
X147778571Y-108336428D01*
X147850000Y-108193571D01*
X147992857Y-108122142D01*
X148350000Y-108122142D01*
X148492857Y-108050714D01*
X149207142Y-108693571D02*
X149207142Y-107693571D01*
X149207142Y-107979285D02*
X149278571Y-107836428D01*
X149350000Y-107765000D01*
X149492857Y-107693571D01*
X149635714Y-107693571D01*
X149921428Y-107693571D02*
X150492857Y-107693571D01*
X150135714Y-107193571D02*
X150135714Y-108479285D01*
X150207142Y-108622142D01*
X150350000Y-108693571D01*
X150492857Y-108693571D01*
X151564285Y-108622142D02*
X151421428Y-108693571D01*
X151135714Y-108693571D01*
X150992857Y-108622142D01*
X150921428Y-108479285D01*
X150921428Y-107907857D01*
X150992857Y-107765000D01*
X151135714Y-107693571D01*
X151421428Y-107693571D01*
X151564285Y-107765000D01*
X151635714Y-107907857D01*
X151635714Y-108050714D01*
X150921428Y-108193571D01*
X152278571Y-108693571D02*
X152278571Y-107693571D01*
X152278571Y-107836428D02*
X152350000Y-107765000D01*
X152492857Y-107693571D01*
X152707142Y-107693571D01*
X152850000Y-107765000D01*
X152921428Y-107907857D01*
X152921428Y-108693571D01*
X152921428Y-107907857D02*
X152992857Y-107765000D01*
X153135714Y-107693571D01*
X153350000Y-107693571D01*
X153492857Y-107765000D01*
X153564285Y-107907857D01*
X153564285Y-108693571D01*
X154278571Y-108693571D02*
X154278571Y-107693571D01*
X154278571Y-107193571D02*
X154207142Y-107265000D01*
X154278571Y-107336428D01*
X154350000Y-107265000D01*
X154278571Y-107193571D01*
X154278571Y-107336428D01*
X154921428Y-108622142D02*
X155064285Y-108693571D01*
X155350000Y-108693571D01*
X155492857Y-108622142D01*
X155564285Y-108479285D01*
X155564285Y-108407857D01*
X155492857Y-108265000D01*
X155350000Y-108193571D01*
X155135714Y-108193571D01*
X154992857Y-108122142D01*
X154921428Y-107979285D01*
X154921428Y-107907857D01*
X154992857Y-107765000D01*
X155135714Y-107693571D01*
X155350000Y-107693571D01*
X155492857Y-107765000D01*
X155992857Y-107693571D02*
X156564285Y-107693571D01*
X156207142Y-107193571D02*
X156207142Y-108479285D01*
X156278571Y-108622142D01*
X156421428Y-108693571D01*
X156564285Y-108693571D01*
D11*
%TO.C,Q1*%
X134404761Y-96747619D02*
X134309523Y-96700000D01*
X134214285Y-96604761D01*
X134071428Y-96461904D01*
X133976190Y-96414285D01*
X133880952Y-96414285D01*
X133928571Y-96652380D02*
X133833333Y-96604761D01*
X133738095Y-96509523D01*
X133690476Y-96319047D01*
X133690476Y-95985714D01*
X133738095Y-95795238D01*
X133833333Y-95700000D01*
X133928571Y-95652380D01*
X134119047Y-95652380D01*
X134214285Y-95700000D01*
X134309523Y-95795238D01*
X134357142Y-95985714D01*
X134357142Y-96319047D01*
X134309523Y-96509523D01*
X134214285Y-96604761D01*
X134119047Y-96652380D01*
X133928571Y-96652380D01*
X135309523Y-96652380D02*
X134738095Y-96652380D01*
X135023809Y-96652380D02*
X135023809Y-95652380D01*
X134928571Y-95795238D01*
X134833333Y-95890476D01*
X134738095Y-95938095D01*
%TO.C,C8*%
X163827142Y-89916666D02*
X163874761Y-89964285D01*
X163922380Y-90107142D01*
X163922380Y-90202380D01*
X163874761Y-90345238D01*
X163779523Y-90440476D01*
X163684285Y-90488095D01*
X163493809Y-90535714D01*
X163350952Y-90535714D01*
X163160476Y-90488095D01*
X163065238Y-90440476D01*
X162970000Y-90345238D01*
X162922380Y-90202380D01*
X162922380Y-90107142D01*
X162970000Y-89964285D01*
X163017619Y-89916666D01*
X163350952Y-89345238D02*
X163303333Y-89440476D01*
X163255714Y-89488095D01*
X163160476Y-89535714D01*
X163112857Y-89535714D01*
X163017619Y-89488095D01*
X162970000Y-89440476D01*
X162922380Y-89345238D01*
X162922380Y-89154761D01*
X162970000Y-89059523D01*
X163017619Y-89011904D01*
X163112857Y-88964285D01*
X163160476Y-88964285D01*
X163255714Y-89011904D01*
X163303333Y-89059523D01*
X163350952Y-89154761D01*
X163350952Y-89345238D01*
X163398571Y-89440476D01*
X163446190Y-89488095D01*
X163541428Y-89535714D01*
X163731904Y-89535714D01*
X163827142Y-89488095D01*
X163874761Y-89440476D01*
X163922380Y-89345238D01*
X163922380Y-89154761D01*
X163874761Y-89059523D01*
X163827142Y-89011904D01*
X163731904Y-88964285D01*
X163541428Y-88964285D01*
X163446190Y-89011904D01*
X163398571Y-89059523D01*
X163350952Y-89154761D01*
%TO.C,Q3*%
X172747619Y-89095238D02*
X172700000Y-89190476D01*
X172604761Y-89285714D01*
X172461904Y-89428571D01*
X172414285Y-89523809D01*
X172414285Y-89619047D01*
X172652380Y-89571428D02*
X172604761Y-89666666D01*
X172509523Y-89761904D01*
X172319047Y-89809523D01*
X171985714Y-89809523D01*
X171795238Y-89761904D01*
X171700000Y-89666666D01*
X171652380Y-89571428D01*
X171652380Y-89380952D01*
X171700000Y-89285714D01*
X171795238Y-89190476D01*
X171985714Y-89142857D01*
X172319047Y-89142857D01*
X172509523Y-89190476D01*
X172604761Y-89285714D01*
X172652380Y-89380952D01*
X172652380Y-89571428D01*
X171652380Y-88809523D02*
X171652380Y-88190476D01*
X172033333Y-88523809D01*
X172033333Y-88380952D01*
X172080952Y-88285714D01*
X172128571Y-88238095D01*
X172223809Y-88190476D01*
X172461904Y-88190476D01*
X172557142Y-88238095D01*
X172604761Y-88285714D01*
X172652380Y-88380952D01*
X172652380Y-88666666D01*
X172604761Y-88761904D01*
X172557142Y-88809523D01*
%TO.C,R10*%
X166102380Y-95492857D02*
X165626190Y-95826190D01*
X166102380Y-96064285D02*
X165102380Y-96064285D01*
X165102380Y-95683333D01*
X165150000Y-95588095D01*
X165197619Y-95540476D01*
X165292857Y-95492857D01*
X165435714Y-95492857D01*
X165530952Y-95540476D01*
X165578571Y-95588095D01*
X165626190Y-95683333D01*
X165626190Y-96064285D01*
X166102380Y-94540476D02*
X166102380Y-95111904D01*
X166102380Y-94826190D02*
X165102380Y-94826190D01*
X165245238Y-94921428D01*
X165340476Y-95016666D01*
X165388095Y-95111904D01*
X165102380Y-93921428D02*
X165102380Y-93826190D01*
X165150000Y-93730952D01*
X165197619Y-93683333D01*
X165292857Y-93635714D01*
X165483333Y-93588095D01*
X165721428Y-93588095D01*
X165911904Y-93635714D01*
X166007142Y-93683333D01*
X166054761Y-93730952D01*
X166102380Y-93826190D01*
X166102380Y-93921428D01*
X166054761Y-94016666D01*
X166007142Y-94064285D01*
X165911904Y-94111904D01*
X165721428Y-94159523D01*
X165483333Y-94159523D01*
X165292857Y-94111904D01*
X165197619Y-94064285D01*
X165150000Y-94016666D01*
X165102380Y-93921428D01*
%TO.C,R9*%
X164802380Y-95466666D02*
X164326190Y-95800000D01*
X164802380Y-96038095D02*
X163802380Y-96038095D01*
X163802380Y-95657142D01*
X163850000Y-95561904D01*
X163897619Y-95514285D01*
X163992857Y-95466666D01*
X164135714Y-95466666D01*
X164230952Y-95514285D01*
X164278571Y-95561904D01*
X164326190Y-95657142D01*
X164326190Y-96038095D01*
X164802380Y-94990476D02*
X164802380Y-94800000D01*
X164754761Y-94704761D01*
X164707142Y-94657142D01*
X164564285Y-94561904D01*
X164373809Y-94514285D01*
X163992857Y-94514285D01*
X163897619Y-94561904D01*
X163850000Y-94609523D01*
X163802380Y-94704761D01*
X163802380Y-94895238D01*
X163850000Y-94990476D01*
X163897619Y-95038095D01*
X163992857Y-95085714D01*
X164230952Y-95085714D01*
X164326190Y-95038095D01*
X164373809Y-94990476D01*
X164421428Y-94895238D01*
X164421428Y-94704761D01*
X164373809Y-94609523D01*
X164326190Y-94561904D01*
X164230952Y-94514285D01*
%TO.C,U1*%
X140642380Y-100141904D02*
X141451904Y-100141904D01*
X141547142Y-100094285D01*
X141594761Y-100046666D01*
X141642380Y-99951428D01*
X141642380Y-99760952D01*
X141594761Y-99665714D01*
X141547142Y-99618095D01*
X141451904Y-99570476D01*
X140642380Y-99570476D01*
X141642380Y-98570476D02*
X141642380Y-99141904D01*
X141642380Y-98856190D02*
X140642380Y-98856190D01*
X140785238Y-98951428D01*
X140880476Y-99046666D01*
X140928095Y-99141904D01*
%TO.C,U3*%
X134047619Y-87388095D02*
X133238095Y-87388095D01*
X133142857Y-87435714D01*
X133095238Y-87483333D01*
X133047619Y-87578571D01*
X133047619Y-87769047D01*
X133095238Y-87864285D01*
X133142857Y-87911904D01*
X133238095Y-87959523D01*
X134047619Y-87959523D01*
X134047619Y-88340476D02*
X134047619Y-88959523D01*
X133666666Y-88626190D01*
X133666666Y-88769047D01*
X133619047Y-88864285D01*
X133571428Y-88911904D01*
X133476190Y-88959523D01*
X133238095Y-88959523D01*
X133142857Y-88911904D01*
X133095238Y-88864285D01*
X133047619Y-88769047D01*
X133047619Y-88483333D01*
X133095238Y-88388095D01*
X133142857Y-88340476D01*
%TO.C,C12*%
X167407142Y-99857142D02*
X167359523Y-99904761D01*
X167216666Y-99952380D01*
X167121428Y-99952380D01*
X166978571Y-99904761D01*
X166883333Y-99809523D01*
X166835714Y-99714285D01*
X166788095Y-99523809D01*
X166788095Y-99380952D01*
X166835714Y-99190476D01*
X166883333Y-99095238D01*
X166978571Y-99000000D01*
X167121428Y-98952380D01*
X167216666Y-98952380D01*
X167359523Y-99000000D01*
X167407142Y-99047619D01*
X168359523Y-99952380D02*
X167788095Y-99952380D01*
X168073809Y-99952380D02*
X168073809Y-98952380D01*
X167978571Y-99095238D01*
X167883333Y-99190476D01*
X167788095Y-99238095D01*
X168740476Y-99047619D02*
X168788095Y-99000000D01*
X168883333Y-98952380D01*
X169121428Y-98952380D01*
X169216666Y-99000000D01*
X169264285Y-99047619D01*
X169311904Y-99142857D01*
X169311904Y-99238095D01*
X169264285Y-99380952D01*
X168692857Y-99952380D01*
X169311904Y-99952380D01*
%TO.C,R4*%
X140552380Y-90441666D02*
X140076190Y-90775000D01*
X140552380Y-91013095D02*
X139552380Y-91013095D01*
X139552380Y-90632142D01*
X139600000Y-90536904D01*
X139647619Y-90489285D01*
X139742857Y-90441666D01*
X139885714Y-90441666D01*
X139980952Y-90489285D01*
X140028571Y-90536904D01*
X140076190Y-90632142D01*
X140076190Y-91013095D01*
X139885714Y-89584523D02*
X140552380Y-89584523D01*
X139504761Y-89822619D02*
X140219047Y-90060714D01*
X140219047Y-89441666D01*
%TO.C,C1*%
X127933333Y-108727142D02*
X127885714Y-108774761D01*
X127742857Y-108822380D01*
X127647619Y-108822380D01*
X127504761Y-108774761D01*
X127409523Y-108679523D01*
X127361904Y-108584285D01*
X127314285Y-108393809D01*
X127314285Y-108250952D01*
X127361904Y-108060476D01*
X127409523Y-107965238D01*
X127504761Y-107870000D01*
X127647619Y-107822380D01*
X127742857Y-107822380D01*
X127885714Y-107870000D01*
X127933333Y-107917619D01*
X128885714Y-108822380D02*
X128314285Y-108822380D01*
X128600000Y-108822380D02*
X128600000Y-107822380D01*
X128504761Y-107965238D01*
X128409523Y-108060476D01*
X128314285Y-108108095D01*
%TO.C,D1*%
X177611904Y-85902380D02*
X177611904Y-84902380D01*
X177850000Y-84902380D01*
X177992857Y-84950000D01*
X178088095Y-85045238D01*
X178135714Y-85140476D01*
X178183333Y-85330952D01*
X178183333Y-85473809D01*
X178135714Y-85664285D01*
X178088095Y-85759523D01*
X177992857Y-85854761D01*
X177850000Y-85902380D01*
X177611904Y-85902380D01*
X179135714Y-85902380D02*
X178564285Y-85902380D01*
X178850000Y-85902380D02*
X178850000Y-84902380D01*
X178754761Y-85045238D01*
X178659523Y-85140476D01*
X178564285Y-85188095D01*
%TO.C,L1*%
X134083333Y-81902380D02*
X133607142Y-81902380D01*
X133607142Y-80902380D01*
X134940476Y-81902380D02*
X134369047Y-81902380D01*
X134654761Y-81902380D02*
X134654761Y-80902380D01*
X134559523Y-81045238D01*
X134464285Y-81140476D01*
X134369047Y-81188095D01*
%TO.C,C15*%
X167357142Y-104507142D02*
X167309523Y-104554761D01*
X167166666Y-104602380D01*
X167071428Y-104602380D01*
X166928571Y-104554761D01*
X166833333Y-104459523D01*
X166785714Y-104364285D01*
X166738095Y-104173809D01*
X166738095Y-104030952D01*
X166785714Y-103840476D01*
X166833333Y-103745238D01*
X166928571Y-103650000D01*
X167071428Y-103602380D01*
X167166666Y-103602380D01*
X167309523Y-103650000D01*
X167357142Y-103697619D01*
X168309523Y-104602380D02*
X167738095Y-104602380D01*
X168023809Y-104602380D02*
X168023809Y-103602380D01*
X167928571Y-103745238D01*
X167833333Y-103840476D01*
X167738095Y-103888095D01*
X169214285Y-103602380D02*
X168738095Y-103602380D01*
X168690476Y-104078571D01*
X168738095Y-104030952D01*
X168833333Y-103983333D01*
X169071428Y-103983333D01*
X169166666Y-104030952D01*
X169214285Y-104078571D01*
X169261904Y-104173809D01*
X169261904Y-104411904D01*
X169214285Y-104507142D01*
X169166666Y-104554761D01*
X169071428Y-104602380D01*
X168833333Y-104602380D01*
X168738095Y-104554761D01*
X168690476Y-104507142D01*
%TO.C,D3*%
X165452380Y-93138095D02*
X164452380Y-93138095D01*
X164452380Y-92900000D01*
X164500000Y-92757142D01*
X164595238Y-92661904D01*
X164690476Y-92614285D01*
X164880952Y-92566666D01*
X165023809Y-92566666D01*
X165214285Y-92614285D01*
X165309523Y-92661904D01*
X165404761Y-92757142D01*
X165452380Y-92900000D01*
X165452380Y-93138095D01*
X164452380Y-92233333D02*
X164452380Y-91614285D01*
X164833333Y-91947619D01*
X164833333Y-91804761D01*
X164880952Y-91709523D01*
X164928571Y-91661904D01*
X165023809Y-91614285D01*
X165261904Y-91614285D01*
X165357142Y-91661904D01*
X165404761Y-91709523D01*
X165452380Y-91804761D01*
X165452380Y-92090476D01*
X165404761Y-92185714D01*
X165357142Y-92233333D01*
%TO.C,C10*%
X167257142Y-95492857D02*
X167304761Y-95540476D01*
X167352380Y-95683333D01*
X167352380Y-95778571D01*
X167304761Y-95921428D01*
X167209523Y-96016666D01*
X167114285Y-96064285D01*
X166923809Y-96111904D01*
X166780952Y-96111904D01*
X166590476Y-96064285D01*
X166495238Y-96016666D01*
X166400000Y-95921428D01*
X166352380Y-95778571D01*
X166352380Y-95683333D01*
X166400000Y-95540476D01*
X166447619Y-95492857D01*
X167352380Y-94540476D02*
X167352380Y-95111904D01*
X167352380Y-94826190D02*
X166352380Y-94826190D01*
X166495238Y-94921428D01*
X166590476Y-95016666D01*
X166638095Y-95111904D01*
X166352380Y-93921428D02*
X166352380Y-93826190D01*
X166400000Y-93730952D01*
X166447619Y-93683333D01*
X166542857Y-93635714D01*
X166733333Y-93588095D01*
X166971428Y-93588095D01*
X167161904Y-93635714D01*
X167257142Y-93683333D01*
X167304761Y-93730952D01*
X167352380Y-93826190D01*
X167352380Y-93921428D01*
X167304761Y-94016666D01*
X167257142Y-94064285D01*
X167161904Y-94111904D01*
X166971428Y-94159523D01*
X166733333Y-94159523D01*
X166542857Y-94111904D01*
X166447619Y-94064285D01*
X166400000Y-94016666D01*
X166352380Y-93921428D01*
%TO.C,C6*%
X163657142Y-83266666D02*
X163704761Y-83314285D01*
X163752380Y-83457142D01*
X163752380Y-83552380D01*
X163704761Y-83695238D01*
X163609523Y-83790476D01*
X163514285Y-83838095D01*
X163323809Y-83885714D01*
X163180952Y-83885714D01*
X162990476Y-83838095D01*
X162895238Y-83790476D01*
X162800000Y-83695238D01*
X162752380Y-83552380D01*
X162752380Y-83457142D01*
X162800000Y-83314285D01*
X162847619Y-83266666D01*
X162752380Y-82409523D02*
X162752380Y-82600000D01*
X162800000Y-82695238D01*
X162847619Y-82742857D01*
X162990476Y-82838095D01*
X163180952Y-82885714D01*
X163561904Y-82885714D01*
X163657142Y-82838095D01*
X163704761Y-82790476D01*
X163752380Y-82695238D01*
X163752380Y-82504761D01*
X163704761Y-82409523D01*
X163657142Y-82361904D01*
X163561904Y-82314285D01*
X163323809Y-82314285D01*
X163228571Y-82361904D01*
X163180952Y-82409523D01*
X163133333Y-82504761D01*
X163133333Y-82695238D01*
X163180952Y-82790476D01*
X163228571Y-82838095D01*
X163323809Y-82885714D01*
%TO.C,C13*%
X167357142Y-101407142D02*
X167309523Y-101454761D01*
X167166666Y-101502380D01*
X167071428Y-101502380D01*
X166928571Y-101454761D01*
X166833333Y-101359523D01*
X166785714Y-101264285D01*
X166738095Y-101073809D01*
X166738095Y-100930952D01*
X166785714Y-100740476D01*
X166833333Y-100645238D01*
X166928571Y-100550000D01*
X167071428Y-100502380D01*
X167166666Y-100502380D01*
X167309523Y-100550000D01*
X167357142Y-100597619D01*
X168309523Y-101502380D02*
X167738095Y-101502380D01*
X168023809Y-101502380D02*
X168023809Y-100502380D01*
X167928571Y-100645238D01*
X167833333Y-100740476D01*
X167738095Y-100788095D01*
X168642857Y-100502380D02*
X169261904Y-100502380D01*
X168928571Y-100883333D01*
X169071428Y-100883333D01*
X169166666Y-100930952D01*
X169214285Y-100978571D01*
X169261904Y-101073809D01*
X169261904Y-101311904D01*
X169214285Y-101407142D01*
X169166666Y-101454761D01*
X169071428Y-101502380D01*
X168785714Y-101502380D01*
X168690476Y-101454761D01*
X168642857Y-101407142D01*
%TO.C,D2*%
X177561904Y-83552380D02*
X177561904Y-82552380D01*
X177800000Y-82552380D01*
X177942857Y-82600000D01*
X178038095Y-82695238D01*
X178085714Y-82790476D01*
X178133333Y-82980952D01*
X178133333Y-83123809D01*
X178085714Y-83314285D01*
X178038095Y-83409523D01*
X177942857Y-83504761D01*
X177800000Y-83552380D01*
X177561904Y-83552380D01*
X178514285Y-82647619D02*
X178561904Y-82600000D01*
X178657142Y-82552380D01*
X178895238Y-82552380D01*
X178990476Y-82600000D01*
X179038095Y-82647619D01*
X179085714Y-82742857D01*
X179085714Y-82838095D01*
X179038095Y-82980952D01*
X178466666Y-83552380D01*
X179085714Y-83552380D01*
%TO.C,C7*%
X171733333Y-82157142D02*
X171685714Y-82204761D01*
X171542857Y-82252380D01*
X171447619Y-82252380D01*
X171304761Y-82204761D01*
X171209523Y-82109523D01*
X171161904Y-82014285D01*
X171114285Y-81823809D01*
X171114285Y-81680952D01*
X171161904Y-81490476D01*
X171209523Y-81395238D01*
X171304761Y-81300000D01*
X171447619Y-81252380D01*
X171542857Y-81252380D01*
X171685714Y-81300000D01*
X171733333Y-81347619D01*
X172066666Y-81252380D02*
X172733333Y-81252380D01*
X172304761Y-82252380D01*
%TO.C,Q2*%
X130504761Y-96747619D02*
X130409523Y-96700000D01*
X130314285Y-96604761D01*
X130171428Y-96461904D01*
X130076190Y-96414285D01*
X129980952Y-96414285D01*
X130028571Y-96652380D02*
X129933333Y-96604761D01*
X129838095Y-96509523D01*
X129790476Y-96319047D01*
X129790476Y-95985714D01*
X129838095Y-95795238D01*
X129933333Y-95700000D01*
X130028571Y-95652380D01*
X130219047Y-95652380D01*
X130314285Y-95700000D01*
X130409523Y-95795238D01*
X130457142Y-95985714D01*
X130457142Y-96319047D01*
X130409523Y-96509523D01*
X130314285Y-96604761D01*
X130219047Y-96652380D01*
X130028571Y-96652380D01*
X130838095Y-95747619D02*
X130885714Y-95700000D01*
X130980952Y-95652380D01*
X131219047Y-95652380D01*
X131314285Y-95700000D01*
X131361904Y-95747619D01*
X131409523Y-95842857D01*
X131409523Y-95938095D01*
X131361904Y-96080952D01*
X130790476Y-96652380D01*
X131409523Y-96652380D01*
%TO.C,J1*%
X134202380Y-116233333D02*
X134916666Y-116233333D01*
X135059523Y-116280952D01*
X135154761Y-116376190D01*
X135202380Y-116519047D01*
X135202380Y-116614285D01*
X135202380Y-115233333D02*
X135202380Y-115804761D01*
X135202380Y-115519047D02*
X134202380Y-115519047D01*
X134345238Y-115614285D01*
X134440476Y-115709523D01*
X134488095Y-115804761D01*
%TO.C,U5*%
X178002380Y-123861904D02*
X178811904Y-123861904D01*
X178907142Y-123814285D01*
X178954761Y-123766666D01*
X179002380Y-123671428D01*
X179002380Y-123480952D01*
X178954761Y-123385714D01*
X178907142Y-123338095D01*
X178811904Y-123290476D01*
X178002380Y-123290476D01*
X178002380Y-122338095D02*
X178002380Y-122814285D01*
X178478571Y-122861904D01*
X178430952Y-122814285D01*
X178383333Y-122719047D01*
X178383333Y-122480952D01*
X178430952Y-122385714D01*
X178478571Y-122338095D01*
X178573809Y-122290476D01*
X178811904Y-122290476D01*
X178907142Y-122338095D01*
X178954761Y-122385714D01*
X179002380Y-122480952D01*
X179002380Y-122719047D01*
X178954761Y-122814285D01*
X178907142Y-122861904D01*
%TO.C,R6*%
X139152380Y-98966666D02*
X138676190Y-99300000D01*
X139152380Y-99538095D02*
X138152380Y-99538095D01*
X138152380Y-99157142D01*
X138200000Y-99061904D01*
X138247619Y-99014285D01*
X138342857Y-98966666D01*
X138485714Y-98966666D01*
X138580952Y-99014285D01*
X138628571Y-99061904D01*
X138676190Y-99157142D01*
X138676190Y-99538095D01*
X138152380Y-98109523D02*
X138152380Y-98300000D01*
X138200000Y-98395238D01*
X138247619Y-98442857D01*
X138390476Y-98538095D01*
X138580952Y-98585714D01*
X138961904Y-98585714D01*
X139057142Y-98538095D01*
X139104761Y-98490476D01*
X139152380Y-98395238D01*
X139152380Y-98204761D01*
X139104761Y-98109523D01*
X139057142Y-98061904D01*
X138961904Y-98014285D01*
X138723809Y-98014285D01*
X138628571Y-98061904D01*
X138580952Y-98109523D01*
X138533333Y-98204761D01*
X138533333Y-98395238D01*
X138580952Y-98490476D01*
X138628571Y-98538095D01*
X138723809Y-98585714D01*
%TO.C,R3*%
X140482380Y-87416666D02*
X140006190Y-87750000D01*
X140482380Y-87988095D02*
X139482380Y-87988095D01*
X139482380Y-87607142D01*
X139530000Y-87511904D01*
X139577619Y-87464285D01*
X139672857Y-87416666D01*
X139815714Y-87416666D01*
X139910952Y-87464285D01*
X139958571Y-87511904D01*
X140006190Y-87607142D01*
X140006190Y-87988095D01*
X139482380Y-87083333D02*
X139482380Y-86464285D01*
X139863333Y-86797619D01*
X139863333Y-86654761D01*
X139910952Y-86559523D01*
X139958571Y-86511904D01*
X140053809Y-86464285D01*
X140291904Y-86464285D01*
X140387142Y-86511904D01*
X140434761Y-86559523D01*
X140482380Y-86654761D01*
X140482380Y-86940476D01*
X140434761Y-87035714D01*
X140387142Y-87083333D01*
%TO.C,C14*%
X167307142Y-102907142D02*
X167259523Y-102954761D01*
X167116666Y-103002380D01*
X167021428Y-103002380D01*
X166878571Y-102954761D01*
X166783333Y-102859523D01*
X166735714Y-102764285D01*
X166688095Y-102573809D01*
X166688095Y-102430952D01*
X166735714Y-102240476D01*
X166783333Y-102145238D01*
X166878571Y-102050000D01*
X167021428Y-102002380D01*
X167116666Y-102002380D01*
X167259523Y-102050000D01*
X167307142Y-102097619D01*
X168259523Y-103002380D02*
X167688095Y-103002380D01*
X167973809Y-103002380D02*
X167973809Y-102002380D01*
X167878571Y-102145238D01*
X167783333Y-102240476D01*
X167688095Y-102288095D01*
X169116666Y-102335714D02*
X169116666Y-103002380D01*
X168878571Y-101954761D02*
X168640476Y-102669047D01*
X169259523Y-102669047D01*
%TO.C,C4*%
X137033333Y-81777142D02*
X136985714Y-81824761D01*
X136842857Y-81872380D01*
X136747619Y-81872380D01*
X136604761Y-81824761D01*
X136509523Y-81729523D01*
X136461904Y-81634285D01*
X136414285Y-81443809D01*
X136414285Y-81300952D01*
X136461904Y-81110476D01*
X136509523Y-81015238D01*
X136604761Y-80920000D01*
X136747619Y-80872380D01*
X136842857Y-80872380D01*
X136985714Y-80920000D01*
X137033333Y-80967619D01*
X137890476Y-81205714D02*
X137890476Y-81872380D01*
X137652380Y-80824761D02*
X137414285Y-81539047D01*
X138033333Y-81539047D01*
%TO.C,R2*%
X133383333Y-110252380D02*
X133050000Y-109776190D01*
X132811904Y-110252380D02*
X132811904Y-109252380D01*
X133192857Y-109252380D01*
X133288095Y-109300000D01*
X133335714Y-109347619D01*
X133383333Y-109442857D01*
X133383333Y-109585714D01*
X133335714Y-109680952D01*
X133288095Y-109728571D01*
X133192857Y-109776190D01*
X132811904Y-109776190D01*
X133764285Y-109347619D02*
X133811904Y-109300000D01*
X133907142Y-109252380D01*
X134145238Y-109252380D01*
X134240476Y-109300000D01*
X134288095Y-109347619D01*
X134335714Y-109442857D01*
X134335714Y-109538095D01*
X134288095Y-109680952D01*
X133716666Y-110252380D01*
X134335714Y-110252380D01*
%TO.C,J2*%
X175252380Y-96583333D02*
X175966666Y-96583333D01*
X176109523Y-96630952D01*
X176204761Y-96726190D01*
X176252380Y-96869047D01*
X176252380Y-96964285D01*
X175347619Y-96154761D02*
X175300000Y-96107142D01*
X175252380Y-96011904D01*
X175252380Y-95773809D01*
X175300000Y-95678571D01*
X175347619Y-95630952D01*
X175442857Y-95583333D01*
X175538095Y-95583333D01*
X175680952Y-95630952D01*
X176252380Y-96202380D01*
X176252380Y-95583333D01*
%TO.C,C2*%
X135633333Y-92957142D02*
X135585714Y-93004761D01*
X135442857Y-93052380D01*
X135347619Y-93052380D01*
X135204761Y-93004761D01*
X135109523Y-92909523D01*
X135061904Y-92814285D01*
X135014285Y-92623809D01*
X135014285Y-92480952D01*
X135061904Y-92290476D01*
X135109523Y-92195238D01*
X135204761Y-92100000D01*
X135347619Y-92052380D01*
X135442857Y-92052380D01*
X135585714Y-92100000D01*
X135633333Y-92147619D01*
X136014285Y-92147619D02*
X136061904Y-92100000D01*
X136157142Y-92052380D01*
X136395238Y-92052380D01*
X136490476Y-92100000D01*
X136538095Y-92147619D01*
X136585714Y-92242857D01*
X136585714Y-92338095D01*
X136538095Y-92480952D01*
X135966666Y-93052380D01*
X136585714Y-93052380D01*
%TO.C,R5*%
X126822380Y-98966666D02*
X126346190Y-99300000D01*
X126822380Y-99538095D02*
X125822380Y-99538095D01*
X125822380Y-99157142D01*
X125870000Y-99061904D01*
X125917619Y-99014285D01*
X126012857Y-98966666D01*
X126155714Y-98966666D01*
X126250952Y-99014285D01*
X126298571Y-99061904D01*
X126346190Y-99157142D01*
X126346190Y-99538095D01*
X125822380Y-98061904D02*
X125822380Y-98538095D01*
X126298571Y-98585714D01*
X126250952Y-98538095D01*
X126203333Y-98442857D01*
X126203333Y-98204761D01*
X126250952Y-98109523D01*
X126298571Y-98061904D01*
X126393809Y-98014285D01*
X126631904Y-98014285D01*
X126727142Y-98061904D01*
X126774761Y-98109523D01*
X126822380Y-98204761D01*
X126822380Y-98442857D01*
X126774761Y-98538095D01*
X126727142Y-98585714D01*
%TO.C,R1*%
X133383333Y-122452380D02*
X133050000Y-121976190D01*
X132811904Y-122452380D02*
X132811904Y-121452380D01*
X133192857Y-121452380D01*
X133288095Y-121500000D01*
X133335714Y-121547619D01*
X133383333Y-121642857D01*
X133383333Y-121785714D01*
X133335714Y-121880952D01*
X133288095Y-121928571D01*
X133192857Y-121976190D01*
X132811904Y-121976190D01*
X134335714Y-122452380D02*
X133764285Y-122452380D01*
X134050000Y-122452380D02*
X134050000Y-121452380D01*
X133954761Y-121595238D01*
X133859523Y-121690476D01*
X133764285Y-121738095D01*
%TO.C,C9*%
X168283333Y-96757142D02*
X168235714Y-96804761D01*
X168092857Y-96852380D01*
X167997619Y-96852380D01*
X167854761Y-96804761D01*
X167759523Y-96709523D01*
X167711904Y-96614285D01*
X167664285Y-96423809D01*
X167664285Y-96280952D01*
X167711904Y-96090476D01*
X167759523Y-95995238D01*
X167854761Y-95900000D01*
X167997619Y-95852380D01*
X168092857Y-95852380D01*
X168235714Y-95900000D01*
X168283333Y-95947619D01*
X168759523Y-96852380D02*
X168950000Y-96852380D01*
X169045238Y-96804761D01*
X169092857Y-96757142D01*
X169188095Y-96614285D01*
X169235714Y-96423809D01*
X169235714Y-96042857D01*
X169188095Y-95947619D01*
X169140476Y-95900000D01*
X169045238Y-95852380D01*
X168854761Y-95852380D01*
X168759523Y-95900000D01*
X168711904Y-95947619D01*
X168664285Y-96042857D01*
X168664285Y-96280952D01*
X168711904Y-96376190D01*
X168759523Y-96423809D01*
X168854761Y-96471428D01*
X169045238Y-96471428D01*
X169140476Y-96423809D01*
X169188095Y-96376190D01*
X169235714Y-96280952D01*
%TO.C,C11*%
X167407142Y-98357142D02*
X167359523Y-98404761D01*
X167216666Y-98452380D01*
X167121428Y-98452380D01*
X166978571Y-98404761D01*
X166883333Y-98309523D01*
X166835714Y-98214285D01*
X166788095Y-98023809D01*
X166788095Y-97880952D01*
X166835714Y-97690476D01*
X166883333Y-97595238D01*
X166978571Y-97500000D01*
X167121428Y-97452380D01*
X167216666Y-97452380D01*
X167359523Y-97500000D01*
X167407142Y-97547619D01*
X168359523Y-98452380D02*
X167788095Y-98452380D01*
X168073809Y-98452380D02*
X168073809Y-97452380D01*
X167978571Y-97595238D01*
X167883333Y-97690476D01*
X167788095Y-97738095D01*
X169311904Y-98452380D02*
X168740476Y-98452380D01*
X169026190Y-98452380D02*
X169026190Y-97452380D01*
X168930952Y-97595238D01*
X168835714Y-97690476D01*
X168740476Y-97738095D01*
%TO.C,U2*%
X136952380Y-105011904D02*
X137761904Y-105011904D01*
X137857142Y-104964285D01*
X137904761Y-104916666D01*
X137952380Y-104821428D01*
X137952380Y-104630952D01*
X137904761Y-104535714D01*
X137857142Y-104488095D01*
X137761904Y-104440476D01*
X136952380Y-104440476D01*
X137047619Y-104011904D02*
X137000000Y-103964285D01*
X136952380Y-103869047D01*
X136952380Y-103630952D01*
X137000000Y-103535714D01*
X137047619Y-103488095D01*
X137142857Y-103440476D01*
X137238095Y-103440476D01*
X137380952Y-103488095D01*
X137952380Y-104059523D01*
X137952380Y-103440476D01*
%TO.C,L2*%
X167333333Y-81352380D02*
X166857142Y-81352380D01*
X166857142Y-80352380D01*
X167619047Y-80447619D02*
X167666666Y-80400000D01*
X167761904Y-80352380D01*
X168000000Y-80352380D01*
X168095238Y-80400000D01*
X168142857Y-80447619D01*
X168190476Y-80542857D01*
X168190476Y-80638095D01*
X168142857Y-80780952D01*
X167571428Y-81352380D01*
X168190476Y-81352380D01*
D12*
%TO.C,Q1*%
X134500000Y-97040000D02*
X135150000Y-97040000D01*
X134500000Y-100160000D02*
X135150000Y-100160000D01*
X134500000Y-97040000D02*
X132825000Y-97040000D01*
X134500000Y-100160000D02*
X133850000Y-100160000D01*
%TO.C,TP7*%
X139400000Y-102600000D02*
G75*
G03*
X139400000Y-102600000I-700000J0D01*
G01*
%TO.C,C8*%
X165410000Y-89890580D02*
X165410000Y-89609420D01*
X164390000Y-89890580D02*
X164390000Y-89609420D01*
%TO.C,Q3*%
X168240000Y-90200000D02*
X168240000Y-89550000D01*
X171360000Y-90200000D02*
X171360000Y-89550000D01*
X168240000Y-90200000D02*
X168240000Y-91875000D01*
X171360000Y-90200000D02*
X171360000Y-90850000D01*
%TO.C,R10*%
X169877500Y-93462742D02*
X169877500Y-93937258D01*
X170922500Y-93462742D02*
X170922500Y-93937258D01*
%TO.C,TP1*%
X132100000Y-88450000D02*
G75*
G03*
X132100000Y-88450000I-1200000J0D01*
G01*
%TO.C,TP6*%
X143550000Y-102500000D02*
G75*
G03*
X143550000Y-102500000I-700000J0D01*
G01*
%TO.C,R9*%
X168327500Y-93462742D02*
X168327500Y-93937258D01*
X169372500Y-93462742D02*
X169372500Y-93937258D01*
%TO.C,U1*%
X160920000Y-75085000D02*
X160920000Y-81505000D01*
X142680000Y-75085000D02*
X160920000Y-75085000D01*
X142680000Y-75085000D02*
X142680000Y-81505000D01*
X160920000Y-100050000D02*
X160920000Y-100830000D01*
X160920000Y-100830000D02*
X159920000Y-100830000D01*
X142680000Y-81505000D02*
X142300000Y-81505000D01*
X142680000Y-100050000D02*
X142680000Y-100830000D01*
X142680000Y-100830000D02*
X143680000Y-100830000D01*
D13*
%TO.C,U3*%
X134500000Y-88900000D02*
X134500000Y-87400000D01*
X137500000Y-88900000D02*
X137500000Y-86900000D01*
D12*
%TO.C,C12*%
X171090580Y-98990000D02*
X170809420Y-98990000D01*
X171090580Y-100010000D02*
X170809420Y-100010000D01*
%TO.C,R4*%
X138077500Y-90037742D02*
X138077500Y-90512258D01*
X139122500Y-90037742D02*
X139122500Y-90512258D01*
%TO.C,TP5*%
X137700000Y-94300000D02*
G75*
G03*
X137700000Y-94300000I-700000J0D01*
G01*
%TO.C,C1*%
X127959420Y-110310000D02*
X128240580Y-110310000D01*
X127959420Y-109290000D02*
X128240580Y-109290000D01*
%TO.C,D1*%
X172700000Y-84500000D02*
X176600000Y-84500000D01*
X172700000Y-84500000D02*
X172700000Y-86500000D01*
X172700000Y-86500000D02*
X176600000Y-86500000D01*
%TO.C,L1*%
X133190000Y-84311252D02*
X133190000Y-83788748D01*
X135410000Y-84311252D02*
X135410000Y-83788748D01*
%TO.C,C15*%
X171090580Y-103640000D02*
X170809420Y-103640000D01*
X171090580Y-104660000D02*
X170809420Y-104660000D01*
%TO.C,D3*%
X165850000Y-92850000D02*
X165850000Y-88950000D01*
X165850000Y-92850000D02*
X167850000Y-92850000D01*
X167850000Y-92850000D02*
X167850000Y-88950000D01*
%TO.C,C10*%
X171490000Y-93559420D02*
X171490000Y-93840580D01*
X172510000Y-93559420D02*
X172510000Y-93840580D01*
%TO.C,C6*%
X162790000Y-85559420D02*
X162790000Y-85840580D01*
X163810000Y-85559420D02*
X163810000Y-85840580D01*
%TO.C,C13*%
X171090580Y-100540000D02*
X170809420Y-100540000D01*
X171090580Y-101560000D02*
X170809420Y-101560000D01*
%TO.C,D2*%
X177200000Y-84150000D02*
X173300000Y-84150000D01*
X177200000Y-84150000D02*
X177200000Y-82150000D01*
X177200000Y-82150000D02*
X173300000Y-82150000D01*
%TO.C,C7*%
X171290000Y-83759420D02*
X171290000Y-84040580D01*
X172310000Y-83759420D02*
X172310000Y-84040580D01*
%TO.C,Q2*%
X130600000Y-97040000D02*
X131250000Y-97040000D01*
X130600000Y-100160000D02*
X131250000Y-100160000D01*
X130600000Y-97040000D02*
X128925000Y-97040000D01*
X130600000Y-100160000D02*
X129950000Y-100160000D01*
%TO.C,J1*%
X130790000Y-120600000D02*
X128790000Y-120600000D01*
X126890000Y-111200000D02*
X124990000Y-111200000D01*
X130790000Y-111200000D02*
X128790000Y-111200000D01*
X126890000Y-120600000D02*
X124990000Y-120600000D01*
X124990000Y-111200000D02*
X124990000Y-120600000D01*
%TO.C,U5*%
X141750000Y-134650000D02*
X177050000Y-134650000D01*
X177050000Y-134650000D02*
X177050000Y-111350000D01*
X177050000Y-111350000D02*
X141750000Y-111350000D01*
X141750000Y-111350000D02*
X141750000Y-134650000D01*
%TO.C,R6*%
X136777500Y-99037258D02*
X136777500Y-98562742D01*
X137822500Y-99037258D02*
X137822500Y-98562742D01*
%TO.C,TP2*%
X132100000Y-91500000D02*
G75*
G03*
X132100000Y-91500000I-1200000J0D01*
G01*
%TO.C,R3*%
X138077500Y-87012742D02*
X138077500Y-87487258D01*
X139122500Y-87012742D02*
X139122500Y-87487258D01*
%TO.C,C14*%
X171090580Y-102090000D02*
X170809420Y-102090000D01*
X171090580Y-103110000D02*
X170809420Y-103110000D01*
%TO.C,C4*%
X137059420Y-83360000D02*
X137340580Y-83360000D01*
X137059420Y-82340000D02*
X137340580Y-82340000D01*
%TO.C,TP3*%
X132100000Y-85400000D02*
G75*
G03*
X132100000Y-85400000I-1200000J0D01*
G01*
%TO.C,R2*%
X130962742Y-110322500D02*
X131437258Y-110322500D01*
X130962742Y-109277500D02*
X131437258Y-109277500D01*
%TO.C,J2*%
X174705000Y-90050000D02*
X173605000Y-90050000D01*
X174705000Y-89250000D02*
X174705000Y-90050000D01*
%TO.C,C2*%
X135659420Y-91460000D02*
X135940580Y-91460000D01*
X135659420Y-90440000D02*
X135940580Y-90440000D01*
%TO.C,R5*%
X128322500Y-99037258D02*
X128322500Y-98562742D01*
X127277500Y-99037258D02*
X127277500Y-98562742D01*
%TO.C,R1*%
X130962742Y-122522500D02*
X131437258Y-122522500D01*
X130962742Y-121477500D02*
X131437258Y-121477500D01*
%TO.C,TP4*%
X140100000Y-97200000D02*
G75*
G03*
X140100000Y-97200000I-700000J0D01*
G01*
%TO.C,C9*%
X171090580Y-95890000D02*
X170809420Y-95890000D01*
X171090580Y-96910000D02*
X170809420Y-96910000D01*
%TO.C,C11*%
X171090580Y-97440000D02*
X170809420Y-97440000D01*
X171090580Y-98460000D02*
X170809420Y-98460000D01*
%TO.C,U2*%
X136660000Y-104100000D02*
X136660000Y-106050000D01*
X126540000Y-104100000D02*
X126540000Y-102150000D01*
X136660000Y-104100000D02*
X136660000Y-102150000D01*
X126540000Y-104100000D02*
X126540000Y-107550000D01*
%TO.C,L2*%
X164350000Y-88000000D02*
X170650000Y-88000000D01*
X164350000Y-81800000D02*
X170650000Y-81800000D01*
%TD*%
%LPC*%
D14*
%TO.C,Q1*%
X133562500Y-97650000D03*
X133562500Y-99550000D03*
X135437500Y-98600000D03*
%TD*%
D15*
%TO.C,TP7*%
X138700000Y-102600000D03*
%TD*%
D16*
%TO.C,C8*%
X164900000Y-90525000D03*
X164900000Y-88975000D03*
%TD*%
D17*
%TO.C,Q3*%
X168850000Y-91137500D03*
X170750000Y-91137500D03*
X169800000Y-89262500D03*
%TD*%
D18*
%TO.C,R10*%
X170400000Y-92875000D03*
X170400000Y-94525000D03*
%TD*%
D19*
%TO.C,H2*%
X181000000Y-79000000D03*
%TD*%
D20*
%TO.C,TP1*%
X130900000Y-88450000D03*
%TD*%
D15*
%TO.C,TP6*%
X142850000Y-102500000D03*
%TD*%
D18*
%TO.C,R9*%
X168850000Y-92875000D03*
X168850000Y-94525000D03*
%TD*%
D19*
%TO.C,H4*%
X181000000Y-131000000D03*
%TD*%
D21*
%TO.C,U1*%
X143300000Y-82695000D03*
X143300000Y-83965000D03*
X143300000Y-85235000D03*
X143300000Y-86505000D03*
X143300000Y-87775000D03*
X143300000Y-89045000D03*
X143300000Y-90315000D03*
X143300000Y-91585000D03*
X143300000Y-92855000D03*
X143300000Y-94125000D03*
X143300000Y-95395000D03*
X143300000Y-96665000D03*
X143300000Y-97935000D03*
X143300000Y-99205000D03*
D22*
X146085000Y-100205000D03*
X147355000Y-100205000D03*
X148625000Y-100205000D03*
X149895000Y-100205000D03*
X151165000Y-100205000D03*
X152435000Y-100205000D03*
X153705000Y-100205000D03*
X154975000Y-100205000D03*
X156245000Y-100205000D03*
X157515000Y-100205000D03*
D21*
X160300000Y-99205000D03*
X160300000Y-97935000D03*
X160300000Y-96665000D03*
X160300000Y-95395000D03*
X160300000Y-94125000D03*
X160300000Y-92855000D03*
X160300000Y-91585000D03*
X160300000Y-90315000D03*
X160300000Y-89045000D03*
X160300000Y-87775000D03*
X160300000Y-86505000D03*
X160300000Y-85235000D03*
X160300000Y-83965000D03*
X160300000Y-82695000D03*
D23*
X150800000Y-90195000D03*
%TD*%
D24*
%TO.C,U3*%
X136950000Y-86850000D03*
X136000000Y-86850000D03*
X135000000Y-86850000D03*
X135050000Y-89450000D03*
X136950000Y-89450000D03*
%TD*%
D25*
%TO.C,C12*%
X171725000Y-99500000D03*
X170175000Y-99500000D03*
%TD*%
D18*
%TO.C,R4*%
X138600000Y-89450000D03*
X138600000Y-91100000D03*
%TD*%
D15*
%TO.C,TP5*%
X137000000Y-94300000D03*
%TD*%
D26*
%TO.C,C1*%
X127325000Y-109800000D03*
X128875000Y-109800000D03*
%TD*%
D27*
%TO.C,D1*%
X173300000Y-85500000D03*
X176600000Y-85500000D03*
%TD*%
D28*
%TO.C,L1*%
X134300000Y-85125000D03*
X134300000Y-82975000D03*
%TD*%
D25*
%TO.C,C15*%
X171725000Y-104150000D03*
X170175000Y-104150000D03*
%TD*%
D29*
%TO.C,D3*%
X166850000Y-92250000D03*
X166850000Y-88950000D03*
%TD*%
D30*
%TO.C,C10*%
X172000000Y-92925000D03*
X172000000Y-94475000D03*
%TD*%
%TO.C,C6*%
X163300000Y-84925000D03*
X163300000Y-86475000D03*
%TD*%
D25*
%TO.C,C13*%
X171725000Y-101050000D03*
X170175000Y-101050000D03*
%TD*%
D27*
%TO.C,D2*%
X176600000Y-83150000D03*
X173300000Y-83150000D03*
%TD*%
D30*
%TO.C,C7*%
X171800000Y-83125000D03*
X171800000Y-84675000D03*
%TD*%
D14*
%TO.C,Q2*%
X129662500Y-97650000D03*
X129662500Y-99550000D03*
X131537500Y-98600000D03*
%TD*%
D31*
%TO.C,J1*%
X131490000Y-118790000D03*
X131490000Y-113010000D03*
D32*
X132935000Y-112650000D03*
X132935000Y-113450000D03*
D33*
X132935000Y-114650000D03*
X132935000Y-115650000D03*
X132935000Y-116150000D03*
X132935000Y-117150000D03*
D32*
X132935000Y-118350000D03*
X132935000Y-119150000D03*
X132935000Y-119150000D03*
X132935000Y-118350000D03*
D33*
X132935000Y-117650000D03*
X132935000Y-116650000D03*
X132935000Y-115150000D03*
X132935000Y-114150000D03*
D32*
X132935000Y-113450000D03*
X132935000Y-112650000D03*
D34*
X127840000Y-111580000D03*
D35*
X132020000Y-111580000D03*
X132020000Y-120220000D03*
D34*
X127840000Y-120220000D03*
%TD*%
D36*
%TO.C,U5*%
X143300000Y-133100000D03*
X145840000Y-133100000D03*
X148380000Y-133100000D03*
X150920000Y-133100000D03*
X153460000Y-133100000D03*
X156000000Y-133100000D03*
X158540000Y-133100000D03*
%TD*%
D37*
%TO.C,R6*%
X137300000Y-97975000D03*
X137300000Y-99625000D03*
%TD*%
D19*
%TO.C,H1*%
X129000000Y-79000000D03*
%TD*%
D20*
%TO.C,TP2*%
X130900000Y-91500000D03*
%TD*%
D18*
%TO.C,R3*%
X138600000Y-86425000D03*
X138600000Y-88075000D03*
%TD*%
D25*
%TO.C,C14*%
X171725000Y-102600000D03*
X170175000Y-102600000D03*
%TD*%
D26*
%TO.C,C4*%
X136425000Y-82850000D03*
X137975000Y-82850000D03*
%TD*%
D20*
%TO.C,TP3*%
X130900000Y-85400000D03*
%TD*%
D38*
%TO.C,R2*%
X130375000Y-109800000D03*
X132025000Y-109800000D03*
%TD*%
D39*
%TO.C,J2*%
X174205000Y-90500000D03*
X174205000Y-91000000D03*
X174205000Y-91500000D03*
X174205000Y-92000000D03*
X174205000Y-92500000D03*
X174205000Y-93000000D03*
X174205000Y-93500000D03*
X174205000Y-94000000D03*
X174205000Y-94500000D03*
X174205000Y-95000000D03*
X174205000Y-95500000D03*
X174205000Y-96000000D03*
X174205000Y-96500000D03*
X174205000Y-97000000D03*
X174205000Y-97500000D03*
X174205000Y-98000000D03*
X174205000Y-98500000D03*
X174205000Y-99000000D03*
X174205000Y-99500000D03*
X174205000Y-100000000D03*
X174205000Y-100500000D03*
X174205000Y-101000000D03*
X174205000Y-101500000D03*
X174205000Y-102000000D03*
D40*
X176555000Y-103650000D03*
X176555000Y-88850000D03*
%TD*%
D26*
%TO.C,C2*%
X135025000Y-90950000D03*
X136575000Y-90950000D03*
%TD*%
D19*
%TO.C,H3*%
X129000000Y-131000000D03*
%TD*%
D37*
%TO.C,R5*%
X127800000Y-99625000D03*
X127800000Y-97975000D03*
%TD*%
D38*
%TO.C,R1*%
X130375000Y-122000000D03*
X132025000Y-122000000D03*
%TD*%
D15*
%TO.C,TP4*%
X139400000Y-97200000D03*
%TD*%
D25*
%TO.C,C9*%
X171725000Y-96400000D03*
X170175000Y-96400000D03*
%TD*%
%TO.C,C11*%
X171725000Y-97950000D03*
X170175000Y-97950000D03*
%TD*%
D41*
%TO.C,U2*%
X127155000Y-106575000D03*
X128425000Y-106575000D03*
X129695000Y-106575000D03*
X130965000Y-106575000D03*
X132235000Y-106575000D03*
X133505000Y-106575000D03*
X134775000Y-106575000D03*
X136045000Y-106575000D03*
X136045000Y-101625000D03*
X134775000Y-101625000D03*
X133505000Y-101625000D03*
X132235000Y-101625000D03*
X130965000Y-101625000D03*
X129695000Y-101625000D03*
X128425000Y-101625000D03*
X127155000Y-101625000D03*
%TD*%
D42*
%TO.C,L2*%
X165150000Y-84900000D03*
X169850000Y-84900000D03*
%TD*%
M02*
