%TF.GenerationSoftware,KiCad,Pcbnew,6.0.6*%
%TF.CreationDate,2022-08-19T01:01:07+00:00*%
%TF.ProjectId,minico2,6d696e69-636f-4322-9e6b-696361645f70,rev?*%
%TF.SameCoordinates,Original*%
%TF.FileFunction,Copper,L2,Bot*%
%TF.FilePolarity,Positive*%
%FSLAX46Y46*%
G04 Gerber Fmt 4.6, Leading zero omitted, Abs format (unit mm)*
G04 Created by KiCad (PCBNEW 6.0.6) date 2022-08-19 01:01:07*
%MOMM*%
%LPD*%
G01*
G04 APERTURE LIST*
%TA.AperFunction,ComponentPad*%
%ADD10O,1.600000X1.000000*%
%TD*%
%TA.AperFunction,ComponentPad*%
%ADD11O,2.100000X1.000000*%
%TD*%
%TA.AperFunction,ComponentPad*%
%ADD12C,1.524000*%
%TD*%
%TA.AperFunction,ViaPad*%
%ADD13C,0.800000*%
%TD*%
%TA.AperFunction,Conductor*%
%ADD14C,0.250000*%
%TD*%
%TA.AperFunction,Conductor*%
%ADD15C,0.500000*%
%TD*%
G04 APERTURE END LIST*
D10*
%TO.P,J1,S1,SHIELD*%
%TO.N,GND*%
X127840000Y-111580000D03*
D11*
X132020000Y-111580000D03*
X132020000Y-120220000D03*
D10*
X127840000Y-120220000D03*
%TD*%
D12*
%TO.P,U5,1,VDD*%
%TO.N,+3V3*%
X143300000Y-133100000D03*
%TO.P,U5,2,GND*%
%TO.N,GND*%
X145840000Y-133100000D03*
%TO.P,U5,3,TX/SCL*%
%TO.N,/SCD30_SCL*%
X148380000Y-133100000D03*
%TO.P,U5,4,RX/SDA*%
%TO.N,/SCD30_SDA*%
X150920000Y-133100000D03*
%TO.P,U5,5,RDY*%
%TO.N,unconnected-(U5-Pad5)*%
X153460000Y-133100000D03*
%TO.P,U5,6,PWM*%
%TO.N,unconnected-(U5-Pad6)*%
X156000000Y-133100000D03*
%TO.P,U5,7,SEL*%
%TO.N,GND*%
X158540000Y-133100000D03*
%TD*%
D13*
%TO.N,GND*%
X135000000Y-109750000D03*
X156150000Y-82600000D03*
X156100000Y-85400000D03*
X140800000Y-126800000D03*
X143700000Y-120800000D03*
X179200000Y-89200000D03*
X139350000Y-117300000D03*
X147400000Y-82800000D03*
X135000000Y-88150000D03*
X132550000Y-86400000D03*
X176650000Y-92550000D03*
X167400000Y-84400000D03*
X150000000Y-85300000D03*
X137500000Y-91800000D03*
X177100000Y-91000000D03*
X163500000Y-88300000D03*
X175600000Y-98550000D03*
X179900000Y-103500000D03*
X178000000Y-99700000D03*
X136200000Y-84750000D03*
X178200000Y-83150000D03*
X137100000Y-84750000D03*
X137100000Y-85650000D03*
X147300000Y-85300000D03*
X137900000Y-107050000D03*
X136200000Y-85650000D03*
X150000000Y-82800000D03*
X143350000Y-114350000D03*
X132700000Y-89700000D03*
X163500000Y-90350000D03*
X139300000Y-82850000D03*
X173700000Y-89200000D03*
X168700000Y-102550000D03*
X144800000Y-127500000D03*
X168700000Y-104150000D03*
%TO.N,+5V*%
X133650000Y-90950000D03*
X134550000Y-113400000D03*
X127250000Y-103800000D03*
X134250000Y-118400000D03*
%TO.N,+3V3*%
X176524700Y-99470377D03*
X162100000Y-84900000D03*
X165800000Y-98700000D03*
X145200000Y-84000000D03*
%TO.N,/VGH*%
X168550000Y-100500000D03*
X175800000Y-100400000D03*
%TO.N,/GDR*%
X171950000Y-91000000D03*
X169800000Y-91000000D03*
%TO.N,/BUSY*%
X158400000Y-91600000D03*
X176600000Y-93700000D03*
%TO.N,/~{RES}*%
X158400000Y-92800000D03*
X177500000Y-94500000D03*
%TO.N,/D{slash}C*%
X178500000Y-94600000D03*
X158400000Y-94100000D03*
%TO.N,/~{CS}*%
X179000000Y-95500000D03*
X158400000Y-95400000D03*
%TO.N,/DISPLAY_SCL*%
X179000000Y-96500000D03*
X158400000Y-96700000D03*
%TO.N,/GPIO0*%
X145200000Y-98600000D03*
X133900000Y-98600000D03*
X139400000Y-98600000D03*
%TO.N,Net-(Q2-Pad1)*%
X135800000Y-97500000D03*
X131500000Y-97500000D03*
%TO.N,/EN*%
X130200000Y-98600000D03*
X137000000Y-95700000D03*
X141500000Y-85200000D03*
%TO.N,/DISPLAY_SDA*%
X177900000Y-97500000D03*
X158400000Y-97900000D03*
%TO.N,/SCD30_SDA*%
X140891584Y-125100000D03*
%TO.N,/ESP_RX*%
X129600000Y-103500000D03*
X150000000Y-97500000D03*
X138800000Y-100000000D03*
%TO.N,/ESP_TX*%
X142850000Y-101000000D03*
X130500000Y-104200000D03*
X152500000Y-96500000D03*
%TD*%
D14*
%TO.N,GND*%
X177733884Y-99433883D02*
X178000000Y-99700000D01*
X177733890Y-99433877D02*
G75*
G03*
X175600000Y-98550000I-2133890J-2133923D01*
G01*
D15*
%TO.N,+5V*%
X131306503Y-114743497D02*
X130450000Y-115600000D01*
X130596447Y-116446447D02*
X131347881Y-117197881D01*
X131810839Y-92789162D02*
X133650000Y-90950000D01*
X126100000Y-111400000D02*
X126100000Y-104950000D01*
X130450000Y-115600000D02*
X130450000Y-116092893D01*
X130450000Y-115600000D02*
X130300000Y-115600000D01*
X131810834Y-92789157D02*
G75*
G03*
X127250000Y-103800000I11010866J-11010843D01*
G01*
X126100000Y-111400000D02*
G75*
G03*
X130300000Y-115600000I4200000J0D01*
G01*
X131306504Y-114743498D02*
G75*
G02*
X134550000Y-113400000I3243496J-3243502D01*
G01*
X127250000Y-103800000D02*
G75*
G03*
X126100000Y-104950000I0J-1150000D01*
G01*
X134250000Y-118400030D02*
G75*
G02*
X131347881Y-117197881I100J4104330D01*
G01*
X130450005Y-116092893D02*
G75*
G03*
X130596447Y-116446447I499995J-7D01*
G01*
%TO.N,+3V3*%
X150600000Y-84000000D02*
X145200000Y-84000000D01*
X167659854Y-99470377D02*
X176524700Y-99470377D01*
X154900000Y-90000000D02*
X154900000Y-88300000D01*
X143939845Y-116460155D02*
X140600000Y-119800000D01*
X140214214Y-130014213D02*
X143300000Y-133100000D01*
X138800000Y-124145584D02*
X138800000Y-126600000D01*
X159927208Y-84000000D02*
X150600000Y-84000000D01*
X140214219Y-130014208D02*
G75*
G02*
X138800000Y-126600000I3414181J3414208D01*
G01*
X150600000Y-84000000D02*
G75*
G02*
X154900000Y-88300000I0J-4300000D01*
G01*
X159927208Y-83999997D02*
G75*
G02*
X162100000Y-84900000I-8J-3072803D01*
G01*
X138799994Y-124145584D02*
G75*
G02*
X140600000Y-119800000I6145606J-16D01*
G01*
X167659854Y-99470395D02*
G75*
G02*
X165800001Y-98699999I46J2630295D01*
G01*
X143939843Y-116460153D02*
G75*
G03*
X154900000Y-90000000I-26460143J26460153D01*
G01*
D14*
%TO.N,/VGH*%
X168550000Y-100500000D02*
X175558579Y-100500000D01*
X175800006Y-100400006D02*
G75*
G02*
X175558579Y-100500000I-241406J241406D01*
G01*
%TO.N,/GDR*%
X171950000Y-91000000D02*
X169800000Y-91000000D01*
%TO.N,/BUSY*%
X172772792Y-93700000D02*
X176600000Y-93700000D01*
X158400000Y-91600000D02*
X167702944Y-91600000D01*
X172772792Y-93700003D02*
G75*
G02*
X170600000Y-92800000I8J3072803D01*
G01*
X170599987Y-92800013D02*
G75*
G03*
X167702944Y-91600000I-2897087J-2897087D01*
G01*
%TO.N,/~{RES}*%
X158400000Y-92800000D02*
X168368630Y-92800000D01*
X172472792Y-94500000D02*
X177500000Y-94500000D01*
X170299991Y-93600009D02*
G75*
G03*
X168368630Y-92800000I-1931391J-1931391D01*
G01*
X172472792Y-94500003D02*
G75*
G02*
X170300000Y-93600000I8J3072803D01*
G01*
%TO.N,/D{slash}C*%
X177892893Y-95207107D02*
X178500000Y-94600000D01*
X172231370Y-95500000D02*
X177185786Y-95500000D01*
X158400000Y-94100000D02*
X168851472Y-94100000D01*
X170300008Y-94699992D02*
G75*
G03*
X168851472Y-94100000I-1448508J-1448508D01*
G01*
X172231370Y-95500041D02*
G75*
G02*
X170300000Y-94700000I30J2731341D01*
G01*
X177892900Y-95207114D02*
G75*
G02*
X177185786Y-95500000I-707100J707114D01*
G01*
%TO.N,/~{CS}*%
X171524264Y-96000000D02*
X177792894Y-96000000D01*
X158400000Y-95400000D02*
X170075736Y-95400000D01*
X170799989Y-95700011D02*
G75*
G03*
X170075736Y-95400000I-724289J-724289D01*
G01*
X171524264Y-96000014D02*
G75*
G02*
X170800001Y-95699999I36J1024314D01*
G01*
X179000002Y-95500002D02*
G75*
G02*
X177792894Y-96000000I-1207102J1207102D01*
G01*
%TO.N,/DISPLAY_SCL*%
X158400000Y-96700000D02*
X178517158Y-96700000D01*
X179000013Y-96500013D02*
G75*
G02*
X178517158Y-96700000I-482813J482813D01*
G01*
%TO.N,/GPIO0*%
X139400000Y-98600000D02*
X145200000Y-98600000D01*
X133900000Y-98600000D02*
X139400000Y-98600000D01*
%TO.N,Net-(Q2-Pad1)*%
X135800000Y-97500000D02*
X131500000Y-97500000D01*
%TO.N,/EN*%
X140600000Y-92100000D02*
X140600000Y-86100000D01*
X130200000Y-98600000D02*
X130200000Y-98300000D01*
X132800000Y-95700000D02*
X137000000Y-95700000D01*
X140600000Y-92100000D02*
G75*
G02*
X137000000Y-95700000I-3600000J0D01*
G01*
X141500000Y-85200000D02*
G75*
G03*
X140600000Y-86100000I0J-900000D01*
G01*
X132800000Y-95700000D02*
G75*
G03*
X130200000Y-98300000I0J-2600000D01*
G01*
%TO.N,/DISPLAY_SDA*%
X170624264Y-97500000D02*
X177900000Y-97500000D01*
X158400000Y-97900000D02*
X169658579Y-97900000D01*
X169900006Y-97800006D02*
G75*
G02*
X169658579Y-97900000I-241406J241406D01*
G01*
X170624264Y-97499986D02*
G75*
G03*
X169900001Y-97800001I36J-1024314D01*
G01*
%TO.N,/SCD30_SDA*%
X140891584Y-125100000D02*
X142444366Y-125100000D01*
X145100000Y-126200000D02*
X150156324Y-131256324D01*
X150156334Y-131256314D02*
G75*
G02*
X150920000Y-133100000I-1843734J-1843686D01*
G01*
X145100010Y-126199990D02*
G75*
G03*
X142444366Y-125100000I-2655610J-2655610D01*
G01*
%TO.N,/ESP_RX*%
X138049747Y-100000000D02*
X146100000Y-100000000D01*
X148489950Y-99010051D02*
X150000000Y-97500000D01*
X138049747Y-100000020D02*
G75*
G03*
X129600000Y-103500000I-47J-11949680D01*
G01*
X148489950Y-99010051D02*
G75*
G02*
X146100000Y-100000000I-2389950J2389951D01*
G01*
%TO.N,/ESP_TX*%
X149343503Y-99656497D02*
X152500000Y-96500000D01*
X142850000Y-101000000D02*
X146100000Y-101000000D01*
X138225483Y-101000000D02*
X142850000Y-101000000D01*
X149343502Y-99656496D02*
G75*
G02*
X146100000Y-101000000I-3243502J3243496D01*
G01*
X138225483Y-100999994D02*
G75*
G03*
X130500001Y-104200001I17J-10925506D01*
G01*
%TD*%
%TA.AperFunction,Conductor*%
%TO.N,GND*%
G36*
X137742121Y-75528502D02*
G01*
X137788614Y-75582158D01*
X137800000Y-75634500D01*
X137800000Y-80980000D01*
X165800000Y-80980000D01*
X165800000Y-79042277D01*
X179137009Y-79042277D01*
X179162625Y-79310769D01*
X179163710Y-79315203D01*
X179163711Y-79315209D01*
X179225645Y-79568312D01*
X179226731Y-79572750D01*
X179327985Y-79822733D01*
X179464265Y-80055482D01*
X179467118Y-80059049D01*
X179584686Y-80206060D01*
X179632716Y-80266119D01*
X179829809Y-80450234D01*
X180051416Y-80603968D01*
X180055499Y-80605999D01*
X180055502Y-80606001D01*
X180171013Y-80663466D01*
X180292894Y-80724101D01*
X180297228Y-80725522D01*
X180297231Y-80725523D01*
X180544853Y-80806698D01*
X180544859Y-80806699D01*
X180549186Y-80808118D01*
X180553677Y-80808898D01*
X180553678Y-80808898D01*
X180811140Y-80853601D01*
X180811148Y-80853602D01*
X180814921Y-80854257D01*
X180818758Y-80854448D01*
X180898578Y-80858422D01*
X180898586Y-80858422D01*
X180900149Y-80858500D01*
X181068512Y-80858500D01*
X181070780Y-80858335D01*
X181070792Y-80858335D01*
X181201884Y-80848823D01*
X181269004Y-80843953D01*
X181273459Y-80842969D01*
X181273462Y-80842969D01*
X181527912Y-80786791D01*
X181527916Y-80786790D01*
X181532372Y-80785806D01*
X181658480Y-80738028D01*
X181780318Y-80691868D01*
X181780321Y-80691867D01*
X181784588Y-80690250D01*
X182020368Y-80559286D01*
X182234773Y-80395657D01*
X182423312Y-80202792D01*
X182582034Y-79984730D01*
X182665190Y-79826676D01*
X182705490Y-79750079D01*
X182705493Y-79750073D01*
X182707615Y-79746039D01*
X182770378Y-79568312D01*
X182795902Y-79496033D01*
X182795902Y-79496032D01*
X182797425Y-79491720D01*
X182849581Y-79227100D01*
X182858782Y-79042277D01*
X182862764Y-78962292D01*
X182862764Y-78962286D01*
X182862991Y-78957723D01*
X182837375Y-78689231D01*
X182829678Y-78657773D01*
X182774355Y-78431688D01*
X182773269Y-78427250D01*
X182672015Y-78177267D01*
X182563816Y-77992477D01*
X182538045Y-77948463D01*
X182538044Y-77948462D01*
X182535735Y-77944518D01*
X182417928Y-77797208D01*
X182370136Y-77737447D01*
X182370135Y-77737445D01*
X182367284Y-77733881D01*
X182170191Y-77549766D01*
X181948584Y-77396032D01*
X181944501Y-77394001D01*
X181944498Y-77393999D01*
X181779606Y-77311967D01*
X181707106Y-77275899D01*
X181702772Y-77274478D01*
X181702769Y-77274477D01*
X181455147Y-77193302D01*
X181455141Y-77193301D01*
X181450814Y-77191882D01*
X181446322Y-77191102D01*
X181188860Y-77146399D01*
X181188852Y-77146398D01*
X181185079Y-77145743D01*
X181173817Y-77145182D01*
X181101422Y-77141578D01*
X181101414Y-77141578D01*
X181099851Y-77141500D01*
X180931488Y-77141500D01*
X180929220Y-77141665D01*
X180929208Y-77141665D01*
X180798116Y-77151177D01*
X180730996Y-77156047D01*
X180726541Y-77157031D01*
X180726538Y-77157031D01*
X180472088Y-77213209D01*
X180472084Y-77213210D01*
X180467628Y-77214194D01*
X180341520Y-77261972D01*
X180219682Y-77308132D01*
X180219679Y-77308133D01*
X180215412Y-77309750D01*
X179979632Y-77440714D01*
X179765227Y-77604343D01*
X179576688Y-77797208D01*
X179417966Y-78015270D01*
X179415844Y-78019304D01*
X179294510Y-78249921D01*
X179294507Y-78249927D01*
X179292385Y-78253961D01*
X179290865Y-78258266D01*
X179290863Y-78258270D01*
X179204098Y-78503967D01*
X179202575Y-78508280D01*
X179150419Y-78772900D01*
X179150192Y-78777453D01*
X179150192Y-78777456D01*
X179137450Y-79033421D01*
X179137009Y-79042277D01*
X165800000Y-79042277D01*
X165800000Y-75634500D01*
X165820002Y-75566379D01*
X165873658Y-75519886D01*
X165926000Y-75508500D01*
X180950633Y-75508500D01*
X180970018Y-75510000D01*
X180984852Y-75512310D01*
X180984855Y-75512310D01*
X180993724Y-75513691D01*
X181002627Y-75512527D01*
X181002628Y-75512527D01*
X181013076Y-75511161D01*
X181035594Y-75510249D01*
X181336051Y-75525010D01*
X181348345Y-75526221D01*
X181675034Y-75574680D01*
X181687156Y-75577090D01*
X181707387Y-75582158D01*
X182007523Y-75657339D01*
X182019355Y-75660928D01*
X182330311Y-75772190D01*
X182341735Y-75776922D01*
X182409500Y-75808972D01*
X182640292Y-75918128D01*
X182651188Y-75923953D01*
X182792101Y-76008412D01*
X182934467Y-76093744D01*
X182944748Y-76100614D01*
X183210017Y-76297350D01*
X183219556Y-76305177D01*
X183464282Y-76526985D01*
X183473015Y-76535718D01*
X183694823Y-76780444D01*
X183702650Y-76789983D01*
X183846901Y-76984483D01*
X183899386Y-77055252D01*
X183906256Y-77065533D01*
X184076045Y-77348807D01*
X184081874Y-77359712D01*
X184223078Y-77658265D01*
X184227810Y-77669689D01*
X184339072Y-77980645D01*
X184342661Y-77992477D01*
X184349381Y-78019304D01*
X184409240Y-78258270D01*
X184422909Y-78312841D01*
X184425320Y-78324966D01*
X184451873Y-78503967D01*
X184473779Y-78651650D01*
X184474990Y-78663949D01*
X184480124Y-78768428D01*
X184489390Y-78957034D01*
X184488042Y-78982598D01*
X184486309Y-78993724D01*
X184487474Y-79002630D01*
X184490436Y-79025283D01*
X184491500Y-79041621D01*
X184491500Y-130950633D01*
X184490000Y-130970018D01*
X184486309Y-130993724D01*
X184487473Y-131002627D01*
X184487473Y-131002628D01*
X184488839Y-131013076D01*
X184489751Y-131035594D01*
X184476015Y-131315209D01*
X184474991Y-131336045D01*
X184473779Y-131348345D01*
X184441230Y-131567782D01*
X184425321Y-131675031D01*
X184422910Y-131687156D01*
X184408160Y-131746039D01*
X184342661Y-132007523D01*
X184339072Y-132019355D01*
X184227810Y-132330311D01*
X184223078Y-132341735D01*
X184173240Y-132447110D01*
X184089025Y-132625169D01*
X184081874Y-132640288D01*
X184076047Y-132651188D01*
X184028084Y-132731210D01*
X183906256Y-132934467D01*
X183899386Y-132944748D01*
X183702650Y-133210017D01*
X183694823Y-133219556D01*
X183473020Y-133464277D01*
X183464282Y-133473015D01*
X183219556Y-133694823D01*
X183210017Y-133702650D01*
X183086545Y-133794223D01*
X182944748Y-133899386D01*
X182934467Y-133906256D01*
X182792101Y-133991588D01*
X182651188Y-134076047D01*
X182640292Y-134081872D01*
X182505870Y-134145448D01*
X182341735Y-134223078D01*
X182330311Y-134227810D01*
X182019355Y-134339072D01*
X182007523Y-134342661D01*
X181781196Y-134399354D01*
X181687156Y-134422910D01*
X181675034Y-134425320D01*
X181348345Y-134473779D01*
X181336051Y-134474990D01*
X181042961Y-134489390D01*
X181017402Y-134488042D01*
X181006276Y-134486309D01*
X180974714Y-134490436D01*
X180958379Y-134491500D01*
X159129344Y-134491500D01*
X159061223Y-134471498D01*
X159014730Y-134417842D01*
X159004626Y-134347568D01*
X159034120Y-134282988D01*
X159076094Y-134251305D01*
X159172445Y-134206376D01*
X159181931Y-134200898D01*
X159225764Y-134170207D01*
X159234139Y-134159729D01*
X159227071Y-134146281D01*
X158552812Y-133472022D01*
X158538868Y-133464408D01*
X158537035Y-133464539D01*
X158530420Y-133468790D01*
X157852207Y-134147003D01*
X157845777Y-134158777D01*
X157855074Y-134170793D01*
X157898069Y-134200898D01*
X157907555Y-134206376D01*
X158003906Y-134251305D01*
X158057191Y-134298222D01*
X158076652Y-134366500D01*
X158056110Y-134434460D01*
X158002087Y-134480525D01*
X157950656Y-134491500D01*
X156590527Y-134491500D01*
X156522406Y-134471498D01*
X156475913Y-134417842D01*
X156465809Y-134347568D01*
X156495303Y-134282988D01*
X156537277Y-134251305D01*
X156632690Y-134206814D01*
X156632695Y-134206811D01*
X156637677Y-134204488D01*
X156739505Y-134133187D01*
X156815270Y-134080136D01*
X156815273Y-134080134D01*
X156819781Y-134076977D01*
X156976977Y-133919781D01*
X156986448Y-133906256D01*
X157101331Y-133742185D01*
X157101332Y-133742183D01*
X157104488Y-133737676D01*
X157106811Y-133732694D01*
X157106814Y-133732689D01*
X157156081Y-133627035D01*
X157202999Y-133573750D01*
X157271276Y-133554289D01*
X157339236Y-133574831D01*
X157384471Y-133627035D01*
X157433623Y-133732441D01*
X157439103Y-133741932D01*
X157469794Y-133785765D01*
X157480271Y-133794140D01*
X157493718Y-133787072D01*
X158167978Y-133112812D01*
X158174356Y-133101132D01*
X158904408Y-133101132D01*
X158904539Y-133102965D01*
X158908790Y-133109580D01*
X159587003Y-133787793D01*
X159598777Y-133794223D01*
X159610793Y-133784926D01*
X159640897Y-133741932D01*
X159646377Y-133732441D01*
X159735645Y-133541007D01*
X159739391Y-133530715D01*
X159794059Y-133326691D01*
X159795962Y-133315896D01*
X159814372Y-133105475D01*
X159814372Y-133094525D01*
X159795962Y-132884104D01*
X159794059Y-132873309D01*
X159739391Y-132669285D01*
X159735645Y-132658993D01*
X159646377Y-132467559D01*
X159640897Y-132458068D01*
X159610206Y-132414235D01*
X159599729Y-132405860D01*
X159586282Y-132412928D01*
X158912022Y-133087188D01*
X158904408Y-133101132D01*
X158174356Y-133101132D01*
X158175592Y-133098868D01*
X158175461Y-133097035D01*
X158171210Y-133090420D01*
X157492997Y-132412207D01*
X157481223Y-132405777D01*
X157469207Y-132415074D01*
X157439103Y-132458068D01*
X157433623Y-132467559D01*
X157384471Y-132572965D01*
X157337553Y-132626250D01*
X157269276Y-132645711D01*
X157201316Y-132625169D01*
X157156081Y-132572965D01*
X157106814Y-132467311D01*
X157106811Y-132467306D01*
X157104488Y-132462324D01*
X157093835Y-132447110D01*
X156980136Y-132284730D01*
X156980134Y-132284727D01*
X156976977Y-132280219D01*
X156819781Y-132123023D01*
X156815273Y-132119866D01*
X156815270Y-132119864D01*
X156723323Y-132055482D01*
X156701599Y-132040271D01*
X157845860Y-132040271D01*
X157852928Y-132053718D01*
X158527188Y-132727978D01*
X158541132Y-132735592D01*
X158542965Y-132735461D01*
X158549580Y-132731210D01*
X159227793Y-132052997D01*
X159234223Y-132041223D01*
X159224926Y-132029207D01*
X159181931Y-131999102D01*
X159172445Y-131993624D01*
X158981007Y-131904355D01*
X158970715Y-131900609D01*
X158766691Y-131845941D01*
X158755896Y-131844038D01*
X158545475Y-131825628D01*
X158534525Y-131825628D01*
X158324104Y-131844038D01*
X158313309Y-131845941D01*
X158109285Y-131900609D01*
X158098993Y-131904355D01*
X157907559Y-131993623D01*
X157898068Y-131999103D01*
X157854235Y-132029794D01*
X157845860Y-132040271D01*
X156701599Y-132040271D01*
X156637677Y-131995512D01*
X156632695Y-131993189D01*
X156632690Y-131993186D01*
X156441178Y-131903883D01*
X156441177Y-131903882D01*
X156436196Y-131901560D01*
X156430888Y-131900138D01*
X156430886Y-131900137D01*
X156315842Y-131869311D01*
X156221463Y-131844022D01*
X156000000Y-131824647D01*
X155778537Y-131844022D01*
X155684158Y-131869311D01*
X155569114Y-131900137D01*
X155569112Y-131900138D01*
X155563804Y-131901560D01*
X155558823Y-131903882D01*
X155558822Y-131903883D01*
X155367311Y-131993186D01*
X155367306Y-131993189D01*
X155362324Y-131995512D01*
X155357817Y-131998668D01*
X155357815Y-131998669D01*
X155184730Y-132119864D01*
X155184727Y-132119866D01*
X155180219Y-132123023D01*
X155023023Y-132280219D01*
X155019866Y-132284727D01*
X155019864Y-132284730D01*
X154906165Y-132447110D01*
X154895512Y-132462324D01*
X154893189Y-132467306D01*
X154893186Y-132467311D01*
X154844195Y-132572373D01*
X154797277Y-132625658D01*
X154729000Y-132645119D01*
X154661040Y-132624577D01*
X154615805Y-132572373D01*
X154566814Y-132467311D01*
X154566811Y-132467306D01*
X154564488Y-132462324D01*
X154553835Y-132447110D01*
X154440136Y-132284730D01*
X154440134Y-132284727D01*
X154436977Y-132280219D01*
X154279781Y-132123023D01*
X154275273Y-132119866D01*
X154275270Y-132119864D01*
X154183323Y-132055482D01*
X154097677Y-131995512D01*
X154092695Y-131993189D01*
X154092690Y-131993186D01*
X153901178Y-131903883D01*
X153901177Y-131903882D01*
X153896196Y-131901560D01*
X153890888Y-131900138D01*
X153890886Y-131900137D01*
X153775842Y-131869311D01*
X153681463Y-131844022D01*
X153460000Y-131824647D01*
X153238537Y-131844022D01*
X153144158Y-131869311D01*
X153029114Y-131900137D01*
X153029112Y-131900138D01*
X153023804Y-131901560D01*
X153018823Y-131903882D01*
X153018822Y-131903883D01*
X152827311Y-131993186D01*
X152827306Y-131993189D01*
X152822324Y-131995512D01*
X152817817Y-131998668D01*
X152817815Y-131998669D01*
X152644730Y-132119864D01*
X152644727Y-132119866D01*
X152640219Y-132123023D01*
X152483023Y-132280219D01*
X152479866Y-132284727D01*
X152479864Y-132284730D01*
X152366165Y-132447110D01*
X152355512Y-132462324D01*
X152353189Y-132467306D01*
X152353186Y-132467311D01*
X152304195Y-132572373D01*
X152257277Y-132625658D01*
X152189000Y-132645119D01*
X152121040Y-132624577D01*
X152075805Y-132572373D01*
X152026814Y-132467311D01*
X152026811Y-132467306D01*
X152024488Y-132462324D01*
X152013835Y-132447110D01*
X151900136Y-132284730D01*
X151900134Y-132284727D01*
X151896977Y-132280219D01*
X151739781Y-132123023D01*
X151735273Y-132119866D01*
X151735270Y-132119864D01*
X151643323Y-132055482D01*
X151557677Y-131995512D01*
X151552695Y-131993189D01*
X151552690Y-131993186D01*
X151364939Y-131905637D01*
X151311654Y-131858720D01*
X151304286Y-131845313D01*
X151175599Y-131573221D01*
X151175595Y-131573214D01*
X151174279Y-131570431D01*
X151041171Y-131348350D01*
X151012173Y-131299968D01*
X151012172Y-131299967D01*
X151010578Y-131297307D01*
X150824818Y-131046833D01*
X150822740Y-131044031D01*
X150822734Y-131044024D01*
X150821439Y-131042277D01*
X179137009Y-131042277D01*
X179162625Y-131310769D01*
X179163710Y-131315203D01*
X179163711Y-131315209D01*
X179225515Y-131567782D01*
X179226731Y-131572750D01*
X179327985Y-131822733D01*
X179368884Y-131892583D01*
X179439701Y-132013529D01*
X179464265Y-132055482D01*
X179467118Y-132059049D01*
X179584686Y-132206060D01*
X179632716Y-132266119D01*
X179829809Y-132450234D01*
X180051416Y-132603968D01*
X180055499Y-132605999D01*
X180055502Y-132606001D01*
X180124422Y-132640288D01*
X180292894Y-132724101D01*
X180297228Y-132725522D01*
X180297231Y-132725523D01*
X180544853Y-132806698D01*
X180544859Y-132806699D01*
X180549186Y-132808118D01*
X180553677Y-132808898D01*
X180553678Y-132808898D01*
X180811140Y-132853601D01*
X180811148Y-132853602D01*
X180814921Y-132854257D01*
X180818758Y-132854448D01*
X180898578Y-132858422D01*
X180898586Y-132858422D01*
X180900149Y-132858500D01*
X181068512Y-132858500D01*
X181070780Y-132858335D01*
X181070792Y-132858335D01*
X181201884Y-132848823D01*
X181269004Y-132843953D01*
X181273459Y-132842969D01*
X181273462Y-132842969D01*
X181527912Y-132786791D01*
X181527916Y-132786790D01*
X181532372Y-132785806D01*
X181664910Y-132735592D01*
X181780318Y-132691868D01*
X181780321Y-132691867D01*
X181784588Y-132690250D01*
X182020368Y-132559286D01*
X182234773Y-132395657D01*
X182423312Y-132202792D01*
X182582034Y-131984730D01*
X182634521Y-131884969D01*
X182705490Y-131750079D01*
X182705493Y-131750073D01*
X182707615Y-131746039D01*
X182713441Y-131729543D01*
X182795902Y-131496033D01*
X182795902Y-131496032D01*
X182797425Y-131491720D01*
X182835219Y-131299968D01*
X182848700Y-131231572D01*
X182848701Y-131231566D01*
X182849581Y-131227100D01*
X182858562Y-131046695D01*
X182862764Y-130962292D01*
X182862764Y-130962286D01*
X182862991Y-130957723D01*
X182837375Y-130689231D01*
X182801228Y-130541507D01*
X182774355Y-130431688D01*
X182773269Y-130427250D01*
X182672015Y-130177267D01*
X182535735Y-129944518D01*
X182417928Y-129797208D01*
X182370136Y-129737447D01*
X182370135Y-129737445D01*
X182367284Y-129733881D01*
X182170191Y-129549766D01*
X181948584Y-129396032D01*
X181944501Y-129394001D01*
X181944498Y-129393999D01*
X181779606Y-129311967D01*
X181707106Y-129275899D01*
X181702772Y-129274478D01*
X181702769Y-129274477D01*
X181455147Y-129193302D01*
X181455141Y-129193301D01*
X181450814Y-129191882D01*
X181446322Y-129191102D01*
X181188860Y-129146399D01*
X181188852Y-129146398D01*
X181185079Y-129145743D01*
X181173817Y-129145182D01*
X181101422Y-129141578D01*
X181101414Y-129141578D01*
X181099851Y-129141500D01*
X180931488Y-129141500D01*
X180929220Y-129141665D01*
X180929208Y-129141665D01*
X180798116Y-129151177D01*
X180730996Y-129156047D01*
X180726541Y-129157031D01*
X180726538Y-129157031D01*
X180472088Y-129213209D01*
X180472084Y-129213210D01*
X180467628Y-129214194D01*
X180341520Y-129261972D01*
X180219682Y-129308132D01*
X180219679Y-129308133D01*
X180215412Y-129309750D01*
X179979632Y-129440714D01*
X179765227Y-129604343D01*
X179576688Y-129797208D01*
X179417966Y-130015270D01*
X179415844Y-130019304D01*
X179294510Y-130249921D01*
X179294507Y-130249927D01*
X179292385Y-130253961D01*
X179290865Y-130258266D01*
X179290863Y-130258270D01*
X179204098Y-130503967D01*
X179202575Y-130508280D01*
X179150419Y-130772900D01*
X179150192Y-130777453D01*
X179150192Y-130777456D01*
X179137342Y-131035597D01*
X179137009Y-131042277D01*
X150821439Y-131042277D01*
X150820895Y-131041544D01*
X150660889Y-130865001D01*
X150661998Y-130863996D01*
X150661816Y-130863855D01*
X150660737Y-130864833D01*
X150655221Y-130858747D01*
X150628940Y-130829750D01*
X150621550Y-130820799D01*
X150616923Y-130814636D01*
X150607572Y-130805088D01*
X150583063Y-130785870D01*
X150571716Y-130775812D01*
X145586134Y-125790229D01*
X145574468Y-125776786D01*
X145563071Y-125761606D01*
X145563068Y-125761603D01*
X145560593Y-125758306D01*
X145551242Y-125748758D01*
X145548004Y-125746220D01*
X145544920Y-125743457D01*
X145544922Y-125743454D01*
X145542992Y-125741818D01*
X145268343Y-125490149D01*
X145266181Y-125488490D01*
X145266175Y-125488485D01*
X145162880Y-125409225D01*
X144964275Y-125256830D01*
X144641029Y-125050900D01*
X144301065Y-124873928D01*
X143946970Y-124727259D01*
X143581439Y-124612010D01*
X143207255Y-124529057D01*
X142827264Y-124479034D01*
X142824512Y-124478914D01*
X142824502Y-124478913D01*
X142575992Y-124468065D01*
X142473156Y-124463576D01*
X142464458Y-124462769D01*
X142461800Y-124462567D01*
X142457724Y-124461987D01*
X142452129Y-124461928D01*
X142448495Y-124461890D01*
X142448490Y-124461890D01*
X142444360Y-124461847D01*
X142440253Y-124462344D01*
X142413456Y-124465587D01*
X142398318Y-124466500D01*
X141599784Y-124466500D01*
X141531663Y-124446498D01*
X141512437Y-124430157D01*
X141512164Y-124430460D01*
X141507252Y-124426037D01*
X141502837Y-124421134D01*
X141348336Y-124308882D01*
X141342308Y-124306198D01*
X141342306Y-124306197D01*
X141179903Y-124233891D01*
X141179902Y-124233891D01*
X141173872Y-124231206D01*
X141080472Y-124211353D01*
X140993528Y-124192872D01*
X140993523Y-124192872D01*
X140987071Y-124191500D01*
X140796097Y-124191500D01*
X140789645Y-124192872D01*
X140789640Y-124192872D01*
X140702696Y-124211353D01*
X140609296Y-124231206D01*
X140603266Y-124233891D01*
X140603265Y-124233891D01*
X140440862Y-124306197D01*
X140440860Y-124306198D01*
X140434832Y-124308882D01*
X140280331Y-124421134D01*
X140275910Y-124426044D01*
X140275909Y-124426045D01*
X140227873Y-124479395D01*
X140152544Y-124563056D01*
X140057057Y-124728444D01*
X139998042Y-124910072D01*
X139978080Y-125100000D01*
X139998042Y-125289928D01*
X140057057Y-125471556D01*
X140152544Y-125636944D01*
X140156962Y-125641851D01*
X140156963Y-125641852D01*
X140253017Y-125748531D01*
X140280331Y-125778866D01*
X140379427Y-125850864D01*
X140400847Y-125866426D01*
X140434832Y-125891118D01*
X140440860Y-125893802D01*
X140440862Y-125893803D01*
X140603265Y-125966109D01*
X140609296Y-125968794D01*
X140702697Y-125988647D01*
X140789640Y-126007128D01*
X140789645Y-126007128D01*
X140796097Y-126008500D01*
X140987071Y-126008500D01*
X140993523Y-126007128D01*
X140993528Y-126007128D01*
X141080471Y-125988647D01*
X141173872Y-125968794D01*
X141179903Y-125966109D01*
X141342306Y-125893803D01*
X141342308Y-125893802D01*
X141348336Y-125891118D01*
X141382322Y-125866426D01*
X141482714Y-125793486D01*
X141502837Y-125778866D01*
X141507252Y-125773963D01*
X141512164Y-125769540D01*
X141513289Y-125770789D01*
X141566598Y-125737949D01*
X141599784Y-125733500D01*
X142394353Y-125733500D01*
X142410799Y-125734578D01*
X142430158Y-125737127D01*
X142430162Y-125737127D01*
X142437689Y-125738118D01*
X142445235Y-125737285D01*
X142445242Y-125737285D01*
X142458719Y-125735797D01*
X142478724Y-125735188D01*
X142613556Y-125741810D01*
X142744220Y-125748228D01*
X142756512Y-125749438D01*
X143047352Y-125792578D01*
X143059466Y-125794988D01*
X143271201Y-125848023D01*
X143344672Y-125866426D01*
X143356505Y-125870015D01*
X143633335Y-125969065D01*
X143644759Y-125973797D01*
X143715232Y-126007128D01*
X143910548Y-126099505D01*
X143921449Y-126105332D01*
X144173634Y-126256485D01*
X144183915Y-126263355D01*
X144420065Y-126438495D01*
X144429623Y-126446339D01*
X144621014Y-126619805D01*
X144636360Y-126636461D01*
X144644057Y-126646492D01*
X144669580Y-126666940D01*
X144671495Y-126668474D01*
X144681809Y-126677713D01*
X149672999Y-131668904D01*
X149683868Y-131681297D01*
X149700375Y-131702810D01*
X149706303Y-131707559D01*
X149715799Y-131715167D01*
X149730970Y-131729543D01*
X149851155Y-131864034D01*
X149859964Y-131875080D01*
X149979861Y-132044062D01*
X149987378Y-132056024D01*
X150005524Y-132088856D01*
X150020969Y-132158153D01*
X149996499Y-132224799D01*
X149984341Y-132238901D01*
X149943023Y-132280219D01*
X149939866Y-132284727D01*
X149939864Y-132284730D01*
X149826165Y-132447110D01*
X149815512Y-132462324D01*
X149813189Y-132467306D01*
X149813186Y-132467311D01*
X149764195Y-132572373D01*
X149717277Y-132625658D01*
X149649000Y-132645119D01*
X149581040Y-132624577D01*
X149535805Y-132572373D01*
X149486814Y-132467311D01*
X149486811Y-132467306D01*
X149484488Y-132462324D01*
X149473835Y-132447110D01*
X149360136Y-132284730D01*
X149360134Y-132284727D01*
X149356977Y-132280219D01*
X149199781Y-132123023D01*
X149195273Y-132119866D01*
X149195270Y-132119864D01*
X149103323Y-132055482D01*
X149017677Y-131995512D01*
X149012695Y-131993189D01*
X149012690Y-131993186D01*
X148821178Y-131903883D01*
X148821177Y-131903882D01*
X148816196Y-131901560D01*
X148810888Y-131900138D01*
X148810886Y-131900137D01*
X148695842Y-131869311D01*
X148601463Y-131844022D01*
X148380000Y-131824647D01*
X148158537Y-131844022D01*
X148064158Y-131869311D01*
X147949114Y-131900137D01*
X147949112Y-131900138D01*
X147943804Y-131901560D01*
X147938823Y-131903882D01*
X147938822Y-131903883D01*
X147747311Y-131993186D01*
X147747306Y-131993189D01*
X147742324Y-131995512D01*
X147737817Y-131998668D01*
X147737815Y-131998669D01*
X147564730Y-132119864D01*
X147564727Y-132119866D01*
X147560219Y-132123023D01*
X147403023Y-132280219D01*
X147399866Y-132284727D01*
X147399864Y-132284730D01*
X147286165Y-132447110D01*
X147275512Y-132462324D01*
X147273189Y-132467306D01*
X147273186Y-132467311D01*
X147223919Y-132572965D01*
X147177001Y-132626250D01*
X147108724Y-132645711D01*
X147040764Y-132625169D01*
X146995529Y-132572965D01*
X146946377Y-132467559D01*
X146940897Y-132458068D01*
X146910206Y-132414235D01*
X146899729Y-132405860D01*
X146886282Y-132412928D01*
X146212022Y-133087188D01*
X146204408Y-133101132D01*
X146204539Y-133102965D01*
X146208790Y-133109580D01*
X146887003Y-133787793D01*
X146898777Y-133794223D01*
X146910793Y-133784926D01*
X146940897Y-133741932D01*
X146946377Y-133732441D01*
X146995529Y-133627035D01*
X147042447Y-133573750D01*
X147110724Y-133554289D01*
X147178684Y-133574831D01*
X147223919Y-133627035D01*
X147273186Y-133732689D01*
X147273189Y-133732694D01*
X147275512Y-133737676D01*
X147278668Y-133742183D01*
X147278669Y-133742185D01*
X147393553Y-133906256D01*
X147403023Y-133919781D01*
X147560219Y-134076977D01*
X147564727Y-134080134D01*
X147564730Y-134080136D01*
X147640495Y-134133187D01*
X147742323Y-134204488D01*
X147747305Y-134206811D01*
X147747310Y-134206814D01*
X147842723Y-134251305D01*
X147896008Y-134298222D01*
X147915469Y-134366499D01*
X147894927Y-134434459D01*
X147840905Y-134480525D01*
X147789473Y-134491500D01*
X146429344Y-134491500D01*
X146361223Y-134471498D01*
X146314730Y-134417842D01*
X146304626Y-134347568D01*
X146334120Y-134282988D01*
X146376094Y-134251305D01*
X146472445Y-134206376D01*
X146481931Y-134200898D01*
X146525764Y-134170207D01*
X146534139Y-134159729D01*
X146527071Y-134146281D01*
X145852812Y-133472022D01*
X145838868Y-133464408D01*
X145837035Y-133464539D01*
X145830420Y-133468790D01*
X145152207Y-134147003D01*
X145145777Y-134158777D01*
X145155074Y-134170793D01*
X145198069Y-134200898D01*
X145207555Y-134206376D01*
X145303906Y-134251305D01*
X145357191Y-134298222D01*
X145376652Y-134366500D01*
X145356110Y-134434460D01*
X145302087Y-134480525D01*
X145250656Y-134491500D01*
X143890527Y-134491500D01*
X143822406Y-134471498D01*
X143775913Y-134417842D01*
X143765809Y-134347568D01*
X143795303Y-134282988D01*
X143837277Y-134251305D01*
X143932690Y-134206814D01*
X143932695Y-134206811D01*
X143937677Y-134204488D01*
X144039505Y-134133187D01*
X144115270Y-134080136D01*
X144115273Y-134080134D01*
X144119781Y-134076977D01*
X144276977Y-133919781D01*
X144286448Y-133906256D01*
X144401331Y-133742185D01*
X144401332Y-133742183D01*
X144404488Y-133737676D01*
X144406811Y-133732694D01*
X144406814Y-133732689D01*
X144456081Y-133627035D01*
X144502999Y-133573750D01*
X144571276Y-133554289D01*
X144639236Y-133574831D01*
X144684471Y-133627035D01*
X144733623Y-133732441D01*
X144739103Y-133741932D01*
X144769794Y-133785765D01*
X144780271Y-133794140D01*
X144793718Y-133787072D01*
X145467978Y-133112812D01*
X145475592Y-133098868D01*
X145475461Y-133097035D01*
X145471210Y-133090420D01*
X144792997Y-132412207D01*
X144781223Y-132405777D01*
X144769207Y-132415074D01*
X144739103Y-132458068D01*
X144733623Y-132467559D01*
X144684471Y-132572965D01*
X144637553Y-132626250D01*
X144569276Y-132645711D01*
X144501316Y-132625169D01*
X144456081Y-132572965D01*
X144406814Y-132467311D01*
X144406811Y-132467306D01*
X144404488Y-132462324D01*
X144393835Y-132447110D01*
X144280136Y-132284730D01*
X144280134Y-132284727D01*
X144276977Y-132280219D01*
X144119781Y-132123023D01*
X144115273Y-132119866D01*
X144115270Y-132119864D01*
X144023323Y-132055482D01*
X144001599Y-132040271D01*
X145145860Y-132040271D01*
X145152928Y-132053718D01*
X145827188Y-132727978D01*
X145841132Y-132735592D01*
X145842965Y-132735461D01*
X145849580Y-132731210D01*
X146527793Y-132052997D01*
X146534223Y-132041223D01*
X146524926Y-132029207D01*
X146481931Y-131999102D01*
X146472445Y-131993624D01*
X146281007Y-131904355D01*
X146270715Y-131900609D01*
X146066691Y-131845941D01*
X146055896Y-131844038D01*
X145845475Y-131825628D01*
X145834525Y-131825628D01*
X145624104Y-131844038D01*
X145613309Y-131845941D01*
X145409285Y-131900609D01*
X145398993Y-131904355D01*
X145207559Y-131993623D01*
X145198068Y-131999103D01*
X145154235Y-132029794D01*
X145145860Y-132040271D01*
X144001599Y-132040271D01*
X143937677Y-131995512D01*
X143932695Y-131993189D01*
X143932690Y-131993186D01*
X143741178Y-131903883D01*
X143741177Y-131903882D01*
X143736196Y-131901560D01*
X143730888Y-131900138D01*
X143730886Y-131900137D01*
X143615842Y-131869311D01*
X143521463Y-131844022D01*
X143300000Y-131824647D01*
X143294525Y-131825126D01*
X143294524Y-131825126D01*
X143172162Y-131835831D01*
X143102558Y-131821842D01*
X143072086Y-131799405D01*
X140790145Y-129517463D01*
X140779681Y-129505595D01*
X140765745Y-129487629D01*
X140761429Y-129482065D01*
X140739929Y-129464405D01*
X140727007Y-129452165D01*
X140673707Y-129393999D01*
X140514392Y-129220138D01*
X140507330Y-129211720D01*
X140453575Y-129141665D01*
X140297891Y-128938776D01*
X140291586Y-128929772D01*
X140106726Y-128639600D01*
X140101230Y-128630081D01*
X139942365Y-128324907D01*
X139937719Y-128314945D01*
X139806049Y-127997069D01*
X139802290Y-127986739D01*
X139698834Y-127658619D01*
X139695989Y-127648001D01*
X139621524Y-127312109D01*
X139619615Y-127301285D01*
X139574705Y-126960170D01*
X139573747Y-126949219D01*
X139560782Y-126652263D01*
X139561888Y-126629232D01*
X139562451Y-126625224D01*
X139563001Y-126621313D01*
X139563299Y-126600000D01*
X139559285Y-126564213D01*
X139558500Y-126550169D01*
X139558500Y-124201569D01*
X139559494Y-124185777D01*
X139562341Y-124163237D01*
X139563225Y-124156243D01*
X139560392Y-124127344D01*
X139559888Y-124110111D01*
X139559910Y-124109573D01*
X139574908Y-123727870D01*
X139575684Y-123718007D01*
X139599961Y-123512890D01*
X139624240Y-123307760D01*
X139625784Y-123298014D01*
X139706379Y-122892839D01*
X139708687Y-122883226D01*
X139820816Y-122485652D01*
X139823873Y-122476243D01*
X139966853Y-122088681D01*
X139970639Y-122079541D01*
X140143586Y-121704390D01*
X140148078Y-121695575D01*
X140349917Y-121335166D01*
X140355086Y-121326730D01*
X140470795Y-121153559D01*
X140584594Y-120983246D01*
X140590404Y-120975250D01*
X140622956Y-120933959D01*
X140743560Y-120780973D01*
X140846147Y-120650843D01*
X140852572Y-120643320D01*
X141104371Y-120370926D01*
X141119668Y-120356897D01*
X141126579Y-120351536D01*
X141126584Y-120351531D01*
X141132146Y-120347217D01*
X141158976Y-120314553D01*
X141167238Y-120305443D01*
X144432232Y-117040449D01*
X144445498Y-117028916D01*
X144461137Y-117017131D01*
X144464298Y-117014749D01*
X144467133Y-117011992D01*
X144467139Y-117011987D01*
X144476737Y-117002653D01*
X144476739Y-117002650D01*
X144479579Y-116999889D01*
X144480054Y-117000378D01*
X144480907Y-116999857D01*
X144480173Y-116999145D01*
X145134661Y-116323766D01*
X145314277Y-116138417D01*
X145714773Y-115698278D01*
X146120910Y-115251940D01*
X146120929Y-115251919D01*
X146121570Y-115251214D01*
X146695242Y-114579531D01*
X146899919Y-114339885D01*
X146899923Y-114339880D01*
X146900597Y-114339091D01*
X147650589Y-113402948D01*
X147651188Y-113402150D01*
X147651206Y-113402127D01*
X148370199Y-112444518D01*
X148370211Y-112444501D01*
X148370806Y-112443709D01*
X148399527Y-112402843D01*
X149059994Y-111463094D01*
X149060002Y-111463082D01*
X149060537Y-111462321D01*
X149151181Y-111324329D01*
X149718575Y-110460556D01*
X149718588Y-110460535D01*
X149719102Y-110459753D01*
X150345850Y-109436993D01*
X150940164Y-108395051D01*
X151501455Y-107334955D01*
X152029172Y-106257752D01*
X152522792Y-105164504D01*
X152562437Y-105068794D01*
X152981456Y-104057192D01*
X152981460Y-104057181D01*
X152981829Y-104056291D01*
X153405830Y-102934206D01*
X153412038Y-102916076D01*
X153794063Y-101800271D01*
X153794376Y-101799357D01*
X154147084Y-100652862D01*
X154370648Y-99835648D01*
X154463340Y-99496825D01*
X154463345Y-99496804D01*
X154463605Y-99495855D01*
X154667131Y-98648109D01*
X154743399Y-98330432D01*
X154743403Y-98330416D01*
X154743628Y-98329477D01*
X154832568Y-97900000D01*
X157486496Y-97900000D01*
X157487186Y-97906565D01*
X157504235Y-98068774D01*
X157506458Y-98089928D01*
X157565473Y-98271556D01*
X157568776Y-98277278D01*
X157568777Y-98277279D01*
X157574526Y-98287237D01*
X157660960Y-98436944D01*
X157665378Y-98441851D01*
X157665379Y-98441852D01*
X157773450Y-98561877D01*
X157788747Y-98578866D01*
X157828406Y-98607680D01*
X157926926Y-98679259D01*
X157943248Y-98691118D01*
X157949276Y-98693802D01*
X157949278Y-98693803D01*
X158050656Y-98738939D01*
X158117712Y-98768794D01*
X158186263Y-98783365D01*
X158298056Y-98807128D01*
X158298061Y-98807128D01*
X158304513Y-98808500D01*
X158495487Y-98808500D01*
X158501939Y-98807128D01*
X158501944Y-98807128D01*
X158613737Y-98783365D01*
X158682288Y-98768794D01*
X158749344Y-98738939D01*
X158850722Y-98693803D01*
X158850724Y-98693802D01*
X158856752Y-98691118D01*
X158873075Y-98679259D01*
X159002545Y-98585193D01*
X159011253Y-98578866D01*
X159015668Y-98573963D01*
X159020580Y-98569540D01*
X159021705Y-98570789D01*
X159075014Y-98537949D01*
X159108200Y-98533500D01*
X164764058Y-98533500D01*
X164832179Y-98553502D01*
X164878672Y-98607158D01*
X164889368Y-98672669D01*
X164887350Y-98691875D01*
X164886496Y-98700000D01*
X164887186Y-98706565D01*
X164896608Y-98796206D01*
X164906458Y-98889928D01*
X164965473Y-99071556D01*
X165060960Y-99236944D01*
X165065378Y-99241851D01*
X165065379Y-99241852D01*
X165184325Y-99373955D01*
X165188747Y-99378866D01*
X165275660Y-99442012D01*
X165314701Y-99470377D01*
X165343248Y-99491118D01*
X165349276Y-99493802D01*
X165349278Y-99493803D01*
X165511681Y-99566109D01*
X165517712Y-99568794D01*
X165676806Y-99602611D01*
X165725664Y-99624652D01*
X165774903Y-99661170D01*
X165777553Y-99662759D01*
X165777554Y-99662759D01*
X165991046Y-99790722D01*
X166060487Y-99832344D01*
X166063273Y-99833662D01*
X166063281Y-99833666D01*
X166276359Y-99934446D01*
X166361473Y-99974703D01*
X166588745Y-100056025D01*
X166633076Y-100071887D01*
X166674963Y-100086875D01*
X166677947Y-100087623D01*
X166677952Y-100087624D01*
X166904333Y-100144332D01*
X166997938Y-100167780D01*
X167105327Y-100183711D01*
X167324232Y-100216186D01*
X167324239Y-100216187D01*
X167327288Y-100216639D01*
X167330369Y-100216790D01*
X167330375Y-100216791D01*
X167406774Y-100220545D01*
X167531489Y-100226675D01*
X167598543Y-100249995D01*
X167642347Y-100305868D01*
X167650612Y-100365692D01*
X167647006Y-100400000D01*
X167636496Y-100500000D01*
X167637186Y-100506565D01*
X167652465Y-100651932D01*
X167656458Y-100689928D01*
X167715473Y-100871556D01*
X167810960Y-101036944D01*
X167815378Y-101041851D01*
X167815379Y-101041852D01*
X167930350Y-101169540D01*
X167938747Y-101178866D01*
X168093248Y-101291118D01*
X168099276Y-101293802D01*
X168099278Y-101293803D01*
X168182793Y-101330986D01*
X168267712Y-101368794D01*
X168361113Y-101388647D01*
X168448056Y-101407128D01*
X168448061Y-101407128D01*
X168454513Y-101408500D01*
X168645487Y-101408500D01*
X168651939Y-101407128D01*
X168651944Y-101407128D01*
X168738888Y-101388647D01*
X168832288Y-101368794D01*
X168917207Y-101330986D01*
X169000722Y-101293803D01*
X169000724Y-101293802D01*
X169006752Y-101291118D01*
X169161253Y-101178866D01*
X169165668Y-101173963D01*
X169170580Y-101169540D01*
X169171705Y-101170789D01*
X169225014Y-101137949D01*
X169258200Y-101133500D01*
X175223004Y-101133500D01*
X175291125Y-101153502D01*
X175297065Y-101157564D01*
X175331724Y-101182745D01*
X175343248Y-101191118D01*
X175349276Y-101193802D01*
X175349278Y-101193803D01*
X175452666Y-101239834D01*
X175517712Y-101268794D01*
X175604479Y-101287237D01*
X175698056Y-101307128D01*
X175698061Y-101307128D01*
X175704513Y-101308500D01*
X175895487Y-101308500D01*
X175901939Y-101307128D01*
X175901944Y-101307128D01*
X175995521Y-101287237D01*
X176082288Y-101268794D01*
X176147334Y-101239834D01*
X176250722Y-101193803D01*
X176250724Y-101193802D01*
X176256752Y-101191118D01*
X176268277Y-101182745D01*
X176312157Y-101150864D01*
X176411253Y-101078866D01*
X176420025Y-101069124D01*
X176534621Y-100941852D01*
X176534622Y-100941851D01*
X176539040Y-100936944D01*
X176618116Y-100799980D01*
X176631223Y-100777279D01*
X176631224Y-100777278D01*
X176634527Y-100771556D01*
X176693542Y-100589928D01*
X176708344Y-100449095D01*
X176735357Y-100383439D01*
X176794716Y-100342434D01*
X176800540Y-100340542D01*
X176806988Y-100339171D01*
X176881788Y-100305868D01*
X176975422Y-100264180D01*
X176975424Y-100264179D01*
X176981452Y-100261495D01*
X176997281Y-100249995D01*
X177036857Y-100221241D01*
X177135953Y-100149243D01*
X177214869Y-100061598D01*
X177259321Y-100012229D01*
X177259322Y-100012228D01*
X177263740Y-100007321D01*
X177359227Y-99841933D01*
X177418242Y-99660305D01*
X177420624Y-99637648D01*
X177437514Y-99476942D01*
X177438204Y-99470377D01*
X177426889Y-99362716D01*
X177418932Y-99287012D01*
X177418932Y-99287010D01*
X177418242Y-99280449D01*
X177359227Y-99098821D01*
X177263740Y-98933433D01*
X177236922Y-98903648D01*
X177140375Y-98796422D01*
X177140374Y-98796421D01*
X177135953Y-98791511D01*
X177019035Y-98706565D01*
X176986794Y-98683140D01*
X176986793Y-98683139D01*
X176981452Y-98679259D01*
X176975424Y-98676575D01*
X176975422Y-98676574D01*
X176813019Y-98604268D01*
X176813018Y-98604268D01*
X176806988Y-98601583D01*
X176698152Y-98578449D01*
X176626644Y-98563249D01*
X176626639Y-98563249D01*
X176620187Y-98561877D01*
X176429213Y-98561877D01*
X176422761Y-98563249D01*
X176422756Y-98563249D01*
X176351248Y-98578449D01*
X176242412Y-98601583D01*
X176236382Y-98604268D01*
X176236381Y-98604268D01*
X176073978Y-98676574D01*
X176073976Y-98676575D01*
X176067948Y-98679259D01*
X176062609Y-98683138D01*
X176062602Y-98683142D01*
X176056172Y-98687814D01*
X175982113Y-98711877D01*
X170055322Y-98711877D01*
X169987201Y-98691875D01*
X169940708Y-98638219D01*
X169930604Y-98567945D01*
X169960098Y-98503365D01*
X170007108Y-98469467D01*
X170097968Y-98431835D01*
X170097970Y-98431834D01*
X170102543Y-98429940D01*
X170189080Y-98376912D01*
X170229171Y-98352345D01*
X170229173Y-98352344D01*
X170233394Y-98349757D01*
X170237156Y-98346544D01*
X170237167Y-98346536D01*
X170306418Y-98287390D01*
X170312596Y-98282440D01*
X170341694Y-98260593D01*
X170346261Y-98256120D01*
X170346492Y-98255943D01*
X170346674Y-98255715D01*
X170351242Y-98251242D01*
X170353793Y-98247988D01*
X170356537Y-98244925D01*
X170356862Y-98245216D01*
X170375309Y-98226963D01*
X170415730Y-98195946D01*
X170444214Y-98179499D01*
X170450613Y-98176848D01*
X170507822Y-98153151D01*
X170539582Y-98144640D01*
X170588783Y-98138161D01*
X170606544Y-98137090D01*
X170610076Y-98137127D01*
X170617603Y-98138118D01*
X170625146Y-98137285D01*
X170625150Y-98137285D01*
X170652528Y-98134261D01*
X170666359Y-98133500D01*
X177191800Y-98133500D01*
X177259921Y-98153502D01*
X177279147Y-98169843D01*
X177279420Y-98169540D01*
X177284332Y-98173963D01*
X177288747Y-98178866D01*
X177309283Y-98193786D01*
X177395078Y-98256120D01*
X177443248Y-98291118D01*
X177449276Y-98293802D01*
X177449278Y-98293803D01*
X177611681Y-98366109D01*
X177617712Y-98368794D01*
X177711113Y-98388647D01*
X177798056Y-98407128D01*
X177798061Y-98407128D01*
X177804513Y-98408500D01*
X177995487Y-98408500D01*
X178001939Y-98407128D01*
X178001944Y-98407128D01*
X178088887Y-98388647D01*
X178182288Y-98368794D01*
X178188319Y-98366109D01*
X178350722Y-98293803D01*
X178350724Y-98293802D01*
X178356752Y-98291118D01*
X178511253Y-98178866D01*
X178549632Y-98136242D01*
X178634621Y-98041852D01*
X178634622Y-98041851D01*
X178639040Y-98036944D01*
X178721895Y-97893435D01*
X178731223Y-97877279D01*
X178731224Y-97877278D01*
X178734527Y-97871556D01*
X178793542Y-97689928D01*
X178800178Y-97626795D01*
X178808582Y-97546833D01*
X178811262Y-97521329D01*
X178838275Y-97455673D01*
X178896497Y-97415043D01*
X178936572Y-97408500D01*
X179095487Y-97408500D01*
X179101939Y-97407128D01*
X179101944Y-97407128D01*
X179198414Y-97386622D01*
X179282288Y-97368794D01*
X179295176Y-97363056D01*
X179450722Y-97293803D01*
X179450724Y-97293802D01*
X179456752Y-97291118D01*
X179611253Y-97178866D01*
X179649447Y-97136447D01*
X179734621Y-97041852D01*
X179734622Y-97041851D01*
X179739040Y-97036944D01*
X179834527Y-96871556D01*
X179893542Y-96689928D01*
X179899999Y-96628499D01*
X179912814Y-96506565D01*
X179913504Y-96500000D01*
X179901180Y-96382745D01*
X179894232Y-96316635D01*
X179894232Y-96316633D01*
X179893542Y-96310072D01*
X179834527Y-96128444D01*
X179796743Y-96063000D01*
X179780005Y-95994005D01*
X179796743Y-95937000D01*
X179831223Y-95877279D01*
X179831224Y-95877278D01*
X179834527Y-95871556D01*
X179893542Y-95689928D01*
X179903393Y-95596206D01*
X179912814Y-95506565D01*
X179913504Y-95500000D01*
X179897055Y-95343495D01*
X179894232Y-95316635D01*
X179894232Y-95316633D01*
X179893542Y-95310072D01*
X179834527Y-95128444D01*
X179739040Y-94963056D01*
X179733766Y-94957198D01*
X179615675Y-94826045D01*
X179615674Y-94826044D01*
X179611253Y-94821134D01*
X179464753Y-94714695D01*
X179421399Y-94658472D01*
X179412814Y-94612759D01*
X179412814Y-94606565D01*
X179413504Y-94600000D01*
X179393542Y-94410072D01*
X179334527Y-94228444D01*
X179239040Y-94063056D01*
X179143940Y-93957436D01*
X179115675Y-93926045D01*
X179115674Y-93926044D01*
X179111253Y-93921134D01*
X179011697Y-93848802D01*
X178962094Y-93812763D01*
X178962093Y-93812762D01*
X178956752Y-93808882D01*
X178950724Y-93806198D01*
X178950722Y-93806197D01*
X178788319Y-93733891D01*
X178788318Y-93733891D01*
X178782288Y-93731206D01*
X178688888Y-93711353D01*
X178601944Y-93692872D01*
X178601939Y-93692872D01*
X178595487Y-93691500D01*
X178404513Y-93691500D01*
X178398061Y-93692872D01*
X178398056Y-93692872D01*
X178311112Y-93711353D01*
X178217712Y-93731206D01*
X178141413Y-93765176D01*
X178071048Y-93774610D01*
X178016107Y-93752006D01*
X177956752Y-93708882D01*
X177950724Y-93706198D01*
X177950722Y-93706197D01*
X177788319Y-93633891D01*
X177788318Y-93633891D01*
X177782288Y-93631206D01*
X177664513Y-93606172D01*
X177601943Y-93592872D01*
X177601940Y-93592872D01*
X177595487Y-93591500D01*
X177595558Y-93591165D01*
X177533285Y-93565545D01*
X177492278Y-93506183D01*
X177474726Y-93452162D01*
X177434527Y-93328444D01*
X177339040Y-93163056D01*
X177249889Y-93064043D01*
X177215675Y-93026045D01*
X177215674Y-93026044D01*
X177211253Y-93021134D01*
X177056752Y-92908882D01*
X177050724Y-92906198D01*
X177050722Y-92906197D01*
X176888319Y-92833891D01*
X176888318Y-92833891D01*
X176882288Y-92831206D01*
X176766362Y-92806565D01*
X176701944Y-92792872D01*
X176701939Y-92792872D01*
X176695487Y-92791500D01*
X176504513Y-92791500D01*
X176498061Y-92792872D01*
X176498056Y-92792872D01*
X176433638Y-92806565D01*
X176317712Y-92831206D01*
X176311682Y-92833891D01*
X176311681Y-92833891D01*
X176149278Y-92906197D01*
X176149276Y-92906198D01*
X176143248Y-92908882D01*
X176137907Y-92912762D01*
X176137906Y-92912763D01*
X176114710Y-92929616D01*
X175988747Y-93021134D01*
X175984332Y-93026037D01*
X175979420Y-93030460D01*
X175978295Y-93029211D01*
X175924986Y-93062051D01*
X175891800Y-93066500D01*
X172822812Y-93066500D01*
X172806366Y-93065422D01*
X172787008Y-93062873D01*
X172787004Y-93062873D01*
X172779477Y-93061882D01*
X172764634Y-93063521D01*
X172759903Y-93064043D01*
X172739011Y-93064606D01*
X172682956Y-93061458D01*
X172506742Y-93051562D01*
X172492706Y-93049980D01*
X172438428Y-93040758D01*
X172236971Y-93006528D01*
X172223200Y-93003385D01*
X171973937Y-92931573D01*
X171960613Y-92926910D01*
X171917090Y-92908882D01*
X171720957Y-92827641D01*
X171708234Y-92821514D01*
X171481201Y-92696037D01*
X171469248Y-92688527D01*
X171257678Y-92538409D01*
X171246643Y-92529608D01*
X171081399Y-92381938D01*
X171064597Y-92363638D01*
X171063076Y-92361612D01*
X171063069Y-92361604D01*
X171060593Y-92358306D01*
X171056120Y-92353739D01*
X171055943Y-92353508D01*
X171055715Y-92353326D01*
X171051242Y-92348758D01*
X171045361Y-92344147D01*
X171037578Y-92337517D01*
X170822310Y-92138524D01*
X170777553Y-92097151D01*
X170485631Y-91867017D01*
X170481515Y-91864267D01*
X170435986Y-91809793D01*
X170427136Y-91739350D01*
X170457774Y-91675305D01*
X170518175Y-91637991D01*
X170551514Y-91633500D01*
X171241800Y-91633500D01*
X171309921Y-91653502D01*
X171329147Y-91669843D01*
X171329420Y-91669540D01*
X171334332Y-91673963D01*
X171338747Y-91678866D01*
X171493248Y-91791118D01*
X171499276Y-91793802D01*
X171499278Y-91793803D01*
X171661681Y-91866109D01*
X171667712Y-91868794D01*
X171761113Y-91888647D01*
X171848056Y-91907128D01*
X171848061Y-91907128D01*
X171854513Y-91908500D01*
X172045487Y-91908500D01*
X172051939Y-91907128D01*
X172051944Y-91907128D01*
X172138888Y-91888647D01*
X172232288Y-91868794D01*
X172238319Y-91866109D01*
X172400722Y-91793803D01*
X172400724Y-91793802D01*
X172406752Y-91791118D01*
X172561253Y-91678866D01*
X172689040Y-91536944D01*
X172784527Y-91371556D01*
X172843542Y-91189928D01*
X172850965Y-91119307D01*
X172862814Y-91006565D01*
X172863504Y-91000000D01*
X172843542Y-90810072D01*
X172784527Y-90628444D01*
X172689040Y-90463056D01*
X172649169Y-90418774D01*
X172565675Y-90326045D01*
X172565674Y-90326044D01*
X172561253Y-90321134D01*
X172406752Y-90208882D01*
X172400724Y-90206198D01*
X172400722Y-90206197D01*
X172238319Y-90133891D01*
X172238318Y-90133891D01*
X172232288Y-90131206D01*
X172138888Y-90111353D01*
X172051944Y-90092872D01*
X172051939Y-90092872D01*
X172045487Y-90091500D01*
X171854513Y-90091500D01*
X171848061Y-90092872D01*
X171848056Y-90092872D01*
X171761113Y-90111353D01*
X171667712Y-90131206D01*
X171661682Y-90133891D01*
X171661681Y-90133891D01*
X171499278Y-90206197D01*
X171499276Y-90206198D01*
X171493248Y-90208882D01*
X171338747Y-90321134D01*
X171334332Y-90326037D01*
X171329420Y-90330460D01*
X171328295Y-90329211D01*
X171274986Y-90362051D01*
X171241800Y-90366500D01*
X170508200Y-90366500D01*
X170440079Y-90346498D01*
X170420853Y-90330157D01*
X170420580Y-90330460D01*
X170415668Y-90326037D01*
X170411253Y-90321134D01*
X170256752Y-90208882D01*
X170250724Y-90206198D01*
X170250722Y-90206197D01*
X170088319Y-90133891D01*
X170088318Y-90133891D01*
X170082288Y-90131206D01*
X169988888Y-90111353D01*
X169901944Y-90092872D01*
X169901939Y-90092872D01*
X169895487Y-90091500D01*
X169704513Y-90091500D01*
X169698061Y-90092872D01*
X169698056Y-90092872D01*
X169611113Y-90111353D01*
X169517712Y-90131206D01*
X169511682Y-90133891D01*
X169511681Y-90133891D01*
X169349278Y-90206197D01*
X169349276Y-90206198D01*
X169343248Y-90208882D01*
X169188747Y-90321134D01*
X169184326Y-90326044D01*
X169184325Y-90326045D01*
X169100832Y-90418774D01*
X169060960Y-90463056D01*
X168965473Y-90628444D01*
X168906458Y-90810072D01*
X168905769Y-90816631D01*
X168905768Y-90816634D01*
X168889684Y-90969666D01*
X168862671Y-91035322D01*
X168804449Y-91075952D01*
X168739793Y-91080074D01*
X168443540Y-91021143D01*
X168258966Y-90999296D01*
X168076861Y-90977740D01*
X168076852Y-90977739D01*
X168074391Y-90977448D01*
X167736212Y-90964157D01*
X167723420Y-90962998D01*
X167716315Y-90961987D01*
X167709315Y-90961914D01*
X167707077Y-90961890D01*
X167707074Y-90961890D01*
X167702951Y-90961847D01*
X167698861Y-90962342D01*
X167698859Y-90962342D01*
X167672034Y-90965588D01*
X167656898Y-90966500D01*
X159108200Y-90966500D01*
X159040079Y-90946498D01*
X159020853Y-90930157D01*
X159020580Y-90930460D01*
X159015668Y-90926037D01*
X159011253Y-90921134D01*
X158856752Y-90808882D01*
X158850724Y-90806198D01*
X158850722Y-90806197D01*
X158688319Y-90733891D01*
X158688318Y-90733891D01*
X158682288Y-90731206D01*
X158588887Y-90711353D01*
X158501944Y-90692872D01*
X158501939Y-90692872D01*
X158495487Y-90691500D01*
X158304513Y-90691500D01*
X158298061Y-90692872D01*
X158298056Y-90692872D01*
X158211113Y-90711353D01*
X158117712Y-90731206D01*
X158111682Y-90733891D01*
X158111681Y-90733891D01*
X157949278Y-90806197D01*
X157949276Y-90806198D01*
X157943248Y-90808882D01*
X157788747Y-90921134D01*
X157784326Y-90926044D01*
X157784325Y-90926045D01*
X157698699Y-91021143D01*
X157660960Y-91063056D01*
X157565473Y-91228444D01*
X157506458Y-91410072D01*
X157505768Y-91416633D01*
X157505768Y-91416635D01*
X157487186Y-91593435D01*
X157486496Y-91600000D01*
X157506458Y-91789928D01*
X157565473Y-91971556D01*
X157568776Y-91977278D01*
X157568777Y-91977279D01*
X157660960Y-92136944D01*
X157658223Y-92138524D01*
X157677649Y-92192347D01*
X157661822Y-92261557D01*
X157660886Y-92263013D01*
X157660960Y-92263056D01*
X157583891Y-92396544D01*
X157565473Y-92428444D01*
X157506458Y-92610072D01*
X157486496Y-92800000D01*
X157487186Y-92806565D01*
X157499835Y-92926910D01*
X157506458Y-92989928D01*
X157565473Y-93171556D01*
X157660960Y-93336944D01*
X157665378Y-93341851D01*
X157665379Y-93341852D01*
X157686843Y-93365690D01*
X157717561Y-93429697D01*
X157708796Y-93500151D01*
X157686843Y-93534310D01*
X157660960Y-93563056D01*
X157620220Y-93633620D01*
X157586011Y-93692872D01*
X157565473Y-93728444D01*
X157506458Y-93910072D01*
X157505768Y-93916633D01*
X157505768Y-93916635D01*
X157490895Y-94058148D01*
X157486496Y-94100000D01*
X157506458Y-94289928D01*
X157565473Y-94471556D01*
X157660960Y-94636944D01*
X157665378Y-94641851D01*
X157665379Y-94641852D01*
X157686843Y-94665690D01*
X157717561Y-94729697D01*
X157708796Y-94800151D01*
X157686843Y-94834310D01*
X157660960Y-94863056D01*
X157565473Y-95028444D01*
X157506458Y-95210072D01*
X157505768Y-95216633D01*
X157505768Y-95216635D01*
X157495948Y-95310072D01*
X157486496Y-95400000D01*
X157487186Y-95406565D01*
X157496761Y-95497662D01*
X157506458Y-95589928D01*
X157565473Y-95771556D01*
X157660960Y-95936944D01*
X157665378Y-95941851D01*
X157665379Y-95941852D01*
X157686843Y-95965690D01*
X157717561Y-96029697D01*
X157708796Y-96100151D01*
X157686843Y-96134310D01*
X157660960Y-96163056D01*
X157652964Y-96176906D01*
X157581066Y-96301437D01*
X157565473Y-96328444D01*
X157506458Y-96510072D01*
X157486496Y-96700000D01*
X157487186Y-96706565D01*
X157505129Y-96877279D01*
X157506458Y-96889928D01*
X157565473Y-97071556D01*
X157568776Y-97077278D01*
X157568777Y-97077279D01*
X157660960Y-97236944D01*
X157658223Y-97238524D01*
X157677649Y-97292347D01*
X157661822Y-97361557D01*
X157660886Y-97363013D01*
X157660960Y-97363056D01*
X157565473Y-97528444D01*
X157506458Y-97710072D01*
X157505768Y-97716633D01*
X157505768Y-97716635D01*
X157496842Y-97801564D01*
X157486496Y-97900000D01*
X154832568Y-97900000D01*
X154876072Y-97689928D01*
X154986679Y-97155831D01*
X154986683Y-97155809D01*
X154986876Y-97154878D01*
X154991490Y-97128444D01*
X155134318Y-96310072D01*
X155193108Y-95973219D01*
X155298608Y-95231936D01*
X155361982Y-94786651D01*
X155361986Y-94786622D01*
X155362122Y-94785664D01*
X155366060Y-94750000D01*
X155478687Y-93729834D01*
X155493751Y-93593387D01*
X155498401Y-93534310D01*
X155535367Y-93064606D01*
X155587865Y-92397563D01*
X155644370Y-91199373D01*
X155644519Y-91189928D01*
X155662847Y-90023143D01*
X155662898Y-90022043D01*
X155663001Y-90021313D01*
X155663299Y-90000000D01*
X155659285Y-89964213D01*
X155658500Y-89950169D01*
X155658500Y-88362151D01*
X155659726Y-88344615D01*
X155662452Y-88325221D01*
X155662452Y-88325218D01*
X155663001Y-88321313D01*
X155663299Y-88300000D01*
X155662857Y-88296059D01*
X155662754Y-88293961D01*
X155662365Y-88288875D01*
X155648723Y-87959055D01*
X155645533Y-87881915D01*
X155593775Y-87466686D01*
X155507904Y-87057150D01*
X155388507Y-86656103D01*
X155380719Y-86636142D01*
X155237350Y-86268720D01*
X155237348Y-86268715D01*
X155236400Y-86266286D01*
X155177143Y-86145073D01*
X155053770Y-85892709D01*
X155053764Y-85892697D01*
X155052622Y-85890362D01*
X155048086Y-85882749D01*
X154839763Y-85533138D01*
X154839756Y-85533127D01*
X154838427Y-85530897D01*
X154595280Y-85190349D01*
X154405210Y-84965933D01*
X154376447Y-84901025D01*
X154387343Y-84830869D01*
X154434437Y-84777741D01*
X154501359Y-84758500D01*
X159871223Y-84758500D01*
X159887016Y-84759494D01*
X159916549Y-84763225D01*
X159926521Y-84762247D01*
X159941427Y-84760786D01*
X159960787Y-84760383D01*
X160108689Y-84768689D01*
X160179262Y-84772652D01*
X160193298Y-84774234D01*
X160213940Y-84777741D01*
X160435214Y-84815338D01*
X160448985Y-84818481D01*
X160684778Y-84886412D01*
X160698101Y-84891075D01*
X160924808Y-84984980D01*
X160937530Y-84991107D01*
X161004430Y-85028081D01*
X161152295Y-85109804D01*
X161164248Y-85117314D01*
X161196644Y-85140301D01*
X161240624Y-85196031D01*
X161243560Y-85204117D01*
X161265473Y-85271556D01*
X161360960Y-85436944D01*
X161365378Y-85441851D01*
X161365379Y-85441852D01*
X161447573Y-85533138D01*
X161488747Y-85578866D01*
X161643248Y-85691118D01*
X161649276Y-85693802D01*
X161649278Y-85693803D01*
X161733332Y-85731226D01*
X161817712Y-85768794D01*
X161911112Y-85788647D01*
X161998056Y-85807128D01*
X161998061Y-85807128D01*
X162004513Y-85808500D01*
X162195487Y-85808500D01*
X162201939Y-85807128D01*
X162201944Y-85807128D01*
X162288888Y-85788647D01*
X162382288Y-85768794D01*
X162466668Y-85731226D01*
X162550722Y-85693803D01*
X162550724Y-85693802D01*
X162556752Y-85691118D01*
X162711253Y-85578866D01*
X162752427Y-85533138D01*
X162834621Y-85441852D01*
X162834622Y-85441851D01*
X162839040Y-85436944D01*
X162934527Y-85271556D01*
X162993542Y-85089928D01*
X163000262Y-85025996D01*
X163012814Y-84906565D01*
X163013504Y-84900000D01*
X162998761Y-84759728D01*
X162994232Y-84716635D01*
X162994232Y-84716633D01*
X162993542Y-84710072D01*
X162934527Y-84528444D01*
X162839040Y-84363056D01*
X162711253Y-84221134D01*
X162556752Y-84108882D01*
X162550724Y-84106198D01*
X162550722Y-84106197D01*
X162388319Y-84033891D01*
X162388318Y-84033891D01*
X162382288Y-84031206D01*
X162236773Y-84000276D01*
X162186267Y-83976991D01*
X162129029Y-83933071D01*
X162129019Y-83933064D01*
X162126840Y-83931392D01*
X161844679Y-83751635D01*
X161620106Y-83634729D01*
X161550367Y-83598425D01*
X161550363Y-83598423D01*
X161547925Y-83597154D01*
X161238836Y-83469125D01*
X161236216Y-83468299D01*
X161236208Y-83468296D01*
X160922389Y-83369349D01*
X160922382Y-83369347D01*
X160919765Y-83368522D01*
X160593140Y-83296110D01*
X160320508Y-83260217D01*
X160264182Y-83252801D01*
X160264180Y-83252801D01*
X160261447Y-83252441D01*
X159972929Y-83239843D01*
X159960891Y-83238737D01*
X159959190Y-83238498D01*
X159948523Y-83236999D01*
X159939958Y-83236879D01*
X159931171Y-83236756D01*
X159931165Y-83236756D01*
X159927210Y-83236701D01*
X159891424Y-83240715D01*
X159877379Y-83241500D01*
X150707156Y-83241500D01*
X150701949Y-83241392D01*
X150638173Y-83238754D01*
X150625847Y-83237636D01*
X150625348Y-83237566D01*
X150621313Y-83236999D01*
X150611483Y-83236862D01*
X150603961Y-83236756D01*
X150603955Y-83236756D01*
X150600000Y-83236701D01*
X150564214Y-83240715D01*
X150550169Y-83241500D01*
X145742587Y-83241500D01*
X145668528Y-83217437D01*
X145662098Y-83212765D01*
X145662091Y-83212761D01*
X145656752Y-83208882D01*
X145650724Y-83206198D01*
X145650722Y-83206197D01*
X145488319Y-83133891D01*
X145488318Y-83133891D01*
X145482288Y-83131206D01*
X145388888Y-83111353D01*
X145301944Y-83092872D01*
X145301939Y-83092872D01*
X145295487Y-83091500D01*
X145104513Y-83091500D01*
X145098061Y-83092872D01*
X145098056Y-83092872D01*
X145011112Y-83111353D01*
X144917712Y-83131206D01*
X144911682Y-83133891D01*
X144911681Y-83133891D01*
X144749278Y-83206197D01*
X144749276Y-83206198D01*
X144743248Y-83208882D01*
X144737907Y-83212762D01*
X144737906Y-83212763D01*
X144704883Y-83236756D01*
X144588747Y-83321134D01*
X144460960Y-83463056D01*
X144457659Y-83468774D01*
X144382805Y-83598425D01*
X144365473Y-83628444D01*
X144306458Y-83810072D01*
X144286496Y-84000000D01*
X144306458Y-84189928D01*
X144365473Y-84371556D01*
X144460960Y-84536944D01*
X144588747Y-84678866D01*
X144687843Y-84750864D01*
X144737904Y-84787235D01*
X144743248Y-84791118D01*
X144749276Y-84793802D01*
X144749278Y-84793803D01*
X144841200Y-84834729D01*
X144917712Y-84868794D01*
X145000579Y-84886408D01*
X145098056Y-84907128D01*
X145098061Y-84907128D01*
X145104513Y-84908500D01*
X145295487Y-84908500D01*
X145301939Y-84907128D01*
X145301944Y-84907128D01*
X145399421Y-84886408D01*
X145482288Y-84868794D01*
X145558800Y-84834729D01*
X145650722Y-84793803D01*
X145650724Y-84793802D01*
X145656752Y-84791118D01*
X145662091Y-84787239D01*
X145662098Y-84787235D01*
X145668528Y-84782563D01*
X145742587Y-84758500D01*
X150544017Y-84758500D01*
X150559810Y-84759494D01*
X150589343Y-84763225D01*
X150596351Y-84762538D01*
X150596364Y-84762538D01*
X150615785Y-84760633D01*
X150634264Y-84760183D01*
X150711681Y-84763986D01*
X150940950Y-84775249D01*
X150953246Y-84776460D01*
X151284788Y-84825641D01*
X151296910Y-84828051D01*
X151391058Y-84851634D01*
X151622037Y-84909492D01*
X151633869Y-84913081D01*
X151949445Y-85025996D01*
X151960869Y-85030728D01*
X152092969Y-85093206D01*
X152263862Y-85174032D01*
X152274763Y-85179859D01*
X152562246Y-85352170D01*
X152572527Y-85359040D01*
X152841732Y-85558696D01*
X152851290Y-85566540D01*
X153099632Y-85791624D01*
X153108376Y-85800368D01*
X153333460Y-86048710D01*
X153341304Y-86058268D01*
X153540960Y-86327473D01*
X153547830Y-86337754D01*
X153720141Y-86625237D01*
X153725970Y-86636142D01*
X153869272Y-86939131D01*
X153874004Y-86950555D01*
X153986919Y-87266131D01*
X153990508Y-87277963D01*
X154071948Y-87603087D01*
X154074359Y-87615212D01*
X154114311Y-87884537D01*
X154123539Y-87946749D01*
X154124751Y-87959055D01*
X154139258Y-88254369D01*
X154138417Y-88276340D01*
X154137658Y-88282351D01*
X154136775Y-88289343D01*
X154137462Y-88296350D01*
X154137462Y-88296353D01*
X154140899Y-88331402D01*
X154141500Y-88343698D01*
X154141500Y-89944017D01*
X154140506Y-89959809D01*
X154136775Y-89989343D01*
X154137463Y-89996357D01*
X154140294Y-90025236D01*
X154140879Y-90039510D01*
X154123441Y-91149586D01*
X154123317Y-91153542D01*
X154069250Y-92300018D01*
X154069002Y-92303969D01*
X153978948Y-93448222D01*
X153978575Y-93452162D01*
X153935964Y-93838132D01*
X153862899Y-94499949D01*
X153852629Y-94592972D01*
X153852137Y-94596867D01*
X153775738Y-95133675D01*
X153690411Y-95733207D01*
X153689792Y-95737116D01*
X153608426Y-96203323D01*
X153577010Y-96266990D01*
X153516159Y-96303566D01*
X153445195Y-96301437D01*
X153386646Y-96261280D01*
X153364469Y-96220596D01*
X153336569Y-96134729D01*
X153334527Y-96128444D01*
X153239040Y-95963056D01*
X153176612Y-95893722D01*
X153115675Y-95826045D01*
X153115674Y-95826044D01*
X153111253Y-95821134D01*
X152956752Y-95708882D01*
X152950724Y-95706198D01*
X152950722Y-95706197D01*
X152788319Y-95633891D01*
X152788318Y-95633891D01*
X152782288Y-95631206D01*
X152688887Y-95611353D01*
X152601944Y-95592872D01*
X152601939Y-95592872D01*
X152595487Y-95591500D01*
X152404513Y-95591500D01*
X152398061Y-95592872D01*
X152398056Y-95592872D01*
X152311112Y-95611353D01*
X152217712Y-95631206D01*
X152211682Y-95633891D01*
X152211681Y-95633891D01*
X152049278Y-95706197D01*
X152049276Y-95706198D01*
X152043248Y-95708882D01*
X151888747Y-95821134D01*
X151884326Y-95826044D01*
X151884325Y-95826045D01*
X151823389Y-95893722D01*
X151760960Y-95963056D01*
X151665473Y-96128444D01*
X151606458Y-96310072D01*
X151605768Y-96316633D01*
X151605768Y-96316635D01*
X151589093Y-96475292D01*
X151562080Y-96540949D01*
X151552878Y-96551218D01*
X151002293Y-97101802D01*
X150939981Y-97135827D01*
X150869165Y-97130762D01*
X150812330Y-97088215D01*
X150804079Y-97075706D01*
X150742342Y-96968774D01*
X150742339Y-96968769D01*
X150739040Y-96963056D01*
X150611253Y-96821134D01*
X150512157Y-96749136D01*
X150462094Y-96712763D01*
X150462093Y-96712762D01*
X150456752Y-96708882D01*
X150450724Y-96706198D01*
X150450722Y-96706197D01*
X150288319Y-96633891D01*
X150288318Y-96633891D01*
X150282288Y-96631206D01*
X150188888Y-96611353D01*
X150101944Y-96592872D01*
X150101939Y-96592872D01*
X150095487Y-96591500D01*
X149904513Y-96591500D01*
X149898061Y-96592872D01*
X149898056Y-96592872D01*
X149811112Y-96611353D01*
X149717712Y-96631206D01*
X149711682Y-96633891D01*
X149711681Y-96633891D01*
X149549278Y-96706197D01*
X149549276Y-96706198D01*
X149543248Y-96708882D01*
X149537907Y-96712762D01*
X149537906Y-96712763D01*
X149487843Y-96749136D01*
X149388747Y-96821134D01*
X149260960Y-96963056D01*
X149165473Y-97128444D01*
X149106458Y-97310072D01*
X149089450Y-97471901D01*
X149089093Y-97475293D01*
X149062080Y-97540950D01*
X149052878Y-97551218D01*
X148077368Y-98526728D01*
X148064977Y-98537596D01*
X148049481Y-98549486D01*
X148049479Y-98549488D01*
X148043458Y-98554108D01*
X148038710Y-98560035D01*
X148030234Y-98570614D01*
X148016516Y-98585193D01*
X147846883Y-98738939D01*
X147837325Y-98746783D01*
X147630793Y-98899958D01*
X147620512Y-98906828D01*
X147399954Y-99039026D01*
X147389049Y-99044855D01*
X147156598Y-99154796D01*
X147145174Y-99159528D01*
X146903064Y-99246156D01*
X146891232Y-99249745D01*
X146742456Y-99287012D01*
X146641794Y-99312227D01*
X146629672Y-99314637D01*
X146375312Y-99352367D01*
X146363018Y-99353578D01*
X146141769Y-99364448D01*
X146119140Y-99363522D01*
X146117056Y-99363248D01*
X146114212Y-99362873D01*
X146114210Y-99362873D01*
X146106683Y-99361882D01*
X146071747Y-99365739D01*
X146057920Y-99366500D01*
X146015347Y-99366500D01*
X145947226Y-99346498D01*
X145900733Y-99292842D01*
X145890629Y-99222568D01*
X145921709Y-99156192D01*
X145939040Y-99136944D01*
X146034527Y-98971556D01*
X146093542Y-98789928D01*
X146096046Y-98766109D01*
X146112814Y-98606565D01*
X146113504Y-98600000D01*
X146106515Y-98533500D01*
X146094232Y-98416635D01*
X146094232Y-98416633D01*
X146093542Y-98410072D01*
X146034527Y-98228444D01*
X146024223Y-98210596D01*
X145958179Y-98096206D01*
X145939040Y-98063056D01*
X145881757Y-97999436D01*
X145815675Y-97926045D01*
X145815674Y-97926044D01*
X145811253Y-97921134D01*
X145656752Y-97808882D01*
X145650724Y-97806198D01*
X145650722Y-97806197D01*
X145488319Y-97733891D01*
X145488318Y-97733891D01*
X145482288Y-97731206D01*
X145382861Y-97710072D01*
X145301944Y-97692872D01*
X145301939Y-97692872D01*
X145295487Y-97691500D01*
X145104513Y-97691500D01*
X145098061Y-97692872D01*
X145098056Y-97692872D01*
X145017139Y-97710072D01*
X144917712Y-97731206D01*
X144911682Y-97733891D01*
X144911681Y-97733891D01*
X144749278Y-97806197D01*
X144749276Y-97806198D01*
X144743248Y-97808882D01*
X144737907Y-97812762D01*
X144737906Y-97812763D01*
X144656985Y-97871556D01*
X144588747Y-97921134D01*
X144584332Y-97926037D01*
X144579420Y-97930460D01*
X144578295Y-97929211D01*
X144524986Y-97962051D01*
X144491800Y-97966500D01*
X140108200Y-97966500D01*
X140040079Y-97946498D01*
X140020853Y-97930157D01*
X140020580Y-97930460D01*
X140015668Y-97926037D01*
X140011253Y-97921134D01*
X139943015Y-97871556D01*
X139862094Y-97812763D01*
X139862093Y-97812762D01*
X139856752Y-97808882D01*
X139850724Y-97806198D01*
X139850722Y-97806197D01*
X139688319Y-97733891D01*
X139688318Y-97733891D01*
X139682288Y-97731206D01*
X139582861Y-97710072D01*
X139501944Y-97692872D01*
X139501939Y-97692872D01*
X139495487Y-97691500D01*
X139304513Y-97691500D01*
X139298061Y-97692872D01*
X139298056Y-97692872D01*
X139217139Y-97710072D01*
X139117712Y-97731206D01*
X139111682Y-97733891D01*
X139111681Y-97733891D01*
X138949278Y-97806197D01*
X138949276Y-97806198D01*
X138943248Y-97808882D01*
X138937907Y-97812762D01*
X138937906Y-97812763D01*
X138856985Y-97871556D01*
X138788747Y-97921134D01*
X138784332Y-97926037D01*
X138779420Y-97930460D01*
X138778295Y-97929211D01*
X138724986Y-97962051D01*
X138691800Y-97966500D01*
X136777102Y-97966500D01*
X136708981Y-97946498D01*
X136662488Y-97892842D01*
X136652384Y-97822568D01*
X136657269Y-97801564D01*
X136691502Y-97696206D01*
X136693542Y-97689928D01*
X136700178Y-97626795D01*
X136712814Y-97506565D01*
X136713504Y-97500000D01*
X136693542Y-97310072D01*
X136634527Y-97128444D01*
X136539040Y-96963056D01*
X136411253Y-96821134D01*
X136312157Y-96749136D01*
X136262094Y-96712763D01*
X136262093Y-96712762D01*
X136256752Y-96708882D01*
X136250724Y-96706198D01*
X136250722Y-96706197D01*
X136088319Y-96633891D01*
X136088318Y-96633891D01*
X136082288Y-96631206D01*
X135988888Y-96611353D01*
X135901944Y-96592872D01*
X135901939Y-96592872D01*
X135895487Y-96591500D01*
X135704513Y-96591500D01*
X135698061Y-96592872D01*
X135698056Y-96592872D01*
X135611112Y-96611353D01*
X135517712Y-96631206D01*
X135511682Y-96633891D01*
X135511681Y-96633891D01*
X135349278Y-96706197D01*
X135349276Y-96706198D01*
X135343248Y-96708882D01*
X135337907Y-96712762D01*
X135337906Y-96712763D01*
X135210329Y-96805454D01*
X135188747Y-96821134D01*
X135184332Y-96826037D01*
X135179420Y-96830460D01*
X135178295Y-96829211D01*
X135124986Y-96862051D01*
X135091800Y-96866500D01*
X132208200Y-96866500D01*
X132140079Y-96846498D01*
X132120853Y-96830157D01*
X132120580Y-96830460D01*
X132115668Y-96826037D01*
X132111253Y-96821134D01*
X131977198Y-96723737D01*
X131933845Y-96667516D01*
X131927770Y-96596780D01*
X131960901Y-96533988D01*
X131995531Y-96508796D01*
X132005674Y-96503794D01*
X132040050Y-96486842D01*
X132055274Y-96480536D01*
X132283217Y-96403160D01*
X132299127Y-96398897D01*
X132445191Y-96369843D01*
X132535222Y-96351935D01*
X132551562Y-96349784D01*
X132759734Y-96336139D01*
X132784422Y-96336947D01*
X132785786Y-96337127D01*
X132785791Y-96337127D01*
X132793317Y-96338118D01*
X132828253Y-96334261D01*
X132842080Y-96333500D01*
X136291800Y-96333500D01*
X136359921Y-96353502D01*
X136379147Y-96369843D01*
X136379420Y-96369540D01*
X136384332Y-96373963D01*
X136388747Y-96378866D01*
X136543248Y-96491118D01*
X136549276Y-96493802D01*
X136549278Y-96493803D01*
X136678235Y-96551218D01*
X136717712Y-96568794D01*
X136811112Y-96588647D01*
X136898056Y-96607128D01*
X136898061Y-96607128D01*
X136904513Y-96608500D01*
X137095487Y-96608500D01*
X137101939Y-96607128D01*
X137101944Y-96607128D01*
X137188888Y-96588647D01*
X137282288Y-96568794D01*
X137321765Y-96551218D01*
X137450722Y-96493803D01*
X137450724Y-96493802D01*
X137456752Y-96491118D01*
X137581467Y-96400507D01*
X137605909Y-96382749D01*
X137605911Y-96382747D01*
X137611253Y-96378866D01*
X137672824Y-96310484D01*
X137733270Y-96273244D01*
X137749054Y-96270002D01*
X137775852Y-96266264D01*
X137778734Y-96265862D01*
X137781570Y-96265195D01*
X138156951Y-96176906D01*
X138156956Y-96176904D01*
X138159790Y-96176238D01*
X138530950Y-96051838D01*
X138889049Y-95893722D01*
X138940129Y-95865271D01*
X139228478Y-95704661D01*
X139231031Y-95703239D01*
X139553979Y-95482015D01*
X139556205Y-95480167D01*
X139556215Y-95480159D01*
X139852901Y-95233793D01*
X139852904Y-95233790D01*
X139855137Y-95231936D01*
X140131936Y-94955137D01*
X140158608Y-94923017D01*
X140380159Y-94656215D01*
X140380167Y-94656205D01*
X140382015Y-94653979D01*
X140603239Y-94331031D01*
X140743149Y-94079845D01*
X140792298Y-93991606D01*
X140792300Y-93991602D01*
X140793722Y-93989049D01*
X140951838Y-93630950D01*
X141076238Y-93259790D01*
X141125307Y-93051165D01*
X141165195Y-92881570D01*
X141165195Y-92881569D01*
X141165862Y-92878734D01*
X141188455Y-92716770D01*
X141219543Y-92493906D01*
X141219544Y-92493896D01*
X141219943Y-92491035D01*
X141223102Y-92422721D01*
X141236834Y-92125688D01*
X141237223Y-92121569D01*
X141237118Y-92121561D01*
X141237430Y-92117458D01*
X141238013Y-92113364D01*
X141238153Y-92100000D01*
X141237624Y-92095624D01*
X141234413Y-92069096D01*
X141233500Y-92053958D01*
X141233500Y-86227748D01*
X141253502Y-86159627D01*
X141307158Y-86113134D01*
X141377432Y-86103030D01*
X141385694Y-86104501D01*
X141398049Y-86107127D01*
X141398058Y-86107128D01*
X141404513Y-86108500D01*
X141595487Y-86108500D01*
X141601939Y-86107128D01*
X141601944Y-86107128D01*
X141700696Y-86086137D01*
X141782288Y-86068794D01*
X141805930Y-86058268D01*
X141950722Y-85993803D01*
X141950724Y-85993802D01*
X141956752Y-85991118D01*
X142111253Y-85878866D01*
X142239040Y-85736944D01*
X142334527Y-85571556D01*
X142393542Y-85389928D01*
X142396789Y-85359040D01*
X142412814Y-85206565D01*
X142413504Y-85200000D01*
X142393542Y-85010072D01*
X142334527Y-84828444D01*
X142328776Y-84818482D01*
X142248168Y-84678866D01*
X142239040Y-84663056D01*
X142111253Y-84521134D01*
X141956752Y-84408882D01*
X141950724Y-84406198D01*
X141950722Y-84406197D01*
X141788319Y-84333891D01*
X141788318Y-84333891D01*
X141782288Y-84331206D01*
X141688887Y-84311353D01*
X141601944Y-84292872D01*
X141601939Y-84292872D01*
X141595487Y-84291500D01*
X141404513Y-84291500D01*
X141398061Y-84292872D01*
X141398056Y-84292872D01*
X141311113Y-84311353D01*
X141217712Y-84331206D01*
X141211682Y-84333891D01*
X141211681Y-84333891D01*
X141049278Y-84406197D01*
X141049276Y-84406198D01*
X141043248Y-84408882D01*
X140888747Y-84521134D01*
X140760960Y-84663056D01*
X140751832Y-84678866D01*
X140698023Y-84772066D01*
X140664413Y-84809934D01*
X140496809Y-84935400D01*
X140496802Y-84935406D01*
X140493206Y-84938098D01*
X140338098Y-85093206D01*
X140206643Y-85268810D01*
X140101516Y-85461334D01*
X140024859Y-85666860D01*
X140023904Y-85671250D01*
X140023902Y-85671257D01*
X139996814Y-85795781D01*
X139978232Y-85881203D01*
X139977911Y-85885693D01*
X139969602Y-86001860D01*
X139968930Y-86008661D01*
X139968472Y-86012290D01*
X139966500Y-86019970D01*
X139966500Y-86040729D01*
X139966179Y-86049718D01*
X139965568Y-86058268D01*
X139964730Y-86069978D01*
X139963974Y-86077427D01*
X139961882Y-86093317D01*
X139962597Y-86099798D01*
X139962583Y-86100000D01*
X139962620Y-86100000D01*
X139963361Y-86106712D01*
X139965739Y-86128252D01*
X139966500Y-86142078D01*
X139966500Y-92049982D01*
X139965422Y-92066428D01*
X139961882Y-92093317D01*
X139964127Y-92113654D01*
X139964715Y-92134063D01*
X139952683Y-92363638D01*
X139950595Y-92403484D01*
X139949217Y-92416600D01*
X139902708Y-92710248D01*
X139899966Y-92723148D01*
X139844118Y-92931577D01*
X139823017Y-93010325D01*
X139818941Y-93022868D01*
X139712401Y-93300414D01*
X139707037Y-93312463D01*
X139572061Y-93577367D01*
X139565467Y-93588788D01*
X139403542Y-93838132D01*
X139395789Y-93848802D01*
X139208694Y-94079845D01*
X139199869Y-94089646D01*
X138989646Y-94299869D01*
X138979845Y-94308694D01*
X138748802Y-94495789D01*
X138738132Y-94503542D01*
X138488788Y-94665467D01*
X138477367Y-94672061D01*
X138212463Y-94807037D01*
X138200414Y-94812401D01*
X137922868Y-94918941D01*
X137910325Y-94923017D01*
X137651223Y-94992443D01*
X137580247Y-94990753D01*
X137544551Y-94972672D01*
X137462094Y-94912763D01*
X137462093Y-94912762D01*
X137456752Y-94908882D01*
X137450724Y-94906198D01*
X137450722Y-94906197D01*
X137288319Y-94833891D01*
X137288318Y-94833891D01*
X137282288Y-94831206D01*
X137188887Y-94811353D01*
X137101944Y-94792872D01*
X137101939Y-94792872D01*
X137095487Y-94791500D01*
X136904513Y-94791500D01*
X136898061Y-94792872D01*
X136898056Y-94792872D01*
X136811113Y-94811353D01*
X136717712Y-94831206D01*
X136711682Y-94833891D01*
X136711681Y-94833891D01*
X136549278Y-94906197D01*
X136549276Y-94906198D01*
X136543248Y-94908882D01*
X136537907Y-94912762D01*
X136537906Y-94912763D01*
X136451148Y-94975797D01*
X136388747Y-95021134D01*
X136384332Y-95026037D01*
X136379420Y-95030460D01*
X136378295Y-95029211D01*
X136324986Y-95062051D01*
X136291800Y-95066500D01*
X132853995Y-95066500D01*
X132836241Y-95065243D01*
X132813364Y-95061987D01*
X132806541Y-95061916D01*
X132804122Y-95061890D01*
X132804119Y-95061890D01*
X132800000Y-95061847D01*
X132796952Y-95062216D01*
X132796850Y-95062192D01*
X132796852Y-95062228D01*
X132461543Y-95079801D01*
X132458303Y-95080314D01*
X132458295Y-95080315D01*
X132304624Y-95104655D01*
X132126795Y-95132820D01*
X131799422Y-95220539D01*
X131796334Y-95221724D01*
X131796332Y-95221725D01*
X131764894Y-95233793D01*
X131483012Y-95341997D01*
X131480072Y-95343495D01*
X131183973Y-95494365D01*
X131183966Y-95494369D01*
X131181032Y-95495864D01*
X130896788Y-95680454D01*
X130633397Y-95893744D01*
X130528055Y-95999086D01*
X130465743Y-96033112D01*
X130394928Y-96028047D01*
X130338092Y-95985500D01*
X130313281Y-95918980D01*
X130328372Y-95849606D01*
X130332508Y-95842581D01*
X130425199Y-95696206D01*
X130503320Y-95572840D01*
X130506751Y-95567705D01*
X130620239Y-95406565D01*
X130921840Y-94978323D01*
X130925524Y-94973356D01*
X131369033Y-94405051D01*
X131372957Y-94400270D01*
X131843814Y-93854415D01*
X131847967Y-93849833D01*
X132228639Y-93450000D01*
X132312848Y-93361552D01*
X132326876Y-93348875D01*
X132337424Y-93340693D01*
X132342986Y-93336379D01*
X132367460Y-93306584D01*
X132369817Y-93303715D01*
X132378087Y-93294595D01*
X133806332Y-91866350D01*
X133869229Y-91832199D01*
X133925824Y-91820169D01*
X133925833Y-91820166D01*
X133932288Y-91818794D01*
X133994450Y-91791118D01*
X134100722Y-91743803D01*
X134100724Y-91743802D01*
X134106752Y-91741118D01*
X134261253Y-91628866D01*
X134344020Y-91536944D01*
X134384621Y-91491852D01*
X134384622Y-91491851D01*
X134389040Y-91486944D01*
X134484527Y-91321556D01*
X134543542Y-91139928D01*
X134545710Y-91119307D01*
X134562814Y-90956565D01*
X134563504Y-90950000D01*
X134543542Y-90760072D01*
X134484527Y-90578444D01*
X134389040Y-90413056D01*
X134314398Y-90330157D01*
X134265675Y-90276045D01*
X134265674Y-90276044D01*
X134261253Y-90271134D01*
X134106752Y-90158882D01*
X134100724Y-90156198D01*
X134100722Y-90156197D01*
X133938319Y-90083891D01*
X133938318Y-90083891D01*
X133932288Y-90081206D01*
X133838887Y-90061353D01*
X133751944Y-90042872D01*
X133751939Y-90042872D01*
X133745487Y-90041500D01*
X133554513Y-90041500D01*
X133548061Y-90042872D01*
X133548056Y-90042872D01*
X133461113Y-90061353D01*
X133367712Y-90081206D01*
X133361682Y-90083891D01*
X133361681Y-90083891D01*
X133199278Y-90156197D01*
X133199276Y-90156198D01*
X133193248Y-90158882D01*
X133038747Y-90271134D01*
X133034326Y-90276044D01*
X133034325Y-90276045D01*
X132985603Y-90330157D01*
X132910960Y-90413056D01*
X132815473Y-90578444D01*
X132801087Y-90622721D01*
X132760613Y-90747285D01*
X132729875Y-90797444D01*
X131318448Y-92208872D01*
X131305183Y-92220404D01*
X131289549Y-92232185D01*
X131289545Y-92232189D01*
X131286386Y-92234569D01*
X131271105Y-92249429D01*
X131268633Y-92252526D01*
X131267590Y-92253676D01*
X131265394Y-92256037D01*
X130750305Y-92795491D01*
X130749363Y-92796574D01*
X130749348Y-92796590D01*
X130255919Y-93363628D01*
X130255902Y-93363648D01*
X130254960Y-93364731D01*
X130074502Y-93592557D01*
X129827976Y-93903794D01*
X129786433Y-93956241D01*
X129785577Y-93957431D01*
X129785573Y-93957436D01*
X129678274Y-94106565D01*
X129345724Y-94568757D01*
X128933773Y-95200974D01*
X128873350Y-95303794D01*
X128552193Y-95850291D01*
X128552183Y-95850310D01*
X128551459Y-95851541D01*
X128550782Y-95852826D01*
X128550780Y-95852829D01*
X128455751Y-96033112D01*
X128199599Y-96519070D01*
X128198993Y-96520361D01*
X128198985Y-96520377D01*
X128031443Y-96877279D01*
X127878943Y-97202137D01*
X127778178Y-97445405D01*
X127626014Y-97812763D01*
X127590175Y-97899285D01*
X127589688Y-97900635D01*
X127589686Y-97900639D01*
X127334587Y-98607158D01*
X127333913Y-98609024D01*
X127110702Y-99329842D01*
X127110332Y-99331265D01*
X127110331Y-99331270D01*
X126921379Y-100058807D01*
X126921374Y-100058828D01*
X126921018Y-100060199D01*
X126765268Y-100798537D01*
X126724336Y-101049465D01*
X126651878Y-101493658D01*
X126643783Y-101543280D01*
X126643617Y-101544711D01*
X126643616Y-101544718D01*
X126632877Y-101637284D01*
X126556822Y-102292839D01*
X126504571Y-103045615D01*
X126504538Y-103047060D01*
X126502968Y-103114989D01*
X126481398Y-103182629D01*
X126432730Y-103225084D01*
X126293703Y-103293644D01*
X126085686Y-103432636D01*
X126082592Y-103435350D01*
X126082586Y-103435354D01*
X126011221Y-103497940D01*
X125897591Y-103597591D01*
X125734109Y-103784007D01*
X125734107Y-103784008D01*
X125732636Y-103785686D01*
X125732260Y-103785357D01*
X125677122Y-103825616D01*
X125606251Y-103829837D01*
X125544349Y-103795071D01*
X125511069Y-103732358D01*
X125508500Y-103707044D01*
X125508500Y-79053250D01*
X125509416Y-79042277D01*
X127137009Y-79042277D01*
X127162625Y-79310769D01*
X127163710Y-79315203D01*
X127163711Y-79315209D01*
X127225645Y-79568312D01*
X127226731Y-79572750D01*
X127327985Y-79822733D01*
X127464265Y-80055482D01*
X127467118Y-80059049D01*
X127584686Y-80206060D01*
X127632716Y-80266119D01*
X127829809Y-80450234D01*
X128051416Y-80603968D01*
X128055499Y-80605999D01*
X128055502Y-80606001D01*
X128171013Y-80663466D01*
X128292894Y-80724101D01*
X128297228Y-80725522D01*
X128297231Y-80725523D01*
X128544853Y-80806698D01*
X128544859Y-80806699D01*
X128549186Y-80808118D01*
X128553677Y-80808898D01*
X128553678Y-80808898D01*
X128811140Y-80853601D01*
X128811148Y-80853602D01*
X128814921Y-80854257D01*
X128818758Y-80854448D01*
X128898578Y-80858422D01*
X128898586Y-80858422D01*
X128900149Y-80858500D01*
X129068512Y-80858500D01*
X129070780Y-80858335D01*
X129070792Y-80858335D01*
X129201884Y-80848823D01*
X129269004Y-80843953D01*
X129273459Y-80842969D01*
X129273462Y-80842969D01*
X129527912Y-80786791D01*
X129527916Y-80786790D01*
X129532372Y-80785806D01*
X129658480Y-80738028D01*
X129780318Y-80691868D01*
X129780321Y-80691867D01*
X129784588Y-80690250D01*
X130020368Y-80559286D01*
X130234773Y-80395657D01*
X130423312Y-80202792D01*
X130582034Y-79984730D01*
X130665190Y-79826676D01*
X130705490Y-79750079D01*
X130705493Y-79750073D01*
X130707615Y-79746039D01*
X130770378Y-79568312D01*
X130795902Y-79496033D01*
X130795902Y-79496032D01*
X130797425Y-79491720D01*
X130849581Y-79227100D01*
X130858782Y-79042277D01*
X130862764Y-78962292D01*
X130862764Y-78962286D01*
X130862991Y-78957723D01*
X130837375Y-78689231D01*
X130829678Y-78657773D01*
X130774355Y-78431688D01*
X130773269Y-78427250D01*
X130672015Y-78177267D01*
X130563816Y-77992477D01*
X130538045Y-77948463D01*
X130538044Y-77948462D01*
X130535735Y-77944518D01*
X130417928Y-77797208D01*
X130370136Y-77737447D01*
X130370135Y-77737445D01*
X130367284Y-77733881D01*
X130170191Y-77549766D01*
X129948584Y-77396032D01*
X129944501Y-77394001D01*
X129944498Y-77393999D01*
X129779606Y-77311967D01*
X129707106Y-77275899D01*
X129702772Y-77274478D01*
X129702769Y-77274477D01*
X129455147Y-77193302D01*
X129455141Y-77193301D01*
X129450814Y-77191882D01*
X129446322Y-77191102D01*
X129188860Y-77146399D01*
X129188852Y-77146398D01*
X129185079Y-77145743D01*
X129173817Y-77145182D01*
X129101422Y-77141578D01*
X129101414Y-77141578D01*
X129099851Y-77141500D01*
X128931488Y-77141500D01*
X128929220Y-77141665D01*
X128929208Y-77141665D01*
X128798116Y-77151177D01*
X128730996Y-77156047D01*
X128726541Y-77157031D01*
X128726538Y-77157031D01*
X128472088Y-77213209D01*
X128472084Y-77213210D01*
X128467628Y-77214194D01*
X128341520Y-77261972D01*
X128219682Y-77308132D01*
X128219679Y-77308133D01*
X128215412Y-77309750D01*
X127979632Y-77440714D01*
X127765227Y-77604343D01*
X127576688Y-77797208D01*
X127417966Y-78015270D01*
X127415844Y-78019304D01*
X127294510Y-78249921D01*
X127294507Y-78249927D01*
X127292385Y-78253961D01*
X127290865Y-78258266D01*
X127290863Y-78258270D01*
X127204098Y-78503967D01*
X127202575Y-78508280D01*
X127150419Y-78772900D01*
X127150192Y-78777453D01*
X127150192Y-78777456D01*
X127137450Y-79033421D01*
X127137009Y-79042277D01*
X125509416Y-79042277D01*
X125510246Y-79032345D01*
X125512770Y-79017344D01*
X125512770Y-79017341D01*
X125513576Y-79012552D01*
X125513729Y-79000000D01*
X125513040Y-78995185D01*
X125513039Y-78995177D01*
X125511550Y-78984781D01*
X125510429Y-78960735D01*
X125523768Y-78689231D01*
X125525010Y-78663949D01*
X125526221Y-78651650D01*
X125548128Y-78503967D01*
X125574680Y-78324966D01*
X125577091Y-78312841D01*
X125590761Y-78258270D01*
X125650619Y-78019304D01*
X125657339Y-77992477D01*
X125660928Y-77980645D01*
X125772190Y-77669689D01*
X125776922Y-77658265D01*
X125918126Y-77359712D01*
X125923955Y-77348807D01*
X126093744Y-77065533D01*
X126100614Y-77055252D01*
X126153099Y-76984483D01*
X126297350Y-76789983D01*
X126305177Y-76780444D01*
X126526985Y-76535718D01*
X126535718Y-76526985D01*
X126780444Y-76305177D01*
X126789983Y-76297350D01*
X127055252Y-76100614D01*
X127065533Y-76093744D01*
X127207899Y-76008412D01*
X127348812Y-75923953D01*
X127359708Y-75918128D01*
X127590500Y-75808972D01*
X127658265Y-75776922D01*
X127669689Y-75772190D01*
X127980645Y-75660928D01*
X127992477Y-75657339D01*
X128292613Y-75582158D01*
X128312844Y-75577090D01*
X128324966Y-75574680D01*
X128651655Y-75526221D01*
X128663949Y-75525010D01*
X128957039Y-75510610D01*
X128982598Y-75511958D01*
X128993724Y-75513691D01*
X129025286Y-75509564D01*
X129041621Y-75508500D01*
X137674000Y-75508500D01*
X137742121Y-75528502D01*
G37*
%TD.AperFunction*%
%TA.AperFunction,Conductor*%
G36*
X153342784Y-97031803D02*
G01*
X153401769Y-97071316D01*
X153430027Y-97136447D01*
X153428373Y-97177552D01*
X153258969Y-97995573D01*
X153258106Y-97999436D01*
X153089916Y-98700000D01*
X152994168Y-99098821D01*
X152990160Y-99115514D01*
X152989178Y-99119338D01*
X152688990Y-100216639D01*
X152686319Y-100226401D01*
X152685220Y-100230185D01*
X152389599Y-101191118D01*
X152347728Y-101327221D01*
X152346509Y-101330975D01*
X152248897Y-101616076D01*
X151974720Y-102416880D01*
X151973379Y-102420604D01*
X151766243Y-102968774D01*
X151643485Y-103293644D01*
X151567678Y-103494260D01*
X151566225Y-103497930D01*
X151408427Y-103878887D01*
X151126994Y-104558327D01*
X151125422Y-104561960D01*
X150653091Y-105608059D01*
X150651412Y-105611624D01*
X150334432Y-106258662D01*
X150146473Y-106642333D01*
X150144676Y-106645860D01*
X149607601Y-107660218D01*
X149605731Y-107663622D01*
X149235484Y-108312733D01*
X149037029Y-108660662D01*
X149035014Y-108664069D01*
X148560858Y-109437822D01*
X148435312Y-109642694D01*
X148433191Y-109646036D01*
X147803047Y-110605338D01*
X147800822Y-110608612D01*
X147140845Y-111547663D01*
X147138518Y-111550865D01*
X146449382Y-112468706D01*
X146446956Y-112471833D01*
X145729352Y-113367552D01*
X145726829Y-113370603D01*
X144981396Y-114243391D01*
X144978792Y-114246345D01*
X144206297Y-115095305D01*
X144203627Y-115098147D01*
X143623495Y-115696797D01*
X143439439Y-115886728D01*
X143426190Y-115898595D01*
X143407699Y-115912938D01*
X143380869Y-115945602D01*
X143372607Y-115954712D01*
X140107613Y-119219706D01*
X140094347Y-119231239D01*
X140075547Y-119245406D01*
X140072712Y-119248163D01*
X140072706Y-119248168D01*
X140063110Y-119257500D01*
X140060266Y-119260266D01*
X140057793Y-119263364D01*
X140055133Y-119266298D01*
X140055106Y-119266274D01*
X140053747Y-119267851D01*
X139724499Y-119621488D01*
X139723100Y-119623224D01*
X139723094Y-119623231D01*
X139461471Y-119947885D01*
X139415056Y-120005483D01*
X139413784Y-120007315D01*
X139413781Y-120007319D01*
X139174787Y-120351536D01*
X139133796Y-120410574D01*
X138882151Y-120834699D01*
X138833129Y-120932632D01*
X138685278Y-121228000D01*
X138661403Y-121275695D01*
X138660550Y-121277755D01*
X138660547Y-121277761D01*
X138483832Y-121704390D01*
X138472679Y-121731315D01*
X138471971Y-121733443D01*
X138317646Y-122197108D01*
X138317641Y-122197123D01*
X138316938Y-122199237D01*
X138194976Y-122677078D01*
X138194580Y-122679273D01*
X138194578Y-122679282D01*
X138107814Y-123160178D01*
X138107413Y-123162402D01*
X138107172Y-123164642D01*
X138107171Y-123164650D01*
X138091784Y-123307773D01*
X138054695Y-123652736D01*
X138038378Y-124109573D01*
X138037778Y-124116397D01*
X138037853Y-124116403D01*
X138037549Y-124120352D01*
X138036999Y-124124269D01*
X138036701Y-124145582D01*
X138037143Y-124149520D01*
X138040715Y-124181368D01*
X138041500Y-124195413D01*
X138041500Y-126544017D01*
X138040506Y-126559809D01*
X138036775Y-126589343D01*
X138037463Y-126596356D01*
X138037412Y-126600000D01*
X138037189Y-126600000D01*
X138054425Y-127038684D01*
X138106027Y-127474662D01*
X138191676Y-127905249D01*
X138192346Y-127907625D01*
X138192349Y-127907637D01*
X138216141Y-127991995D01*
X138310845Y-128327788D01*
X138462799Y-128739674D01*
X138646601Y-129138368D01*
X138861117Y-129521413D01*
X139105026Y-129886446D01*
X139376823Y-130231216D01*
X139401832Y-130258270D01*
X139649117Y-130525781D01*
X139657218Y-130535478D01*
X139659622Y-130538668D01*
X139662376Y-130541500D01*
X139662382Y-130541507D01*
X139671719Y-130551108D01*
X139674482Y-130553949D01*
X139677579Y-130556421D01*
X139702627Y-130576417D01*
X139713113Y-130585793D01*
X141999405Y-132872085D01*
X142033431Y-132934397D01*
X142035831Y-132972161D01*
X142024647Y-133100000D01*
X142044022Y-133321463D01*
X142101560Y-133536196D01*
X142103882Y-133541177D01*
X142103883Y-133541178D01*
X142193186Y-133732689D01*
X142193189Y-133732694D01*
X142195512Y-133737676D01*
X142198668Y-133742183D01*
X142198669Y-133742185D01*
X142313553Y-133906256D01*
X142323023Y-133919781D01*
X142480219Y-134076977D01*
X142484727Y-134080134D01*
X142484730Y-134080136D01*
X142560495Y-134133187D01*
X142662323Y-134204488D01*
X142667305Y-134206811D01*
X142667310Y-134206814D01*
X142762723Y-134251305D01*
X142816008Y-134298222D01*
X142835469Y-134366499D01*
X142814927Y-134434459D01*
X142760905Y-134480525D01*
X142709473Y-134491500D01*
X129049367Y-134491500D01*
X129029982Y-134490000D01*
X129015148Y-134487690D01*
X129015145Y-134487690D01*
X129006276Y-134486309D01*
X128997373Y-134487473D01*
X128997372Y-134487473D01*
X128986924Y-134488839D01*
X128964406Y-134489751D01*
X128663949Y-134474990D01*
X128651655Y-134473779D01*
X128324966Y-134425320D01*
X128312844Y-134422910D01*
X128218804Y-134399354D01*
X127992477Y-134342661D01*
X127980645Y-134339072D01*
X127669689Y-134227810D01*
X127658265Y-134223078D01*
X127494130Y-134145448D01*
X127359708Y-134081872D01*
X127348812Y-134076047D01*
X127207899Y-133991588D01*
X127065533Y-133906256D01*
X127055252Y-133899386D01*
X126913455Y-133794223D01*
X126789983Y-133702650D01*
X126780444Y-133694823D01*
X126535718Y-133473015D01*
X126526980Y-133464277D01*
X126305177Y-133219556D01*
X126297350Y-133210017D01*
X126100614Y-132944748D01*
X126093744Y-132934467D01*
X125971916Y-132731210D01*
X125923953Y-132651188D01*
X125918126Y-132640288D01*
X125910976Y-132625169D01*
X125826760Y-132447110D01*
X125776922Y-132341735D01*
X125772190Y-132330311D01*
X125660928Y-132019355D01*
X125657339Y-132007523D01*
X125591840Y-131746039D01*
X125577090Y-131687156D01*
X125574679Y-131675031D01*
X125558770Y-131567782D01*
X125526220Y-131348343D01*
X125525009Y-131336045D01*
X125523986Y-131315209D01*
X125519433Y-131222544D01*
X125510795Y-131046695D01*
X125511055Y-131042277D01*
X127137009Y-131042277D01*
X127162625Y-131310769D01*
X127163710Y-131315203D01*
X127163711Y-131315209D01*
X127225515Y-131567782D01*
X127226731Y-131572750D01*
X127327985Y-131822733D01*
X127368884Y-131892583D01*
X127439701Y-132013529D01*
X127464265Y-132055482D01*
X127467118Y-132059049D01*
X127584686Y-132206060D01*
X127632716Y-132266119D01*
X127829809Y-132450234D01*
X128051416Y-132603968D01*
X128055499Y-132605999D01*
X128055502Y-132606001D01*
X128124422Y-132640288D01*
X128292894Y-132724101D01*
X128297228Y-132725522D01*
X128297231Y-132725523D01*
X128544853Y-132806698D01*
X128544859Y-132806699D01*
X128549186Y-132808118D01*
X128553677Y-132808898D01*
X128553678Y-132808898D01*
X128811140Y-132853601D01*
X128811148Y-132853602D01*
X128814921Y-132854257D01*
X128818758Y-132854448D01*
X128898578Y-132858422D01*
X128898586Y-132858422D01*
X128900149Y-132858500D01*
X129068512Y-132858500D01*
X129070780Y-132858335D01*
X129070792Y-132858335D01*
X129201884Y-132848823D01*
X129269004Y-132843953D01*
X129273459Y-132842969D01*
X129273462Y-132842969D01*
X129527912Y-132786791D01*
X129527916Y-132786790D01*
X129532372Y-132785806D01*
X129664910Y-132735592D01*
X129780318Y-132691868D01*
X129780321Y-132691867D01*
X129784588Y-132690250D01*
X130020368Y-132559286D01*
X130234773Y-132395657D01*
X130423312Y-132202792D01*
X130582034Y-131984730D01*
X130634521Y-131884969D01*
X130705490Y-131750079D01*
X130705493Y-131750073D01*
X130707615Y-131746039D01*
X130713441Y-131729543D01*
X130795902Y-131496033D01*
X130795902Y-131496032D01*
X130797425Y-131491720D01*
X130835219Y-131299968D01*
X130848700Y-131231572D01*
X130848701Y-131231566D01*
X130849581Y-131227100D01*
X130858562Y-131046695D01*
X130862764Y-130962292D01*
X130862764Y-130962286D01*
X130862991Y-130957723D01*
X130837375Y-130689231D01*
X130801228Y-130541507D01*
X130774355Y-130431688D01*
X130773269Y-130427250D01*
X130672015Y-130177267D01*
X130535735Y-129944518D01*
X130417928Y-129797208D01*
X130370136Y-129737447D01*
X130370135Y-129737445D01*
X130367284Y-129733881D01*
X130170191Y-129549766D01*
X129948584Y-129396032D01*
X129944501Y-129394001D01*
X129944498Y-129393999D01*
X129779606Y-129311967D01*
X129707106Y-129275899D01*
X129702772Y-129274478D01*
X129702769Y-129274477D01*
X129455147Y-129193302D01*
X129455141Y-129193301D01*
X129450814Y-129191882D01*
X129446322Y-129191102D01*
X129188860Y-129146399D01*
X129188852Y-129146398D01*
X129185079Y-129145743D01*
X129173817Y-129145182D01*
X129101422Y-129141578D01*
X129101414Y-129141578D01*
X129099851Y-129141500D01*
X128931488Y-129141500D01*
X128929220Y-129141665D01*
X128929208Y-129141665D01*
X128798116Y-129151177D01*
X128730996Y-129156047D01*
X128726541Y-129157031D01*
X128726538Y-129157031D01*
X128472088Y-129213209D01*
X128472084Y-129213210D01*
X128467628Y-129214194D01*
X128341520Y-129261972D01*
X128219682Y-129308132D01*
X128219679Y-129308133D01*
X128215412Y-129309750D01*
X127979632Y-129440714D01*
X127765227Y-129604343D01*
X127576688Y-129797208D01*
X127417966Y-130015270D01*
X127415844Y-130019304D01*
X127294510Y-130249921D01*
X127294507Y-130249927D01*
X127292385Y-130253961D01*
X127290865Y-130258266D01*
X127290863Y-130258270D01*
X127204098Y-130503967D01*
X127202575Y-130508280D01*
X127150419Y-130772900D01*
X127150192Y-130777453D01*
X127150192Y-130777456D01*
X127137342Y-131035597D01*
X127137009Y-131042277D01*
X125511055Y-131042277D01*
X125512387Y-131019619D01*
X125513576Y-131012552D01*
X125513729Y-131000000D01*
X125509773Y-130972376D01*
X125508500Y-130954514D01*
X125508500Y-120485768D01*
X126567425Y-120485768D01*
X126599138Y-120593521D01*
X126603731Y-120604889D01*
X126689607Y-120769154D01*
X126696321Y-120779415D01*
X126812468Y-120923873D01*
X126821046Y-120932632D01*
X126963039Y-121051778D01*
X126973159Y-121058708D01*
X127135585Y-121148002D01*
X127146858Y-121152834D01*
X127323538Y-121208880D01*
X127335532Y-121211430D01*
X127479761Y-121227607D01*
X127486785Y-121228000D01*
X127567885Y-121228000D01*
X127583124Y-121223525D01*
X127584329Y-121222135D01*
X127586000Y-121214452D01*
X127586000Y-121209885D01*
X128094000Y-121209885D01*
X128098475Y-121225124D01*
X128099865Y-121226329D01*
X128107548Y-121228000D01*
X128186657Y-121228000D01*
X128192805Y-121227699D01*
X128330603Y-121214188D01*
X128342638Y-121211805D01*
X128520076Y-121158233D01*
X128531416Y-121153559D01*
X128695077Y-121066540D01*
X128705294Y-121059751D01*
X128848933Y-120942603D01*
X128857637Y-120933959D01*
X128975784Y-120791144D01*
X128982644Y-120780973D01*
X129070804Y-120617924D01*
X129075556Y-120606619D01*
X129111250Y-120491308D01*
X129111331Y-120485768D01*
X130497425Y-120485768D01*
X130529138Y-120593521D01*
X130533731Y-120604889D01*
X130619607Y-120769154D01*
X130626321Y-120779415D01*
X130742468Y-120923873D01*
X130751046Y-120932632D01*
X130893039Y-121051778D01*
X130903159Y-121058708D01*
X131065585Y-121148002D01*
X131076858Y-121152834D01*
X131253538Y-121208880D01*
X131265532Y-121211430D01*
X131409761Y-121227607D01*
X131416785Y-121228000D01*
X131747885Y-121228000D01*
X131763124Y-121223525D01*
X131764329Y-121222135D01*
X131766000Y-121214452D01*
X131766000Y-121209885D01*
X132274000Y-121209885D01*
X132278475Y-121225124D01*
X132279865Y-121226329D01*
X132287548Y-121228000D01*
X132616657Y-121228000D01*
X132622805Y-121227699D01*
X132760603Y-121214188D01*
X132772638Y-121211805D01*
X132950076Y-121158233D01*
X132961416Y-121153559D01*
X133125077Y-121066540D01*
X133135294Y-121059751D01*
X133278933Y-120942603D01*
X133287637Y-120933959D01*
X133405784Y-120791144D01*
X133412644Y-120780973D01*
X133500804Y-120617924D01*
X133505556Y-120606619D01*
X133541250Y-120491308D01*
X133541456Y-120477205D01*
X133534701Y-120474000D01*
X132292115Y-120474000D01*
X132276876Y-120478475D01*
X132275671Y-120479865D01*
X132274000Y-120487548D01*
X132274000Y-121209885D01*
X131766000Y-121209885D01*
X131766000Y-120492115D01*
X131761525Y-120476876D01*
X131760135Y-120475671D01*
X131752452Y-120474000D01*
X130512076Y-120474000D01*
X130498545Y-120477973D01*
X130497425Y-120485768D01*
X129111331Y-120485768D01*
X129111456Y-120477205D01*
X129104701Y-120474000D01*
X128112115Y-120474000D01*
X128096876Y-120478475D01*
X128095671Y-120479865D01*
X128094000Y-120487548D01*
X128094000Y-121209885D01*
X127586000Y-121209885D01*
X127586000Y-120492115D01*
X127581525Y-120476876D01*
X127580135Y-120475671D01*
X127572452Y-120474000D01*
X126582076Y-120474000D01*
X126568545Y-120477973D01*
X126567425Y-120485768D01*
X125508500Y-120485768D01*
X125508500Y-119962795D01*
X126568544Y-119962795D01*
X126575299Y-119966000D01*
X127567885Y-119966000D01*
X127583124Y-119961525D01*
X127584329Y-119960135D01*
X127586000Y-119952452D01*
X127586000Y-119947885D01*
X128094000Y-119947885D01*
X128098475Y-119963124D01*
X128099865Y-119964329D01*
X128107548Y-119966000D01*
X129097924Y-119966000D01*
X129111455Y-119962027D01*
X129112575Y-119954232D01*
X129080862Y-119846479D01*
X129076269Y-119835111D01*
X128990393Y-119670846D01*
X128983679Y-119660585D01*
X128867532Y-119516127D01*
X128858954Y-119507368D01*
X128716961Y-119388222D01*
X128706841Y-119381292D01*
X128544415Y-119291998D01*
X128533142Y-119287166D01*
X128356462Y-119231120D01*
X128344468Y-119228570D01*
X128200239Y-119212393D01*
X128193215Y-119212000D01*
X128112115Y-119212000D01*
X128096876Y-119216475D01*
X128095671Y-119217865D01*
X128094000Y-119225548D01*
X128094000Y-119947885D01*
X127586000Y-119947885D01*
X127586000Y-119230115D01*
X127581525Y-119214876D01*
X127580135Y-119213671D01*
X127572452Y-119212000D01*
X127493343Y-119212000D01*
X127487195Y-119212301D01*
X127349397Y-119225812D01*
X127337362Y-119228195D01*
X127159924Y-119281767D01*
X127148584Y-119286441D01*
X126984923Y-119373460D01*
X126974706Y-119380249D01*
X126831067Y-119497397D01*
X126822363Y-119506041D01*
X126704216Y-119648856D01*
X126697356Y-119659027D01*
X126609196Y-119822076D01*
X126604444Y-119833381D01*
X126568750Y-119948692D01*
X126568544Y-119962795D01*
X125508500Y-119962795D01*
X125508500Y-113422927D01*
X125528502Y-113354806D01*
X125582158Y-113308313D01*
X125652432Y-113298209D01*
X125717012Y-113327703D01*
X125750909Y-113374709D01*
X125801791Y-113497549D01*
X125803061Y-113499989D01*
X125803064Y-113499995D01*
X125853149Y-113596206D01*
X126001722Y-113881612D01*
X126234365Y-114246788D01*
X126343784Y-114389386D01*
X126443811Y-114519743D01*
X126497950Y-114590299D01*
X126499801Y-114592319D01*
X126716079Y-114828344D01*
X126790471Y-114909529D01*
X127109701Y-115202050D01*
X127111863Y-115203709D01*
X127111869Y-115203714D01*
X127173773Y-115251214D01*
X127453212Y-115465635D01*
X127818388Y-115698278D01*
X128022220Y-115804386D01*
X128200005Y-115896936D01*
X128200011Y-115896939D01*
X128202451Y-115898209D01*
X128602477Y-116063905D01*
X128605097Y-116064731D01*
X128605105Y-116064734D01*
X129012793Y-116193277D01*
X129012798Y-116193278D01*
X129015423Y-116194106D01*
X129438145Y-116287821D01*
X129544334Y-116301801D01*
X129625314Y-116312463D01*
X129690241Y-116341186D01*
X129729332Y-116400451D01*
X129731386Y-116407971D01*
X129749394Y-116482985D01*
X129825199Y-116666000D01*
X129928700Y-116834903D01*
X129931918Y-116838671D01*
X129931924Y-116838679D01*
X129978079Y-116892720D01*
X129989988Y-116909187D01*
X129993852Y-116915554D01*
X130001250Y-116923931D01*
X130016156Y-116938837D01*
X130027685Y-116952098D01*
X130041849Y-116970895D01*
X130044612Y-116973736D01*
X130044616Y-116973741D01*
X130053951Y-116983340D01*
X130056709Y-116986176D01*
X130074499Y-117000378D01*
X130084856Y-117008646D01*
X130095341Y-117018022D01*
X130767587Y-117690268D01*
X130779120Y-117703534D01*
X130793284Y-117722330D01*
X130796041Y-117725165D01*
X130796046Y-117725171D01*
X130805381Y-117734770D01*
X130808144Y-117737611D01*
X130811237Y-117740080D01*
X130811241Y-117740084D01*
X130815886Y-117743793D01*
X130822795Y-117749732D01*
X131006787Y-117919813D01*
X131043232Y-117980741D01*
X131040951Y-118051701D01*
X131000669Y-118110163D01*
X130993775Y-118114996D01*
X130988945Y-118118662D01*
X130983095Y-118122177D01*
X130978138Y-118126865D01*
X130978135Y-118126867D01*
X130896788Y-118203794D01*
X130851515Y-118246607D01*
X130847683Y-118252245D01*
X130847680Y-118252249D01*
X130753558Y-118390745D01*
X130749723Y-118396388D01*
X130682470Y-118564534D01*
X130681356Y-118571262D01*
X130681355Y-118571266D01*
X130654007Y-118736461D01*
X130652892Y-118743198D01*
X130653249Y-118750015D01*
X130653249Y-118750019D01*
X130659003Y-118859798D01*
X130662370Y-118924047D01*
X130710461Y-119098641D01*
X130794922Y-119258836D01*
X130799327Y-119264049D01*
X130799330Y-119264053D01*
X130817694Y-119285783D01*
X130846386Y-119350724D01*
X130835413Y-119420868D01*
X130801092Y-119464754D01*
X130761067Y-119497397D01*
X130752363Y-119506041D01*
X130634216Y-119648856D01*
X130627356Y-119659027D01*
X130539196Y-119822076D01*
X130534444Y-119833381D01*
X130498750Y-119948692D01*
X130498544Y-119962795D01*
X130505299Y-119966000D01*
X133527924Y-119966000D01*
X133541455Y-119962027D01*
X133542575Y-119954232D01*
X133510862Y-119846479D01*
X133506269Y-119835111D01*
X133420393Y-119670846D01*
X133413679Y-119660585D01*
X133297532Y-119516127D01*
X133288954Y-119507368D01*
X133146961Y-119388222D01*
X133136841Y-119381292D01*
X132974415Y-119291998D01*
X132963142Y-119287166D01*
X132786462Y-119231120D01*
X132774468Y-119228570D01*
X132630239Y-119212393D01*
X132623215Y-119212000D01*
X132405023Y-119212000D01*
X132336902Y-119191998D01*
X132290409Y-119138342D01*
X132280305Y-119068068D01*
X132288034Y-119039208D01*
X132294995Y-119021803D01*
X132297530Y-119015466D01*
X132312716Y-118923737D01*
X132343576Y-118859798D01*
X132404105Y-118822693D01*
X132480637Y-118826106D01*
X132743843Y-118923213D01*
X132743850Y-118923215D01*
X132746164Y-118924069D01*
X132748528Y-118924736D01*
X132748541Y-118924740D01*
X132975649Y-118988795D01*
X133113929Y-119027796D01*
X133488699Y-119102350D01*
X133590380Y-119114387D01*
X133673917Y-119124276D01*
X133733167Y-119147466D01*
X133793248Y-119191118D01*
X133799275Y-119193801D01*
X133799276Y-119193802D01*
X133961681Y-119266109D01*
X133967712Y-119268794D01*
X134047639Y-119285783D01*
X134148056Y-119307128D01*
X134148061Y-119307128D01*
X134154513Y-119308500D01*
X134345487Y-119308500D01*
X134351939Y-119307128D01*
X134351944Y-119307128D01*
X134452361Y-119285783D01*
X134532288Y-119268794D01*
X134538319Y-119266109D01*
X134700722Y-119193803D01*
X134700724Y-119193802D01*
X134706752Y-119191118D01*
X134861253Y-119078866D01*
X134989040Y-118936944D01*
X135047314Y-118836010D01*
X135081223Y-118777279D01*
X135081224Y-118777278D01*
X135084527Y-118771556D01*
X135143542Y-118589928D01*
X135145504Y-118571266D01*
X135162814Y-118406565D01*
X135163504Y-118400000D01*
X135143542Y-118210072D01*
X135084527Y-118028444D01*
X134989040Y-117863056D01*
X134861253Y-117721134D01*
X134706752Y-117608882D01*
X134700724Y-117606198D01*
X134700722Y-117606197D01*
X134538319Y-117533891D01*
X134538318Y-117533891D01*
X134532288Y-117531206D01*
X134438887Y-117511353D01*
X134351944Y-117492872D01*
X134351939Y-117492872D01*
X134345487Y-117491500D01*
X134154513Y-117491500D01*
X134148061Y-117492872D01*
X134148056Y-117492872D01*
X134061113Y-117511353D01*
X133967712Y-117531206D01*
X133961682Y-117533891D01*
X133961681Y-117533891D01*
X133831083Y-117592037D01*
X133761343Y-117601566D01*
X133603407Y-117578135D01*
X133591293Y-117575724D01*
X133284809Y-117498948D01*
X133272976Y-117495359D01*
X133258364Y-117490130D01*
X132975480Y-117388907D01*
X132964067Y-117384179D01*
X132678441Y-117249083D01*
X132667539Y-117243256D01*
X132396533Y-117080817D01*
X132386252Y-117073947D01*
X132132478Y-116885731D01*
X132122920Y-116877887D01*
X132048960Y-116810853D01*
X131918068Y-116692217D01*
X131903133Y-116676093D01*
X131895102Y-116665739D01*
X131862445Y-116638914D01*
X131853327Y-116630646D01*
X131261776Y-116039095D01*
X131227750Y-115976783D01*
X131232815Y-115905968D01*
X131261776Y-115860905D01*
X131803251Y-115319430D01*
X131815120Y-115308965D01*
X131833085Y-115295030D01*
X131838648Y-115290715D01*
X131856338Y-115269179D01*
X131868577Y-115256260D01*
X132085029Y-115057918D01*
X132093449Y-115050852D01*
X132349706Y-114854220D01*
X132358710Y-114847916D01*
X132631115Y-114674375D01*
X132640635Y-114668879D01*
X132927131Y-114519739D01*
X132937076Y-114515101D01*
X133235507Y-114391486D01*
X133245829Y-114387730D01*
X133553865Y-114290608D01*
X133564481Y-114287763D01*
X133879817Y-114217854D01*
X133890643Y-114215945D01*
X133899546Y-114214773D01*
X134054818Y-114194331D01*
X134122509Y-114204146D01*
X134267712Y-114268794D01*
X134356954Y-114287763D01*
X134448056Y-114307128D01*
X134448061Y-114307128D01*
X134454513Y-114308500D01*
X134645487Y-114308500D01*
X134651939Y-114307128D01*
X134651944Y-114307128D01*
X134743046Y-114287763D01*
X134832288Y-114268794D01*
X134886919Y-114244471D01*
X135000722Y-114193803D01*
X135000724Y-114193802D01*
X135006752Y-114191118D01*
X135013088Y-114186515D01*
X135062157Y-114150864D01*
X135161253Y-114078866D01*
X135174636Y-114064003D01*
X135284621Y-113941852D01*
X135284622Y-113941851D01*
X135289040Y-113936944D01*
X135384527Y-113771556D01*
X135443542Y-113589928D01*
X135444243Y-113583264D01*
X135462814Y-113406565D01*
X135463504Y-113400000D01*
X135454261Y-113312059D01*
X135444232Y-113216635D01*
X135444232Y-113216633D01*
X135443542Y-113210072D01*
X135384527Y-113028444D01*
X135289040Y-112863056D01*
X135161253Y-112721134D01*
X135025805Y-112622725D01*
X135012094Y-112612763D01*
X135012093Y-112612762D01*
X135006752Y-112608882D01*
X135000724Y-112606198D01*
X135000722Y-112606197D01*
X134838319Y-112533891D01*
X134838318Y-112533891D01*
X134832288Y-112531206D01*
X134738887Y-112511353D01*
X134651944Y-112492872D01*
X134651939Y-112492872D01*
X134645487Y-112491500D01*
X134454513Y-112491500D01*
X134448061Y-112492872D01*
X134448056Y-112492872D01*
X134361113Y-112511353D01*
X134267712Y-112531206D01*
X134261682Y-112533891D01*
X134261681Y-112533891D01*
X134099279Y-112606197D01*
X134093248Y-112608882D01*
X134087909Y-112612761D01*
X134087904Y-112612764D01*
X134038677Y-112648530D01*
X133979425Y-112671722D01*
X133876750Y-112683874D01*
X133715590Y-112702948D01*
X133715579Y-112702950D01*
X133713135Y-112703239D01*
X133567450Y-112732217D01*
X133303588Y-112784702D01*
X133303577Y-112784705D01*
X133301157Y-112785186D01*
X133298781Y-112785856D01*
X133298769Y-112785859D01*
X132899266Y-112898531D01*
X132899261Y-112898533D01*
X132896877Y-112899205D01*
X132502790Y-113044591D01*
X132500543Y-113045627D01*
X132499468Y-113046122D01*
X132499280Y-113046150D01*
X132498258Y-113046573D01*
X132498152Y-113046316D01*
X132429230Y-113056473D01*
X132364546Y-113027207D01*
X132325953Y-112967616D01*
X132320897Y-112938288D01*
X132317987Y-112882765D01*
X132317630Y-112875953D01*
X132282237Y-112747459D01*
X132283431Y-112676474D01*
X132322814Y-112617401D01*
X132387881Y-112588999D01*
X132403713Y-112588000D01*
X132616657Y-112588000D01*
X132622805Y-112587699D01*
X132760603Y-112574188D01*
X132772638Y-112571805D01*
X132950076Y-112518233D01*
X132961416Y-112513559D01*
X133125077Y-112426540D01*
X133135294Y-112419751D01*
X133278933Y-112302603D01*
X133287637Y-112293959D01*
X133405784Y-112151144D01*
X133412644Y-112140973D01*
X133500804Y-111977924D01*
X133505556Y-111966619D01*
X133541250Y-111851308D01*
X133541456Y-111837205D01*
X133534701Y-111834000D01*
X130512076Y-111834000D01*
X130498545Y-111837973D01*
X130497425Y-111845768D01*
X130529138Y-111953521D01*
X130533731Y-111964889D01*
X130619607Y-112129154D01*
X130626321Y-112139415D01*
X130742468Y-112283873D01*
X130751045Y-112292632D01*
X130803110Y-112336319D01*
X130842436Y-112395428D01*
X130843563Y-112466416D01*
X130826331Y-112503663D01*
X130749723Y-112616388D01*
X130682470Y-112784534D01*
X130681356Y-112791262D01*
X130681355Y-112791266D01*
X130663486Y-112899205D01*
X130652892Y-112963198D01*
X130653249Y-112970015D01*
X130653249Y-112970019D01*
X130659932Y-113097523D01*
X130662370Y-113144047D01*
X130710461Y-113318641D01*
X130794922Y-113478836D01*
X130799327Y-113484049D01*
X130799330Y-113484053D01*
X130907406Y-113611943D01*
X130907410Y-113611947D01*
X130911813Y-113617157D01*
X130917237Y-113621304D01*
X130917238Y-113621305D01*
X131050257Y-113723006D01*
X131050261Y-113723008D01*
X131050841Y-113723451D01*
X131050841Y-113723452D01*
X131055678Y-113727150D01*
X131055015Y-113728017D01*
X131098556Y-113775642D01*
X131110528Y-113845622D01*
X131082765Y-113910965D01*
X131070906Y-113923543D01*
X130796380Y-114177312D01*
X130786681Y-114185414D01*
X130785219Y-114186515D01*
X130785211Y-114186522D01*
X130782051Y-114188903D01*
X130766770Y-114203763D01*
X130764305Y-114206851D01*
X130744300Y-114231910D01*
X130734924Y-114242395D01*
X130183001Y-114794318D01*
X130120689Y-114828344D01*
X130087724Y-114831071D01*
X130008430Y-114827176D01*
X129968852Y-114825232D01*
X129956556Y-114824020D01*
X129634721Y-114776281D01*
X129622600Y-114773871D01*
X129529672Y-114750593D01*
X129306991Y-114694814D01*
X129295159Y-114691225D01*
X128988823Y-114581616D01*
X128977399Y-114576884D01*
X128815639Y-114500378D01*
X128683278Y-114437776D01*
X128672377Y-114431949D01*
X128393311Y-114264683D01*
X128383030Y-114257813D01*
X128274487Y-114177312D01*
X128121702Y-114063998D01*
X128112156Y-114056164D01*
X127871079Y-113837665D01*
X127862335Y-113828921D01*
X127674163Y-113621305D01*
X127643836Y-113587844D01*
X127635997Y-113578292D01*
X127566105Y-113484053D01*
X127442187Y-113316970D01*
X127435317Y-113306689D01*
X127351229Y-113166397D01*
X127268049Y-113027619D01*
X127262222Y-113016718D01*
X127233723Y-112956461D01*
X127125838Y-112728356D01*
X127114795Y-112658225D01*
X127143421Y-112593256D01*
X127202627Y-112554076D01*
X127277838Y-112554384D01*
X127323534Y-112568879D01*
X127335532Y-112571430D01*
X127479761Y-112587607D01*
X127486785Y-112588000D01*
X127567885Y-112588000D01*
X127583124Y-112583525D01*
X127584329Y-112582135D01*
X127586000Y-112574452D01*
X127586000Y-112569885D01*
X128094000Y-112569885D01*
X128098475Y-112585124D01*
X128099865Y-112586329D01*
X128107548Y-112588000D01*
X128186657Y-112588000D01*
X128192805Y-112587699D01*
X128330603Y-112574188D01*
X128342638Y-112571805D01*
X128520076Y-112518233D01*
X128531416Y-112513559D01*
X128695077Y-112426540D01*
X128705294Y-112419751D01*
X128848933Y-112302603D01*
X128857637Y-112293959D01*
X128975784Y-112151144D01*
X128982644Y-112140973D01*
X129070804Y-111977924D01*
X129075556Y-111966619D01*
X129111250Y-111851308D01*
X129111456Y-111837205D01*
X129104701Y-111834000D01*
X128112115Y-111834000D01*
X128096876Y-111838475D01*
X128095671Y-111839865D01*
X128094000Y-111847548D01*
X128094000Y-112569885D01*
X127586000Y-112569885D01*
X127586000Y-111307885D01*
X128094000Y-111307885D01*
X128098475Y-111323124D01*
X128099865Y-111324329D01*
X128107548Y-111326000D01*
X129097924Y-111326000D01*
X129108839Y-111322795D01*
X130498544Y-111322795D01*
X130505299Y-111326000D01*
X131747885Y-111326000D01*
X131763124Y-111321525D01*
X131764329Y-111320135D01*
X131766000Y-111312452D01*
X131766000Y-111307885D01*
X132274000Y-111307885D01*
X132278475Y-111323124D01*
X132279865Y-111324329D01*
X132287548Y-111326000D01*
X133527924Y-111326000D01*
X133541455Y-111322027D01*
X133542575Y-111314232D01*
X133510862Y-111206479D01*
X133506269Y-111195111D01*
X133420393Y-111030846D01*
X133413679Y-111020585D01*
X133297532Y-110876127D01*
X133288954Y-110867368D01*
X133146961Y-110748222D01*
X133136841Y-110741292D01*
X132974415Y-110651998D01*
X132963142Y-110647166D01*
X132786462Y-110591120D01*
X132774468Y-110588570D01*
X132630239Y-110572393D01*
X132623215Y-110572000D01*
X132292115Y-110572000D01*
X132276876Y-110576475D01*
X132275671Y-110577865D01*
X132274000Y-110585548D01*
X132274000Y-111307885D01*
X131766000Y-111307885D01*
X131766000Y-110590115D01*
X131761525Y-110574876D01*
X131760135Y-110573671D01*
X131752452Y-110572000D01*
X131423343Y-110572000D01*
X131417195Y-110572301D01*
X131279397Y-110585812D01*
X131267362Y-110588195D01*
X131089924Y-110641767D01*
X131078584Y-110646441D01*
X130914923Y-110733460D01*
X130904706Y-110740249D01*
X130761067Y-110857397D01*
X130752363Y-110866041D01*
X130634216Y-111008856D01*
X130627356Y-111019027D01*
X130539196Y-111182076D01*
X130534444Y-111193381D01*
X130498750Y-111308692D01*
X130498544Y-111322795D01*
X129108839Y-111322795D01*
X129111455Y-111322027D01*
X129112575Y-111314232D01*
X129080862Y-111206479D01*
X129076269Y-111195111D01*
X128990393Y-111030846D01*
X128983679Y-111020585D01*
X128867532Y-110876127D01*
X128858954Y-110867368D01*
X128716961Y-110748222D01*
X128706841Y-110741292D01*
X128544415Y-110651998D01*
X128533142Y-110647166D01*
X128356462Y-110591120D01*
X128344468Y-110588570D01*
X128200239Y-110572393D01*
X128193215Y-110572000D01*
X128112115Y-110572000D01*
X128096876Y-110576475D01*
X128095671Y-110577865D01*
X128094000Y-110585548D01*
X128094000Y-111307885D01*
X127586000Y-111307885D01*
X127586000Y-110590115D01*
X127581525Y-110574876D01*
X127580135Y-110573671D01*
X127572452Y-110572000D01*
X127493343Y-110572000D01*
X127487195Y-110572301D01*
X127349397Y-110585812D01*
X127337362Y-110588195D01*
X127159924Y-110641767D01*
X127148584Y-110646441D01*
X127043653Y-110702233D01*
X126974115Y-110716552D01*
X126907875Y-110691004D01*
X126865962Y-110633699D01*
X126858500Y-110590981D01*
X126858500Y-105012151D01*
X126859726Y-104994615D01*
X126862452Y-104975221D01*
X126862452Y-104975218D01*
X126863001Y-104971313D01*
X126863299Y-104950000D01*
X126862804Y-104945585D01*
X126862809Y-104945072D01*
X126862664Y-104942108D01*
X126862837Y-104942100D01*
X126863096Y-104915087D01*
X126869675Y-104865118D01*
X126878188Y-104833348D01*
X126904603Y-104769575D01*
X126921046Y-104741094D01*
X126926894Y-104733473D01*
X126984230Y-104691608D01*
X127053049Y-104686933D01*
X127075043Y-104691608D01*
X127148056Y-104707128D01*
X127148060Y-104707128D01*
X127154513Y-104708500D01*
X127345487Y-104708500D01*
X127351939Y-104707128D01*
X127351944Y-104707128D01*
X127446951Y-104686933D01*
X127532288Y-104668794D01*
X127538319Y-104666109D01*
X127700722Y-104593803D01*
X127700724Y-104593802D01*
X127706752Y-104591118D01*
X127725803Y-104577277D01*
X127762157Y-104550864D01*
X127861253Y-104478866D01*
X127925846Y-104407128D01*
X127984621Y-104341852D01*
X127984622Y-104341851D01*
X127989040Y-104336944D01*
X128060208Y-104213677D01*
X128081223Y-104177279D01*
X128081224Y-104177278D01*
X128084527Y-104171556D01*
X128143542Y-103989928D01*
X128163504Y-103800000D01*
X128143542Y-103610072D01*
X128084527Y-103428444D01*
X128038062Y-103347963D01*
X128021219Y-103281873D01*
X128022911Y-103212976D01*
X128026267Y-103076253D01*
X128026570Y-103070076D01*
X128079603Y-102351123D01*
X128080210Y-102344968D01*
X128139271Y-101866109D01*
X128168453Y-101629512D01*
X128169357Y-101623415D01*
X128169754Y-101621132D01*
X128245042Y-101187237D01*
X128292604Y-100913132D01*
X128293806Y-100907086D01*
X128451763Y-100203669D01*
X128453253Y-100197723D01*
X128461415Y-100168232D01*
X128645524Y-99502946D01*
X128647319Y-99497028D01*
X128873450Y-98812518D01*
X128875534Y-98806695D01*
X129111959Y-98193786D01*
X129145727Y-98149712D01*
X129144211Y-98117891D01*
X129151469Y-98096536D01*
X129395135Y-97546833D01*
X129441026Y-97492662D01*
X129508919Y-97471901D01*
X129577259Y-97491142D01*
X129624348Y-97544275D01*
X129635235Y-97614432D01*
X129633621Y-97623807D01*
X129632820Y-97626795D01*
X129632304Y-97630052D01*
X129632302Y-97630062D01*
X129619630Y-97710072D01*
X129593148Y-97877279D01*
X129591497Y-97887701D01*
X129560685Y-97952301D01*
X129460960Y-98063056D01*
X129390067Y-98185847D01*
X129375778Y-98210596D01*
X129351783Y-98233475D01*
X129355087Y-98249523D01*
X129349350Y-98278065D01*
X129306458Y-98410072D01*
X129305768Y-98416633D01*
X129305768Y-98416635D01*
X129293485Y-98533500D01*
X129286496Y-98600000D01*
X129287186Y-98606565D01*
X129303955Y-98766109D01*
X129306458Y-98789928D01*
X129365473Y-98971556D01*
X129460960Y-99136944D01*
X129588747Y-99278866D01*
X129634663Y-99312226D01*
X129726385Y-99378866D01*
X129743248Y-99391118D01*
X129749276Y-99393802D01*
X129749278Y-99393803D01*
X129857558Y-99442012D01*
X129917712Y-99468794D01*
X129991236Y-99484422D01*
X130098056Y-99507128D01*
X130098061Y-99507128D01*
X130104513Y-99508500D01*
X130295487Y-99508500D01*
X130301939Y-99507128D01*
X130301944Y-99507128D01*
X130408764Y-99484422D01*
X130482288Y-99468794D01*
X130542442Y-99442012D01*
X130650722Y-99393803D01*
X130650724Y-99393802D01*
X130656752Y-99391118D01*
X130673616Y-99378866D01*
X130765337Y-99312226D01*
X130811253Y-99278866D01*
X130939040Y-99136944D01*
X131034527Y-98971556D01*
X131093542Y-98789928D01*
X131096046Y-98766109D01*
X131112814Y-98606565D01*
X131113504Y-98600000D01*
X131111691Y-98582749D01*
X131104395Y-98513328D01*
X131117168Y-98443489D01*
X131165670Y-98391643D01*
X131234503Y-98374249D01*
X131255902Y-98376912D01*
X131398047Y-98407127D01*
X131398060Y-98407128D01*
X131404513Y-98408500D01*
X131595487Y-98408500D01*
X131601939Y-98407128D01*
X131601944Y-98407128D01*
X131688887Y-98388647D01*
X131782288Y-98368794D01*
X131788319Y-98366109D01*
X131950722Y-98293803D01*
X131950724Y-98293802D01*
X131956752Y-98291118D01*
X132004923Y-98256120D01*
X132090717Y-98193786D01*
X132111253Y-98178866D01*
X132115668Y-98173963D01*
X132120580Y-98169540D01*
X132121705Y-98170789D01*
X132175014Y-98137949D01*
X132208200Y-98133500D01*
X132922898Y-98133500D01*
X132991019Y-98153502D01*
X133037512Y-98207158D01*
X133047616Y-98277432D01*
X133042731Y-98298436D01*
X133006458Y-98410072D01*
X133005768Y-98416633D01*
X133005768Y-98416635D01*
X132993485Y-98533500D01*
X132986496Y-98600000D01*
X132987186Y-98606565D01*
X133003955Y-98766109D01*
X133006458Y-98789928D01*
X133065473Y-98971556D01*
X133160960Y-99136944D01*
X133288747Y-99278866D01*
X133334663Y-99312226D01*
X133426385Y-99378866D01*
X133443248Y-99391118D01*
X133449276Y-99393802D01*
X133449278Y-99393803D01*
X133557558Y-99442012D01*
X133617712Y-99468794D01*
X133691236Y-99484422D01*
X133798056Y-99507128D01*
X133798061Y-99507128D01*
X133804513Y-99508500D01*
X133995487Y-99508500D01*
X134001939Y-99507128D01*
X134001944Y-99507128D01*
X134108764Y-99484422D01*
X134182288Y-99468794D01*
X134242442Y-99442012D01*
X134350722Y-99393803D01*
X134350724Y-99393802D01*
X134356752Y-99391118D01*
X134373616Y-99378866D01*
X134500041Y-99287012D01*
X134511253Y-99278866D01*
X134515668Y-99273963D01*
X134520580Y-99269540D01*
X134521705Y-99270789D01*
X134575014Y-99237949D01*
X134608200Y-99233500D01*
X136312956Y-99233500D01*
X136381077Y-99253502D01*
X136427570Y-99307158D01*
X136437674Y-99377432D01*
X136408180Y-99442012D01*
X136348454Y-99480396D01*
X136329401Y-99484422D01*
X136080621Y-99517174D01*
X136079018Y-99517471D01*
X136079006Y-99517473D01*
X135816586Y-99566109D01*
X135432649Y-99637266D01*
X135431064Y-99637646D01*
X135431057Y-99637648D01*
X135185803Y-99696528D01*
X134791849Y-99791107D01*
X134790261Y-99791577D01*
X134790255Y-99791579D01*
X134161551Y-99977808D01*
X134161539Y-99977812D01*
X134159979Y-99978274D01*
X134158439Y-99978819D01*
X134158437Y-99978820D01*
X133540346Y-100197695D01*
X133540337Y-100197698D01*
X133538771Y-100198253D01*
X132929926Y-100450444D01*
X132335115Y-100734153D01*
X132333660Y-100734943D01*
X132333658Y-100734944D01*
X132082049Y-100871556D01*
X131755968Y-101048603D01*
X131194071Y-101392933D01*
X130650965Y-101766198D01*
X130649687Y-101767179D01*
X130649670Y-101767191D01*
X130129430Y-102166385D01*
X130128139Y-102167376D01*
X130126900Y-102168434D01*
X130126899Y-102168435D01*
X129666902Y-102561311D01*
X129602112Y-102590342D01*
X129585071Y-102591500D01*
X129504513Y-102591500D01*
X129498061Y-102592872D01*
X129498056Y-102592872D01*
X129411113Y-102611353D01*
X129317712Y-102631206D01*
X129311682Y-102633891D01*
X129311681Y-102633891D01*
X129149278Y-102706197D01*
X129149276Y-102706198D01*
X129143248Y-102708882D01*
X128988747Y-102821134D01*
X128984326Y-102826044D01*
X128984325Y-102826045D01*
X128886937Y-102934206D01*
X128860960Y-102963056D01*
X128765473Y-103128444D01*
X128706458Y-103310072D01*
X128686496Y-103500000D01*
X128706458Y-103689928D01*
X128765473Y-103871556D01*
X128768776Y-103877278D01*
X128768777Y-103877279D01*
X128771018Y-103881160D01*
X128860960Y-104036944D01*
X128988747Y-104178866D01*
X129143248Y-104291118D01*
X129149276Y-104293802D01*
X129149278Y-104293803D01*
X129233332Y-104331226D01*
X129317712Y-104368794D01*
X129411113Y-104388647D01*
X129498056Y-104407128D01*
X129498061Y-104407128D01*
X129504513Y-104408500D01*
X129520948Y-104408500D01*
X129589069Y-104428502D01*
X129635562Y-104482158D01*
X129640781Y-104495563D01*
X129661175Y-104558327D01*
X129665473Y-104571556D01*
X129760960Y-104736944D01*
X129888747Y-104878866D01*
X130043248Y-104991118D01*
X130049276Y-104993802D01*
X130049278Y-104993803D01*
X130051102Y-104994615D01*
X130217712Y-105068794D01*
X130311112Y-105088647D01*
X130398056Y-105107128D01*
X130398061Y-105107128D01*
X130404513Y-105108500D01*
X130595487Y-105108500D01*
X130601939Y-105107128D01*
X130601944Y-105107128D01*
X130688888Y-105088647D01*
X130782288Y-105068794D01*
X130948898Y-104994615D01*
X130950722Y-104993803D01*
X130950724Y-104993802D01*
X130956752Y-104991118D01*
X131111253Y-104878866D01*
X131239040Y-104736944D01*
X131334527Y-104571556D01*
X131366240Y-104473955D01*
X131391502Y-104396207D01*
X131391502Y-104396205D01*
X131393542Y-104389928D01*
X131399712Y-104331226D01*
X131406770Y-104264078D01*
X131433784Y-104198421D01*
X131450788Y-104180980D01*
X131677038Y-103989928D01*
X131805849Y-103881157D01*
X131811371Y-103876754D01*
X131826630Y-103865271D01*
X132157010Y-103616635D01*
X132266982Y-103533873D01*
X132272746Y-103529783D01*
X132746880Y-103212976D01*
X132752864Y-103209216D01*
X132983525Y-103073152D01*
X133244020Y-102919489D01*
X133250186Y-102916081D01*
X133756821Y-102654347D01*
X133763175Y-102651287D01*
X134283716Y-102418359D01*
X134290209Y-102415671D01*
X134822944Y-102212315D01*
X134829614Y-102209980D01*
X135372944Y-102036805D01*
X135379720Y-102034853D01*
X135874869Y-101907128D01*
X135931872Y-101892424D01*
X135938762Y-101890851D01*
X136498044Y-101779602D01*
X136505012Y-101778418D01*
X137069667Y-101698701D01*
X137076665Y-101697913D01*
X137323971Y-101677053D01*
X137644892Y-101649983D01*
X137651948Y-101649587D01*
X138180990Y-101634743D01*
X138200965Y-101635770D01*
X138207844Y-101636675D01*
X138211273Y-101637127D01*
X138211274Y-101637127D01*
X138218801Y-101638118D01*
X138253737Y-101634261D01*
X138267564Y-101633500D01*
X142141800Y-101633500D01*
X142209921Y-101653502D01*
X142229147Y-101669843D01*
X142229420Y-101669540D01*
X142234332Y-101673963D01*
X142238747Y-101678866D01*
X142244086Y-101682745D01*
X142377398Y-101779602D01*
X142393248Y-101791118D01*
X142399276Y-101793802D01*
X142399278Y-101793803D01*
X142561681Y-101866109D01*
X142567712Y-101868794D01*
X142661112Y-101888647D01*
X142748056Y-101907128D01*
X142748061Y-101907128D01*
X142754513Y-101908500D01*
X142945487Y-101908500D01*
X142951939Y-101907128D01*
X142951944Y-101907128D01*
X143038888Y-101888647D01*
X143132288Y-101868794D01*
X143138319Y-101866109D01*
X143300722Y-101793803D01*
X143300724Y-101793802D01*
X143306752Y-101791118D01*
X143322603Y-101779602D01*
X143455914Y-101682745D01*
X143461253Y-101678866D01*
X143465668Y-101673963D01*
X143470580Y-101669540D01*
X143471705Y-101670789D01*
X143525014Y-101637949D01*
X143558200Y-101633500D01*
X146046005Y-101633500D01*
X146063759Y-101634757D01*
X146086636Y-101638013D01*
X146092972Y-101638079D01*
X146095870Y-101638110D01*
X146095874Y-101638110D01*
X146100000Y-101638153D01*
X146104104Y-101637657D01*
X146106603Y-101637519D01*
X146112749Y-101637028D01*
X146415362Y-101625137D01*
X146509912Y-101621422D01*
X146512355Y-101621133D01*
X146512366Y-101621132D01*
X146785667Y-101588784D01*
X146917297Y-101573205D01*
X147075026Y-101541831D01*
X147317212Y-101493658D01*
X147317223Y-101493655D01*
X147319643Y-101493174D01*
X147322019Y-101492504D01*
X147322031Y-101492501D01*
X147712081Y-101382495D01*
X147712086Y-101382493D01*
X147714470Y-101381821D01*
X148099343Y-101239834D01*
X148101582Y-101238802D01*
X148469641Y-101069124D01*
X148469654Y-101069117D01*
X148471889Y-101068087D01*
X148829811Y-100867641D01*
X149151251Y-100652862D01*
X149168839Y-100641110D01*
X149168843Y-100641107D01*
X149170904Y-100639730D01*
X149356477Y-100493435D01*
X149491115Y-100387295D01*
X149491120Y-100387291D01*
X149493063Y-100385759D01*
X149495573Y-100383439D01*
X149772537Y-100127416D01*
X149780115Y-100121097D01*
X149781893Y-100119571D01*
X149785197Y-100117090D01*
X149794746Y-100107739D01*
X149813969Y-100083224D01*
X149824018Y-100071887D01*
X152450500Y-97445405D01*
X152512812Y-97411379D01*
X152539595Y-97408500D01*
X152595487Y-97408500D01*
X152601939Y-97407128D01*
X152601944Y-97407128D01*
X152698414Y-97386622D01*
X152782288Y-97368794D01*
X152795176Y-97363056D01*
X152950722Y-97293803D01*
X152950724Y-97293802D01*
X152956752Y-97291118D01*
X153111253Y-97178866D01*
X153211356Y-97067691D01*
X153271801Y-97030451D01*
X153342784Y-97031803D01*
G37*
%TD.AperFunction*%
%TD*%
M02*
