%TF.GenerationSoftware,KiCad,Pcbnew,6.0.6*%
%TF.CreationDate,2022-08-19T01:01:07+00:00*%
%TF.ProjectId,minico2,6d696e69-636f-4322-9e6b-696361645f70,rev?*%
%TF.SameCoordinates,Original*%
%TF.FileFunction,Soldermask,Top*%
%TF.FilePolarity,Negative*%
%FSLAX46Y46*%
G04 Gerber Fmt 4.6, Leading zero omitted, Abs format (unit mm)*
G04 Created by KiCad (PCBNEW 6.0.6) date 2022-08-19 01:01:07*
%MOMM*%
%LPD*%
G01*
G04 APERTURE LIST*
G04 Aperture macros list*
%AMRoundRect*
0 Rectangle with rounded corners*
0 $1 Rounding radius*
0 $2 $3 $4 $5 $6 $7 $8 $9 X,Y pos of 4 corners*
0 Add a 4 corners polygon primitive as box body*
4,1,4,$2,$3,$4,$5,$6,$7,$8,$9,$2,$3,0*
0 Add four circle primitives for the rounded corners*
1,1,$1+$1,$2,$3*
1,1,$1+$1,$4,$5*
1,1,$1+$1,$6,$7*
1,1,$1+$1,$8,$9*
0 Add four rect primitives between the rounded corners*
20,1,$1+$1,$2,$3,$4,$5,0*
20,1,$1+$1,$4,$5,$6,$7,0*
20,1,$1+$1,$6,$7,$8,$9,0*
20,1,$1+$1,$8,$9,$2,$3,0*%
G04 Aperture macros list end*
%ADD10RoundRect,0.150000X-0.587500X-0.150000X0.587500X-0.150000X0.587500X0.150000X-0.587500X0.150000X0*%
%ADD11C,1.000000*%
%ADD12RoundRect,0.225000X0.250000X-0.225000X0.250000X0.225000X-0.250000X0.225000X-0.250000X-0.225000X0*%
%ADD13RoundRect,0.150000X0.150000X-0.587500X0.150000X0.587500X-0.150000X0.587500X-0.150000X-0.587500X0*%
%ADD14RoundRect,0.200000X-0.275000X0.200000X-0.275000X-0.200000X0.275000X-0.200000X0.275000X0.200000X0*%
%ADD15C,2.700000*%
%ADD16C,2.000000*%
%ADD17R,2.000000X0.900000*%
%ADD18R,0.900000X2.000000*%
%ADD19R,5.000000X5.000000*%
%ADD20RoundRect,0.175000X-0.175000X0.325000X-0.175000X-0.325000X0.175000X-0.325000X0.175000X0.325000X0*%
%ADD21RoundRect,0.225000X0.225000X0.250000X-0.225000X0.250000X-0.225000X-0.250000X0.225000X-0.250000X0*%
%ADD22RoundRect,0.225000X-0.225000X-0.250000X0.225000X-0.250000X0.225000X0.250000X-0.225000X0.250000X0*%
%ADD23R,0.900000X1.200000*%
%ADD24RoundRect,0.250000X0.850000X-0.375000X0.850000X0.375000X-0.850000X0.375000X-0.850000X-0.375000X0*%
%ADD25R,1.200000X0.900000*%
%ADD26RoundRect,0.225000X-0.250000X0.225000X-0.250000X-0.225000X0.250000X-0.225000X0.250000X0.225000X0*%
%ADD27C,0.650000*%
%ADD28R,1.450000X0.600000*%
%ADD29R,1.450000X0.300000*%
%ADD30O,1.600000X1.000000*%
%ADD31O,2.100000X1.000000*%
%ADD32C,1.524000*%
%ADD33RoundRect,0.200000X0.275000X-0.200000X0.275000X0.200000X-0.275000X0.200000X-0.275000X-0.200000X0*%
%ADD34RoundRect,0.200000X-0.200000X-0.275000X0.200000X-0.275000X0.200000X0.275000X-0.200000X0.275000X0*%
%ADD35RoundRect,0.030000X0.620000X-0.120000X0.620000X0.120000X-0.620000X0.120000X-0.620000X-0.120000X0*%
%ADD36RoundRect,0.200000X1.300000X-0.800000X1.300000X0.800000X-1.300000X0.800000X-1.300000X-0.800000X0*%
%ADD37RoundRect,0.150000X0.150000X-0.825000X0.150000X0.825000X-0.150000X0.825000X-0.150000X-0.825000X0*%
%ADD38R,1.600000X5.700000*%
G04 APERTURE END LIST*
D10*
%TO.C,Q1*%
X133562500Y-97650000D03*
X133562500Y-99550000D03*
X135437500Y-98600000D03*
%TD*%
D11*
%TO.C,TP7*%
X138700000Y-102600000D03*
%TD*%
D12*
%TO.C,C8*%
X164900000Y-90525000D03*
X164900000Y-88975000D03*
%TD*%
D13*
%TO.C,Q3*%
X168850000Y-91137500D03*
X170750000Y-91137500D03*
X169800000Y-89262500D03*
%TD*%
D14*
%TO.C,R10*%
X170400000Y-92875000D03*
X170400000Y-94525000D03*
%TD*%
D15*
%TO.C,H2*%
X181000000Y-79000000D03*
%TD*%
D16*
%TO.C,TP1*%
X130900000Y-88450000D03*
%TD*%
D11*
%TO.C,TP6*%
X142850000Y-102500000D03*
%TD*%
D14*
%TO.C,R9*%
X168850000Y-92875000D03*
X168850000Y-94525000D03*
%TD*%
D15*
%TO.C,H4*%
X181000000Y-131000000D03*
%TD*%
D17*
%TO.C,U1*%
X143300000Y-82695000D03*
X143300000Y-83965000D03*
X143300000Y-85235000D03*
X143300000Y-86505000D03*
X143300000Y-87775000D03*
X143300000Y-89045000D03*
X143300000Y-90315000D03*
X143300000Y-91585000D03*
X143300000Y-92855000D03*
X143300000Y-94125000D03*
X143300000Y-95395000D03*
X143300000Y-96665000D03*
X143300000Y-97935000D03*
X143300000Y-99205000D03*
D18*
X146085000Y-100205000D03*
X147355000Y-100205000D03*
X148625000Y-100205000D03*
X149895000Y-100205000D03*
X151165000Y-100205000D03*
X152435000Y-100205000D03*
X153705000Y-100205000D03*
X154975000Y-100205000D03*
X156245000Y-100205000D03*
X157515000Y-100205000D03*
D17*
X160300000Y-99205000D03*
X160300000Y-97935000D03*
X160300000Y-96665000D03*
X160300000Y-95395000D03*
X160300000Y-94125000D03*
X160300000Y-92855000D03*
X160300000Y-91585000D03*
X160300000Y-90315000D03*
X160300000Y-89045000D03*
X160300000Y-87775000D03*
X160300000Y-86505000D03*
X160300000Y-85235000D03*
X160300000Y-83965000D03*
X160300000Y-82695000D03*
D19*
X150800000Y-90195000D03*
%TD*%
D20*
%TO.C,U3*%
X136950000Y-86850000D03*
X136000000Y-86850000D03*
X135000000Y-86850000D03*
X135050000Y-89450000D03*
X136950000Y-89450000D03*
%TD*%
D21*
%TO.C,C12*%
X171725000Y-99500000D03*
X170175000Y-99500000D03*
%TD*%
D14*
%TO.C,R4*%
X138600000Y-89450000D03*
X138600000Y-91100000D03*
%TD*%
D11*
%TO.C,TP5*%
X137000000Y-94300000D03*
%TD*%
D22*
%TO.C,C1*%
X127325000Y-109800000D03*
X128875000Y-109800000D03*
%TD*%
D23*
%TO.C,D1*%
X173300000Y-85500000D03*
X176600000Y-85500000D03*
%TD*%
D24*
%TO.C,L1*%
X134300000Y-85125000D03*
X134300000Y-82975000D03*
%TD*%
D21*
%TO.C,C15*%
X171725000Y-104150000D03*
X170175000Y-104150000D03*
%TD*%
D25*
%TO.C,D3*%
X166850000Y-92250000D03*
X166850000Y-88950000D03*
%TD*%
D26*
%TO.C,C10*%
X172000000Y-92925000D03*
X172000000Y-94475000D03*
%TD*%
%TO.C,C6*%
X163300000Y-84925000D03*
X163300000Y-86475000D03*
%TD*%
D21*
%TO.C,C13*%
X171725000Y-101050000D03*
X170175000Y-101050000D03*
%TD*%
D23*
%TO.C,D2*%
X176600000Y-83150000D03*
X173300000Y-83150000D03*
%TD*%
D26*
%TO.C,C7*%
X171800000Y-83125000D03*
X171800000Y-84675000D03*
%TD*%
D10*
%TO.C,Q2*%
X129662500Y-97650000D03*
X129662500Y-99550000D03*
X131537500Y-98600000D03*
%TD*%
D27*
%TO.C,J1*%
X131490000Y-118790000D03*
X131490000Y-113010000D03*
D28*
X132935000Y-112650000D03*
X132935000Y-113450000D03*
D29*
X132935000Y-114650000D03*
X132935000Y-115650000D03*
X132935000Y-116150000D03*
X132935000Y-117150000D03*
D28*
X132935000Y-118350000D03*
X132935000Y-119150000D03*
X132935000Y-119150000D03*
X132935000Y-118350000D03*
D29*
X132935000Y-117650000D03*
X132935000Y-116650000D03*
X132935000Y-115150000D03*
X132935000Y-114150000D03*
D28*
X132935000Y-113450000D03*
X132935000Y-112650000D03*
D30*
X127840000Y-111580000D03*
D31*
X132020000Y-111580000D03*
X132020000Y-120220000D03*
D30*
X127840000Y-120220000D03*
%TD*%
D32*
%TO.C,U5*%
X143300000Y-133100000D03*
X145840000Y-133100000D03*
X148380000Y-133100000D03*
X150920000Y-133100000D03*
X153460000Y-133100000D03*
X156000000Y-133100000D03*
X158540000Y-133100000D03*
%TD*%
D33*
%TO.C,R6*%
X137300000Y-97975000D03*
X137300000Y-99625000D03*
%TD*%
D15*
%TO.C,H1*%
X129000000Y-79000000D03*
%TD*%
D16*
%TO.C,TP2*%
X130900000Y-91500000D03*
%TD*%
D14*
%TO.C,R3*%
X138600000Y-86425000D03*
X138600000Y-88075000D03*
%TD*%
D21*
%TO.C,C14*%
X171725000Y-102600000D03*
X170175000Y-102600000D03*
%TD*%
D22*
%TO.C,C4*%
X136425000Y-82850000D03*
X137975000Y-82850000D03*
%TD*%
D16*
%TO.C,TP3*%
X130900000Y-85400000D03*
%TD*%
D34*
%TO.C,R2*%
X130375000Y-109800000D03*
X132025000Y-109800000D03*
%TD*%
D35*
%TO.C,J2*%
X174205000Y-90500000D03*
X174205000Y-91000000D03*
X174205000Y-91500000D03*
X174205000Y-92000000D03*
X174205000Y-92500000D03*
X174205000Y-93000000D03*
X174205000Y-93500000D03*
X174205000Y-94000000D03*
X174205000Y-94500000D03*
X174205000Y-95000000D03*
X174205000Y-95500000D03*
X174205000Y-96000000D03*
X174205000Y-96500000D03*
X174205000Y-97000000D03*
X174205000Y-97500000D03*
X174205000Y-98000000D03*
X174205000Y-98500000D03*
X174205000Y-99000000D03*
X174205000Y-99500000D03*
X174205000Y-100000000D03*
X174205000Y-100500000D03*
X174205000Y-101000000D03*
X174205000Y-101500000D03*
X174205000Y-102000000D03*
D36*
X176555000Y-103650000D03*
X176555000Y-88850000D03*
%TD*%
D22*
%TO.C,C2*%
X135025000Y-90950000D03*
X136575000Y-90950000D03*
%TD*%
D15*
%TO.C,H3*%
X129000000Y-131000000D03*
%TD*%
D33*
%TO.C,R5*%
X127800000Y-99625000D03*
X127800000Y-97975000D03*
%TD*%
D34*
%TO.C,R1*%
X130375000Y-122000000D03*
X132025000Y-122000000D03*
%TD*%
D11*
%TO.C,TP4*%
X139400000Y-97200000D03*
%TD*%
D21*
%TO.C,C9*%
X171725000Y-96400000D03*
X170175000Y-96400000D03*
%TD*%
%TO.C,C11*%
X171725000Y-97950000D03*
X170175000Y-97950000D03*
%TD*%
D37*
%TO.C,U2*%
X127155000Y-106575000D03*
X128425000Y-106575000D03*
X129695000Y-106575000D03*
X130965000Y-106575000D03*
X132235000Y-106575000D03*
X133505000Y-106575000D03*
X134775000Y-106575000D03*
X136045000Y-106575000D03*
X136045000Y-101625000D03*
X134775000Y-101625000D03*
X133505000Y-101625000D03*
X132235000Y-101625000D03*
X130965000Y-101625000D03*
X129695000Y-101625000D03*
X128425000Y-101625000D03*
X127155000Y-101625000D03*
%TD*%
D38*
%TO.C,L2*%
X165150000Y-84900000D03*
X169850000Y-84900000D03*
%TD*%
M02*
