M48
; DRILL file {KiCad 6.0.6} date Fri 19 Aug 2022 01:03:22 UTC
; FORMAT={-:-/ absolute / metric / decimal}
; #@! TF.CreationDate,2022-08-19T01:03:22+00:00
; #@! TF.GenerationSoftware,Kicad,Pcbnew,6.0.6
; #@! TF.FileFunction,Plated,1,2,PTH
FMAT,2
METRIC
; #@! TA.AperFunction,Plated,PTH,ViaDrill
T1C0.400
; #@! TA.AperFunction,Plated,PTH,ComponentDrill
T2C0.600
; #@! TA.AperFunction,Plated,PTH,ComponentDrill
T3C0.762
%
G90
G05
T1
X127.25Y-103.8
X129.6Y-103.5
X130.2Y-98.6
X130.5Y-104.2
X131.5Y-97.5
X132.55Y-86.4
X132.7Y-89.7
X133.65Y-90.95
X133.9Y-98.6
X134.25Y-118.4
X134.55Y-113.4
X135.0Y-88.15
X135.0Y-109.75
X135.8Y-97.5
X136.2Y-84.75
X136.2Y-85.65
X137.0Y-95.7
X137.1Y-84.75
X137.1Y-85.65
X137.5Y-91.8
X137.9Y-107.05
X138.8Y-100.0
X139.3Y-82.85
X139.35Y-117.3
X139.4Y-98.6
X140.8Y-126.8
X140.892Y-125.1
X141.5Y-85.2
X142.85Y-101.0
X143.35Y-114.35
X143.7Y-120.8
X144.8Y-127.5
X145.2Y-84.0
X145.2Y-98.6
X147.3Y-85.3
X147.4Y-82.8
X150.0Y-82.8
X150.0Y-85.3
X150.0Y-97.5
X152.5Y-96.5
X156.1Y-85.4
X156.15Y-82.6
X158.4Y-91.6
X158.4Y-92.8
X158.4Y-94.1
X158.4Y-95.4
X158.4Y-96.7
X158.4Y-97.9
X162.1Y-84.9
X163.5Y-88.3
X163.5Y-90.35
X165.8Y-98.7
X167.4Y-84.4
X168.55Y-100.5
X168.7Y-102.55
X168.7Y-104.15
X169.8Y-91.0
X171.95Y-91.0
X173.7Y-89.2
X175.6Y-98.55
X175.8Y-100.4
X176.525Y-99.47
X176.6Y-93.7
X176.65Y-92.55
X177.1Y-91.0
X177.5Y-94.5
X177.9Y-97.5
X178.0Y-99.7
X178.2Y-83.15
X178.5Y-94.6
X179.0Y-95.5
X179.0Y-96.5
X179.2Y-89.2
X179.9Y-103.5
T3
X143.3Y-133.1
X145.84Y-133.1
X148.38Y-133.1
X150.92Y-133.1
X153.46Y-133.1
X156.0Y-133.1
X158.54Y-133.1
T2
X128.14Y-111.58G85X127.54Y-111.58
G05
X128.14Y-120.22G85X127.54Y-120.22
G05
X132.57Y-111.58G85X131.47Y-111.58
G05
X132.57Y-120.22G85X131.47Y-120.22
G05
T0
M30
